M48
; DRILL file {KiCad 6.0.5-a6ca702e91~116~ubuntu20.04.1} date 2022 m. gegužės 08 d. 17:52:22
; FORMAT={-:-/ absolute / metric / decimal}
; #@! TF.CreationDate,2022-05-08T17:52:22+03:00
; #@! TF.GenerationSoftware,Kicad,Pcbnew,6.0.5-a6ca702e91~116~ubuntu20.04.1
; #@! TF.FileFunction,Plated,1,2,PTH
FMAT,2
METRIC
; #@! TA.AperFunction,Plated,PTH,ViaDrill
T1C0.350
; #@! TA.AperFunction,Plated,PTH,ViaDrill
T2C0.600
; #@! TA.AperFunction,Plated,PTH,ComponentDrill
T3C1.016
%
G90
G05
T1
X138.201Y-103.804
X138.201Y-106.204
X138.301Y-116.104
X138.401Y-110.504
X139.001Y-103.804
X139.001Y-106.204
X140.701Y-96.804
X142.701Y-99.104
X142.701Y-99.904
X142.701Y-100.704
X142.701Y-102.604
X142.701Y-104.204
X142.801Y-93.704
X143.501Y-106.804
X143.901Y-93.704
X143.901Y-95.004
X144.801Y-99.104
X144.801Y-100.704
X144.801Y-102.604
X145.201Y-104.304
X145.801Y-99.104
X146.701Y-95.804
X146.701Y-99.104
X146.701Y-100.704
X146.801Y-102.604
X146.801Y-104.304
X147.901Y-103.804
X148.001Y-110.704
X148.101Y-115.704
X148.201Y-99.404
X148.201Y-100.204
X148.201Y-101.004
X148.201Y-101.804
X148.401Y-93.704
X148.401Y-95.404
X152.101Y-106.604
X152.201Y-105.804
X152.401Y-97.004
X153.201Y-97.704
X153.901Y-97.004
X153.901Y-100.604
X154.001Y-104.004
X155.201Y-97.004
X156.891Y-98.204
X157.801Y-94.104
X157.801Y-97.104
X157.801Y-98.104
X157.801Y-103.104
X157.801Y-104.104
X158.801Y-94.104
X158.801Y-95.104
X158.801Y-96.104
X158.801Y-97.104
X158.801Y-98.104
X158.801Y-103.104
X158.801Y-104.104
X158.801Y-105.104
X158.801Y-106.104
T2
X138.101Y-105.004
X138.201Y-97.704
X138.201Y-99.204
X138.392Y-101.071
X138.392Y-102.471
X138.392Y-114.871
X145.301Y-94.604
X146.801Y-94.604
X156.492Y-94.071
X157.192Y-105.771
X157.492Y-95.571
X158.801Y-99.904
X158.801Y-101.304
T3
X140.621Y-112.304
X140.621Y-114.844
X143.161Y-112.304
X143.161Y-114.844
X145.701Y-112.304
X145.701Y-114.844
T0
M30
