G04 #@! TF.GenerationSoftware,KiCad,Pcbnew,6.0.5-a6ca702e91~116~ubuntu20.04.1*
G04 #@! TF.CreationDate,2022-05-08T17:52:19+03:00*
G04 #@! TF.ProjectId,ict_v361,6963745f-7633-4363-912e-6b696361645f,rev?*
G04 #@! TF.SameCoordinates,Original*
G04 #@! TF.FileFunction,Copper,L1,Top*
G04 #@! TF.FilePolarity,Positive*
%FSLAX46Y46*%
G04 Gerber Fmt 4.6, Leading zero omitted, Abs format (unit mm)*
G04 Created by KiCad (PCBNEW 6.0.5-a6ca702e91~116~ubuntu20.04.1) date 2022-05-08 17:52:19*
%MOMM*%
%LPD*%
G01*
G04 APERTURE LIST*
G04 #@! TA.AperFunction,SMDPad,CuDef*
%ADD10R,1.270000X0.558800*%
G04 #@! TD*
G04 #@! TA.AperFunction,SMDPad,CuDef*
%ADD11R,0.558800X1.270000*%
G04 #@! TD*
G04 #@! TA.AperFunction,SMDPad,CuDef*
%ADD12R,0.250000X1.000000*%
G04 #@! TD*
G04 #@! TA.AperFunction,SMDPad,CuDef*
%ADD13R,0.900000X1.100000*%
G04 #@! TD*
G04 #@! TA.AperFunction,SMDPad,CuDef*
%ADD14R,1.050000X1.080000*%
G04 #@! TD*
G04 #@! TA.AperFunction,ComponentPad*
%ADD15C,1.879600*%
G04 #@! TD*
G04 #@! TA.AperFunction,SMDPad,CuDef*
%ADD16R,1.100000X1.000000*%
G04 #@! TD*
G04 #@! TA.AperFunction,SMDPad,CuDef*
%ADD17R,0.400000X1.600000*%
G04 #@! TD*
G04 #@! TA.AperFunction,ViaPad*
%ADD18C,0.502400*%
G04 #@! TD*
G04 #@! TA.AperFunction,ViaPad*
%ADD19C,1.200000*%
G04 #@! TD*
G04 #@! TA.AperFunction,ViaPad*
%ADD20C,1.100000*%
G04 #@! TD*
G04 #@! TA.AperFunction,Conductor*
%ADD21C,0.203200*%
G04 #@! TD*
G04 #@! TA.AperFunction,Conductor*
%ADD22C,0.508000*%
G04 #@! TD*
G04 APERTURE END LIST*
G36*
X138801100Y-94203600D02*
G01*
X138001100Y-94203600D01*
X138001100Y-93703600D01*
X138801100Y-93703600D01*
X138801100Y-94203600D01*
G37*
G36*
X138801100Y-96303600D02*
G01*
X138001100Y-96303600D01*
X138001100Y-95803600D01*
X138801100Y-95803600D01*
X138801100Y-96303600D01*
G37*
G36*
X141801100Y-94203600D02*
G01*
X141001100Y-94203600D01*
X141001100Y-93703600D01*
X141801100Y-93703600D01*
X141801100Y-94203600D01*
G37*
G36*
X141801100Y-96303600D02*
G01*
X141001100Y-96303600D01*
X141001100Y-95803600D01*
X141801100Y-95803600D01*
X141801100Y-96303600D01*
G37*
G36*
X140301100Y-94203600D02*
G01*
X139501100Y-94203600D01*
X139501100Y-93703600D01*
X140301100Y-93703600D01*
X140301100Y-94203600D01*
G37*
G36*
X140301100Y-96303600D02*
G01*
X139501100Y-96303600D01*
X139501100Y-95803600D01*
X140301100Y-95803600D01*
X140301100Y-96303600D01*
G37*
D10*
X149793700Y-98603600D03*
X149793700Y-99403600D03*
X149793700Y-100203600D03*
X149793700Y-101003600D03*
X149793700Y-101803600D03*
X149793700Y-102603600D03*
X149793700Y-103403600D03*
X149793700Y-104203600D03*
D11*
X148301100Y-105696200D03*
X147501100Y-105696200D03*
X146701100Y-105696200D03*
X145901100Y-105696200D03*
X145101100Y-105696200D03*
X144301100Y-105696200D03*
X143501100Y-105696200D03*
X142701100Y-105696200D03*
D10*
X141208500Y-104203600D03*
X141208500Y-103403600D03*
X141208500Y-102603600D03*
X141208500Y-101803600D03*
X141208500Y-101003600D03*
X141208500Y-100203600D03*
X141208500Y-99403600D03*
X141208500Y-98603600D03*
D11*
X142701100Y-97111000D03*
X143501100Y-97111000D03*
X144301100Y-97111000D03*
X145101100Y-97111000D03*
X145901100Y-97111000D03*
X146701100Y-97111000D03*
X147501100Y-97111000D03*
X148301100Y-97111000D03*
D12*
X156891000Y-103918300D03*
X156391000Y-103918300D03*
X155891000Y-103918300D03*
X155391000Y-103918300D03*
X154891000Y-103918300D03*
X154891000Y-99692100D03*
X155391000Y-99692100D03*
X155891000Y-99692100D03*
X156391000Y-99692100D03*
X156891000Y-99692100D03*
D13*
X151101100Y-96003600D03*
X153901100Y-94203600D03*
X153901100Y-96003600D03*
X151101100Y-94203600D03*
D14*
X155176100Y-105803600D03*
X153426100Y-105803600D03*
D15*
X140621100Y-114843600D03*
X140621100Y-112303600D03*
X143161100Y-114843600D03*
X143161100Y-112303600D03*
X145701100Y-114843600D03*
X145701100Y-112303600D03*
D16*
X152701100Y-100553600D03*
X152701100Y-98853600D03*
X152701100Y-102053600D03*
X152701100Y-103753600D03*
D17*
X138401100Y-95003600D03*
X139901100Y-95003600D03*
X141401100Y-95003600D03*
D18*
X144801100Y-99103600D03*
X138201100Y-106203600D03*
D19*
X138392100Y-101071000D03*
X138392100Y-102471000D03*
D18*
X138301100Y-116103600D03*
X146701100Y-95803600D03*
X145201100Y-104303600D03*
D19*
X156492100Y-94071000D03*
X157492100Y-95571000D03*
D18*
X143901100Y-93703600D03*
X142801100Y-93703600D03*
X153901100Y-97003600D03*
X142701100Y-99103600D03*
X148401100Y-93703600D03*
X146701100Y-99103600D03*
X138201100Y-103803600D03*
X142701100Y-104203600D03*
X152401100Y-97003600D03*
X154001100Y-104003600D03*
X139001100Y-103803600D03*
X139001100Y-106203600D03*
X143901100Y-95003600D03*
X152101100Y-106603600D03*
X140701100Y-96803600D03*
X148401100Y-95403600D03*
X155201100Y-97003600D03*
D19*
X157192100Y-105771000D03*
D18*
X158801100Y-106103600D03*
X144801100Y-100703600D03*
X144801100Y-102603600D03*
X142701100Y-102603600D03*
X142701100Y-100703600D03*
X146701100Y-100703600D03*
X158801100Y-105103600D03*
X158801100Y-104103600D03*
X158801100Y-103103600D03*
X157801100Y-104103600D03*
X157801100Y-103103600D03*
X158801100Y-98103600D03*
X157801100Y-98103600D03*
X158801100Y-97103600D03*
X157801100Y-97103600D03*
X158801100Y-96103600D03*
X158801100Y-95103600D03*
X158801100Y-94103600D03*
X157801100Y-94103600D03*
D19*
X138392100Y-114871000D03*
D18*
X148001100Y-110703600D03*
X148101100Y-115703600D03*
X138401100Y-110503600D03*
X146801100Y-102603600D03*
X146801100Y-104303600D03*
D19*
X138201100Y-97703600D03*
X138201100Y-99203600D03*
D18*
X153901100Y-100603600D03*
X153201100Y-97703600D03*
X156891000Y-98203600D03*
X142701100Y-99903600D03*
X145801100Y-99103600D03*
X148201100Y-99403600D03*
X148201100Y-100203600D03*
X148201100Y-101003600D03*
X147901100Y-103803600D03*
D19*
X145301100Y-94603600D03*
X146801100Y-94603600D03*
D18*
X143501100Y-106803600D03*
X152201100Y-105803600D03*
X148201100Y-101803600D03*
D19*
X158801100Y-101303600D03*
X158801100Y-99903600D03*
D20*
X138101100Y-105003600D03*
D21*
X155391000Y-103918300D02*
X155391000Y-102493500D01*
X155391000Y-102493500D02*
X156891000Y-100993500D01*
X156891000Y-100993500D02*
X156891000Y-99692100D01*
X152701100Y-102053600D02*
X152701100Y-100553600D01*
X147601100Y-97044300D02*
X147501100Y-96944300D01*
X147501100Y-96203600D02*
X147701100Y-96003600D01*
X147701100Y-96003600D02*
X149001100Y-96003600D01*
X149001100Y-96003600D02*
X150701100Y-97703600D01*
X153201100Y-97703600D02*
X150701100Y-97703600D01*
X156891000Y-98203600D02*
X156891000Y-99692100D01*
X141208500Y-100203600D02*
X142401100Y-100203600D01*
X142401100Y-100203600D02*
X142701100Y-99903600D01*
X145801100Y-99103600D02*
X146501100Y-98403600D01*
X146501100Y-98403600D02*
X147301100Y-98403600D01*
X147501100Y-98203600D02*
X147301100Y-98403600D01*
X149793700Y-98603600D02*
X150693700Y-97703600D01*
X150693700Y-97703600D02*
X150701100Y-97703600D01*
X140201100Y-98603600D02*
X140001100Y-98803600D01*
X140001100Y-98803600D02*
X140001100Y-99403600D01*
X140001100Y-99403600D02*
X140001100Y-100003600D01*
X140201100Y-100203600D02*
X141208500Y-100203600D01*
X140001100Y-100003600D02*
X140201100Y-100203600D01*
X141208500Y-99403600D02*
X140001100Y-99403600D01*
X141208500Y-98603600D02*
X140201100Y-98603600D01*
X147501100Y-97111000D02*
X147501100Y-98203600D01*
X147501100Y-97111000D02*
X147567800Y-97044300D01*
X147567800Y-97044300D02*
X147601100Y-97044300D01*
X147501100Y-97111000D02*
X147501100Y-96203600D01*
X152701100Y-100553600D02*
X152751100Y-100603600D01*
X152751100Y-100603600D02*
X153901100Y-100603600D01*
X148201100Y-99403600D02*
X149793700Y-99403600D01*
X149793700Y-100203600D02*
X148201100Y-100203600D01*
X149793700Y-101003600D02*
X148201100Y-101003600D01*
X149929200Y-101772800D02*
X149793700Y-101803600D01*
X155391000Y-99692100D02*
X155391000Y-98993500D01*
X155251100Y-98853600D02*
X152701100Y-98853600D01*
X155391000Y-98993500D02*
X155251100Y-98853600D01*
X152701100Y-98853600D02*
X151201100Y-100253600D01*
X151201100Y-100253600D02*
X151201100Y-101703600D01*
X151201100Y-101703600D02*
X151131900Y-101772800D01*
X151131900Y-101772800D02*
X149929200Y-101772800D01*
X154891000Y-99692100D02*
X154891000Y-101913700D01*
X149793700Y-102603600D02*
X150901100Y-102603600D01*
X152051100Y-103753600D02*
X152701100Y-103753600D01*
X150901100Y-102603600D02*
X152051100Y-103753600D01*
X154891000Y-101913700D02*
X153051100Y-103753600D01*
X153051100Y-103753600D02*
X152701100Y-103753600D01*
X148301100Y-105696200D02*
X148301100Y-104203600D01*
X148301100Y-104203600D02*
X149793700Y-104203600D01*
X147901100Y-103803600D02*
X148301100Y-104203600D01*
X147501100Y-105696200D02*
X147501100Y-104203600D01*
X147501100Y-104203600D02*
X147901100Y-103803600D01*
X149793700Y-103403600D02*
X148301100Y-103403600D01*
X148301100Y-103403600D02*
X147901100Y-103803600D01*
X146134400Y-96911000D02*
X145901100Y-97111000D01*
X143501100Y-105643700D02*
X143501100Y-105696200D01*
X143501100Y-98575800D02*
X143501100Y-105696200D01*
X144246700Y-97830200D02*
X143501100Y-98575800D01*
X144246700Y-97144400D02*
X144246700Y-97830200D01*
X144246700Y-97144400D02*
X144301100Y-97111000D01*
X144301100Y-97111000D02*
X144344000Y-95960700D01*
X144344000Y-95960700D02*
X144401100Y-95903600D01*
X144401100Y-95903600D02*
X145101100Y-95903600D01*
X145101100Y-95903600D02*
X145801100Y-95903600D01*
X145801100Y-95903600D02*
X145901100Y-96003600D01*
X145901100Y-96003600D02*
X145901100Y-97111000D01*
X145101100Y-95903600D02*
X145101100Y-94803600D01*
X145101100Y-94803600D02*
X145301100Y-94603600D01*
X145301100Y-94603600D02*
X146801100Y-94603600D01*
X150101100Y-94203600D02*
X149701100Y-94603600D01*
X146801100Y-94603600D02*
X149701100Y-94603600D01*
X150101100Y-94203600D02*
X151101100Y-94203600D01*
X152201100Y-105803600D02*
X153426100Y-105803600D01*
X145801700Y-114490200D02*
X145801700Y-114761350D01*
X144401100Y-113089600D02*
X145801700Y-114490200D01*
X144401100Y-110682900D02*
X144401100Y-113089600D01*
X143501100Y-109782900D02*
X144401100Y-110682900D01*
X143501100Y-107693766D02*
X143501100Y-107803600D01*
X143501100Y-107803600D02*
X143501100Y-109782900D01*
X145883950Y-114843600D02*
X145801700Y-114761350D01*
X145701100Y-114843600D02*
X145883950Y-114843600D01*
X145883950Y-114843600D02*
X145892525Y-114852175D01*
X143501100Y-105696200D02*
X143501100Y-106803600D01*
X143501100Y-106803600D02*
X143501100Y-107693766D01*
X143161100Y-110740800D02*
X142701100Y-110280800D01*
X143161100Y-110740800D02*
X143161100Y-112303600D01*
X142701100Y-105696200D02*
X142701100Y-110280800D01*
X141208500Y-104203600D02*
X141248700Y-104243800D01*
X141248700Y-104243800D02*
X141248700Y-107388200D01*
X141904400Y-108043900D02*
X141248700Y-107388200D01*
X141904400Y-112769400D02*
X141904400Y-108043900D01*
X142695000Y-113560000D02*
X141904400Y-112769400D01*
X143920500Y-113560000D02*
X142695000Y-113560000D01*
X144401100Y-114040600D02*
X143920500Y-113560000D01*
X144401100Y-115466100D02*
X144401100Y-114040600D01*
X145171500Y-116236500D02*
X144401100Y-115466100D01*
X146497000Y-116236500D02*
X145171500Y-116236500D01*
X147222500Y-115511000D02*
X146497000Y-116236500D01*
X147222500Y-113594900D02*
X147222500Y-115511000D01*
X145945700Y-112318100D02*
X147222500Y-113594900D01*
X145945700Y-112318100D02*
X145901100Y-112318100D01*
X145701100Y-112303600D02*
X145931200Y-112303600D01*
X145931200Y-112303600D02*
X145945700Y-112318100D01*
X140479625Y-103384400D02*
X139986200Y-103877825D01*
X141208500Y-103403600D02*
X141061000Y-103384400D01*
X141061000Y-103384400D02*
X140479625Y-103384400D01*
X139986200Y-107585600D02*
X139327900Y-108243900D01*
X139327900Y-113034500D02*
X139327900Y-108243900D01*
X139897000Y-113603600D02*
X139327900Y-113034500D01*
X142113100Y-113603600D02*
X139897000Y-113603600D01*
X143353100Y-114843600D02*
X142113100Y-113603600D01*
X143355750Y-114846250D02*
X143361100Y-114846250D01*
X139986200Y-103877825D02*
X139986200Y-107585600D01*
X143161100Y-114843600D02*
X143353100Y-114843600D01*
X143353100Y-114843600D02*
X143355750Y-114846250D01*
X138401100Y-95003600D02*
X138401100Y-95803600D01*
X138401100Y-95803600D02*
X140108500Y-97511000D01*
X140108500Y-97511000D02*
X142301100Y-97511000D01*
X142301100Y-97511000D02*
X142701100Y-97111000D01*
X143501100Y-97111000D02*
X143501100Y-96103600D01*
X142401100Y-95003600D02*
X141401100Y-95003600D01*
X143501100Y-96103600D02*
X142401100Y-95003600D01*
X148201100Y-101803600D02*
X147601100Y-101203600D01*
X147601100Y-99003600D02*
X148301100Y-98303600D01*
X148301100Y-98303600D02*
X148301100Y-97111000D01*
X147601100Y-101203600D02*
X147601100Y-99003600D01*
X158801100Y-101303600D02*
X158801100Y-99903600D01*
D22*
X158801100Y-101303600D02*
X158801100Y-101303600D01*
X158801100Y-101303600D02*
X158502295Y-101327117D01*
X158502295Y-101327117D02*
X158210847Y-101397087D01*
X158210847Y-101397087D02*
X157933933Y-101511788D01*
X157933933Y-101511788D02*
X157678371Y-101668397D01*
X157678371Y-101668397D02*
X157450455Y-101863055D01*
X157450455Y-101863055D02*
X157255797Y-102090971D01*
X157255797Y-102090971D02*
X157099188Y-102346533D01*
X157099188Y-102346533D02*
X156984487Y-102623447D01*
X156984487Y-102623447D02*
X156891000Y-103213700D01*
D21*
X156891000Y-103213700D02*
X156891000Y-103918300D01*
X158801100Y-101303600D02*
X158801100Y-101303600D01*
X158801100Y-101303600D02*
X158701100Y-101403600D01*
X156374500Y-98417544D02*
X156391000Y-98434044D01*
X156391000Y-98434044D02*
X156391000Y-99692100D01*
X153901100Y-94203600D02*
X154401100Y-94203600D01*
X156374500Y-96177000D02*
X154401100Y-94203600D01*
X156374500Y-96177000D02*
X156374500Y-98417544D01*
G04 #@! TA.AperFunction,Conductor*
G36*
X159784414Y-93020286D02*
G01*
X159799000Y-93055500D01*
X159799000Y-107051700D01*
X159784414Y-107086914D01*
X159749200Y-107101500D01*
X144767926Y-107101500D01*
X144761543Y-107106137D01*
X144761544Y-107106137D01*
X144760550Y-107106859D01*
X144746669Y-107113931D01*
X144745502Y-107114310D01*
X144745499Y-107114312D01*
X144737999Y-107116749D01*
X144733363Y-107123130D01*
X144733362Y-107123131D01*
X144732640Y-107124125D01*
X144721625Y-107135140D01*
X144714249Y-107140499D01*
X144711812Y-107147999D01*
X144711810Y-107148002D01*
X144711431Y-107149169D01*
X144704359Y-107163050D01*
X144699000Y-107170426D01*
X144699000Y-109536774D01*
X144703637Y-109543156D01*
X144704359Y-109544150D01*
X144711431Y-109558031D01*
X144711810Y-109559198D01*
X144711812Y-109559201D01*
X144714249Y-109566701D01*
X144720630Y-109571337D01*
X144720631Y-109571338D01*
X144721625Y-109572060D01*
X144732640Y-109583075D01*
X144737999Y-109590451D01*
X144745499Y-109592888D01*
X144745502Y-109592890D01*
X144746669Y-109593269D01*
X144760550Y-109600341D01*
X144767926Y-109605700D01*
X149149200Y-109605700D01*
X149184414Y-109620286D01*
X149199000Y-109655500D01*
X149199000Y-116951700D01*
X149184414Y-116986914D01*
X149149200Y-117001500D01*
X137253000Y-117001500D01*
X137217786Y-116986914D01*
X137203200Y-116951700D01*
X137203200Y-115775479D01*
X139872363Y-115775479D01*
X139873933Y-115779270D01*
X140047513Y-115895252D01*
X140051507Y-115897420D01*
X140248763Y-115982169D01*
X140253093Y-115983576D01*
X140462486Y-116030957D01*
X140466996Y-116031551D01*
X140681524Y-116039979D01*
X140686063Y-116039742D01*
X140898541Y-116008934D01*
X140902950Y-116007875D01*
X141106248Y-115938865D01*
X141110416Y-115937009D01*
X141297724Y-115832112D01*
X141301475Y-115829534D01*
X141362930Y-115778421D01*
X141366461Y-115771710D01*
X141364790Y-115766329D01*
X140628104Y-115029643D01*
X140621100Y-115026742D01*
X140614096Y-115029643D01*
X139875264Y-115768475D01*
X139872363Y-115775479D01*
X137203200Y-115775479D01*
X137203200Y-114814518D01*
X139423549Y-114814518D01*
X139437591Y-115028750D01*
X139438301Y-115033234D01*
X139491150Y-115241328D01*
X139492665Y-115245607D01*
X139582551Y-115440585D01*
X139584821Y-115444516D01*
X139685244Y-115586613D01*
X139691654Y-115590657D01*
X139695983Y-115589678D01*
X140435057Y-114850604D01*
X140437958Y-114843600D01*
X140804242Y-114843600D01*
X140807143Y-114850604D01*
X141542582Y-115586043D01*
X141549586Y-115588944D01*
X141554792Y-115586788D01*
X141607034Y-115523975D01*
X141609612Y-115520224D01*
X141714509Y-115332916D01*
X141716365Y-115328748D01*
X141785375Y-115125450D01*
X141786434Y-115121041D01*
X141817359Y-114907750D01*
X141817607Y-114904841D01*
X141819173Y-114845061D01*
X141819077Y-114842143D01*
X141799358Y-114627537D01*
X141798529Y-114623062D01*
X141740253Y-114416432D01*
X141738623Y-114412187D01*
X141643670Y-114219641D01*
X141641289Y-114215756D01*
X141556027Y-114101576D01*
X141549511Y-114097699D01*
X141544858Y-114098881D01*
X140807143Y-114836596D01*
X140804242Y-114843600D01*
X140437958Y-114843600D01*
X140435057Y-114836596D01*
X139699653Y-114101192D01*
X139692649Y-114098291D01*
X139687846Y-114100280D01*
X139617692Y-114189271D01*
X139615217Y-114193082D01*
X139515255Y-114383078D01*
X139513512Y-114387287D01*
X139449849Y-114592317D01*
X139448902Y-114596768D01*
X139423668Y-114809970D01*
X139423549Y-114814518D01*
X137203200Y-114814518D01*
X137203200Y-104996453D01*
X137418661Y-104996453D01*
X137418990Y-104999433D01*
X137418990Y-104999436D01*
X137420201Y-105010400D01*
X137436656Y-105159444D01*
X137493009Y-105313438D01*
X137584469Y-105449544D01*
X137705755Y-105559905D01*
X137849864Y-105638150D01*
X137852764Y-105638911D01*
X137852767Y-105638912D01*
X138005575Y-105679001D01*
X138005578Y-105679001D01*
X138008477Y-105679762D01*
X138079658Y-105680880D01*
X138169437Y-105682290D01*
X138169438Y-105682290D01*
X138172438Y-105682337D01*
X138175362Y-105681667D01*
X138175365Y-105681667D01*
X138252359Y-105664033D01*
X138332281Y-105645729D01*
X138478776Y-105572049D01*
X138481058Y-105570100D01*
X138481061Y-105570098D01*
X138541122Y-105518801D01*
X138603469Y-105465552D01*
X138605659Y-105462505D01*
X138697407Y-105334822D01*
X138697407Y-105334821D01*
X138699158Y-105332385D01*
X138760321Y-105180238D01*
X138783426Y-105017893D01*
X138783505Y-105010400D01*
X138783559Y-105005238D01*
X138783559Y-105005235D01*
X138783576Y-105003600D01*
X138763876Y-104840807D01*
X138762815Y-104837999D01*
X138762814Y-104837995D01*
X138706974Y-104690219D01*
X138706973Y-104690217D01*
X138705913Y-104687412D01*
X138703493Y-104683890D01*
X138648626Y-104604059D01*
X138613033Y-104552271D01*
X138490598Y-104443185D01*
X138345678Y-104366454D01*
X138186637Y-104326506D01*
X138183633Y-104326490D01*
X138183631Y-104326490D01*
X138107024Y-104326089D01*
X138022658Y-104325647D01*
X137863208Y-104363928D01*
X137717492Y-104439137D01*
X137593921Y-104546934D01*
X137499632Y-104681095D01*
X137498543Y-104683888D01*
X137498542Y-104683890D01*
X137478279Y-104735861D01*
X137440065Y-104833875D01*
X137439673Y-104836849D01*
X137439673Y-104836851D01*
X137439152Y-104840807D01*
X137418661Y-104996453D01*
X137203200Y-104996453D01*
X137203200Y-99193378D01*
X137469068Y-99193378D01*
X137484995Y-99355813D01*
X137536513Y-99510682D01*
X137621062Y-99650289D01*
X137622998Y-99652294D01*
X137622999Y-99652295D01*
X137732508Y-99765695D01*
X137732511Y-99765698D01*
X137734440Y-99767695D01*
X137736762Y-99769214D01*
X137736765Y-99769217D01*
X137788350Y-99802973D01*
X137871011Y-99857065D01*
X137908947Y-99871173D01*
X138021379Y-99912986D01*
X138021381Y-99912987D01*
X138023988Y-99913956D01*
X138185768Y-99935542D01*
X138188537Y-99935290D01*
X138188539Y-99935290D01*
X138345541Y-99921002D01*
X138348310Y-99920750D01*
X138432552Y-99893378D01*
X138500892Y-99871173D01*
X138500894Y-99871172D01*
X138503535Y-99870314D01*
X138505924Y-99868890D01*
X138641338Y-99788168D01*
X138641342Y-99788165D01*
X138643729Y-99786742D01*
X138645741Y-99784826D01*
X138645745Y-99784823D01*
X138739481Y-99695558D01*
X138761923Y-99674187D01*
X138763460Y-99671873D01*
X138763463Y-99671870D01*
X138850703Y-99540563D01*
X138850704Y-99540560D01*
X138852244Y-99538243D01*
X138853231Y-99535645D01*
X138853233Y-99535641D01*
X138909213Y-99388274D01*
X138909214Y-99388271D01*
X138910203Y-99385667D01*
X138930637Y-99240275D01*
X138932700Y-99225594D01*
X138932700Y-99225592D01*
X138932918Y-99224042D01*
X138933203Y-99203600D01*
X138918301Y-99070742D01*
X138915320Y-99044166D01*
X138915320Y-99044164D01*
X138915010Y-99041404D01*
X138912506Y-99034211D01*
X138878592Y-98936826D01*
X138861334Y-98887269D01*
X138795337Y-98781651D01*
X138776319Y-98751216D01*
X138776318Y-98751214D01*
X138774844Y-98748856D01*
X138750989Y-98724833D01*
X138697566Y-98671036D01*
X138659839Y-98633044D01*
X138657498Y-98631558D01*
X138657495Y-98631556D01*
X138541229Y-98557772D01*
X138522033Y-98545590D01*
X138393639Y-98499871D01*
X138365359Y-98474318D01*
X138363430Y-98436252D01*
X138388984Y-98407971D01*
X138394956Y-98405594D01*
X138500892Y-98371173D01*
X138500894Y-98371172D01*
X138503535Y-98370314D01*
X138515400Y-98363241D01*
X138641338Y-98288168D01*
X138641342Y-98288165D01*
X138643729Y-98286742D01*
X138645741Y-98284826D01*
X138645745Y-98284823D01*
X138700922Y-98232278D01*
X138761923Y-98174187D01*
X138763460Y-98171873D01*
X138763463Y-98171870D01*
X138850703Y-98040563D01*
X138850704Y-98040560D01*
X138852244Y-98038243D01*
X138853231Y-98035645D01*
X138853233Y-98035641D01*
X138909213Y-97888274D01*
X138909214Y-97888271D01*
X138910203Y-97885667D01*
X138927730Y-97760956D01*
X138932700Y-97725594D01*
X138932700Y-97725592D01*
X138932918Y-97724042D01*
X138933203Y-97703600D01*
X138919034Y-97577277D01*
X138915320Y-97544166D01*
X138915320Y-97544164D01*
X138915010Y-97541404D01*
X138912506Y-97534211D01*
X138862248Y-97389895D01*
X138861334Y-97387269D01*
X138781483Y-97259480D01*
X138776319Y-97251216D01*
X138776318Y-97251214D01*
X138774844Y-97248856D01*
X138659839Y-97133044D01*
X138657498Y-97131558D01*
X138657495Y-97131556D01*
X138524382Y-97047081D01*
X138522033Y-97045590D01*
X138368276Y-96990840D01*
X138206211Y-96971515D01*
X138203442Y-96971806D01*
X138203440Y-96971806D01*
X138046659Y-96988284D01*
X138046657Y-96988284D01*
X138043892Y-96988575D01*
X138041262Y-96989470D01*
X138041259Y-96989471D01*
X137892023Y-97040275D01*
X137892021Y-97040276D01*
X137889386Y-97041173D01*
X137887016Y-97042631D01*
X137887014Y-97042632D01*
X137856932Y-97061139D01*
X137750372Y-97126695D01*
X137633761Y-97240889D01*
X137632254Y-97243228D01*
X137632252Y-97243230D01*
X137556454Y-97360846D01*
X137545347Y-97378081D01*
X137544396Y-97380694D01*
X137544395Y-97380696D01*
X137515127Y-97461110D01*
X137489524Y-97531452D01*
X137489176Y-97534207D01*
X137489175Y-97534211D01*
X137469417Y-97690614D01*
X137469068Y-97693378D01*
X137484995Y-97855813D01*
X137485874Y-97858454D01*
X137485874Y-97858456D01*
X137500356Y-97901989D01*
X137536513Y-98010682D01*
X137621062Y-98150289D01*
X137622998Y-98152294D01*
X137622999Y-98152295D01*
X137732508Y-98265695D01*
X137732511Y-98265698D01*
X137734440Y-98267695D01*
X137736762Y-98269214D01*
X137736765Y-98269217D01*
X137810938Y-98317754D01*
X137871011Y-98357065D01*
X137917710Y-98374432D01*
X138007171Y-98407702D01*
X138035092Y-98433648D01*
X138036489Y-98471738D01*
X138010543Y-98499659D01*
X138005865Y-98501520D01*
X137980460Y-98510169D01*
X137892023Y-98540275D01*
X137892021Y-98540276D01*
X137889386Y-98541173D01*
X137887016Y-98542631D01*
X137887014Y-98542632D01*
X137861236Y-98558491D01*
X137750372Y-98626695D01*
X137694773Y-98681142D01*
X137683914Y-98691776D01*
X137633761Y-98740889D01*
X137632254Y-98743228D01*
X137632252Y-98743230D01*
X137550098Y-98870709D01*
X137545347Y-98878081D01*
X137544396Y-98880694D01*
X137544395Y-98880696D01*
X137490989Y-99027428D01*
X137489524Y-99031452D01*
X137489176Y-99034207D01*
X137489175Y-99034211D01*
X137469430Y-99190511D01*
X137469068Y-99193378D01*
X137203200Y-99193378D01*
X137203200Y-96322323D01*
X137869543Y-96322323D01*
X137872504Y-96328835D01*
X137872504Y-96328837D01*
X137879829Y-96344948D01*
X137882281Y-96351539D01*
X137886445Y-96365731D01*
X137889278Y-96375389D01*
X137894680Y-96380077D01*
X137895978Y-96382099D01*
X137897547Y-96383917D01*
X137900508Y-96390428D01*
X137912515Y-96398181D01*
X137921384Y-96403908D01*
X137927009Y-96408131D01*
X137945783Y-96424422D01*
X137952863Y-96425448D01*
X137956060Y-96426912D01*
X137956880Y-96427361D01*
X137958850Y-96428100D01*
X137963359Y-96431011D01*
X137963973Y-96431100D01*
X137988248Y-96431100D01*
X137995394Y-96431615D01*
X138012744Y-96434131D01*
X138012745Y-96434131D01*
X138019823Y-96435157D01*
X138026335Y-96432196D01*
X138030544Y-96431597D01*
X138037562Y-96431100D01*
X138683976Y-96431100D01*
X138719190Y-96445686D01*
X139941333Y-97667829D01*
X139943128Y-97669720D01*
X139970830Y-97700486D01*
X139995271Y-97711368D01*
X140002129Y-97715092D01*
X140024563Y-97729661D01*
X140029732Y-97730480D01*
X140029733Y-97730480D01*
X140034272Y-97731198D01*
X140036392Y-97731534D01*
X140048858Y-97735227D01*
X140059803Y-97740100D01*
X140086551Y-97740100D01*
X140094342Y-97740713D01*
X140120758Y-97744897D01*
X140125815Y-97743542D01*
X140125816Y-97743542D01*
X140132328Y-97741797D01*
X140145217Y-97740100D01*
X142249659Y-97740100D01*
X142284873Y-97754686D01*
X142298502Y-97780184D01*
X142301598Y-97795748D01*
X142329778Y-97837922D01*
X142371952Y-97866102D01*
X142376761Y-97867059D01*
X142376762Y-97867059D01*
X142406744Y-97873023D01*
X142409142Y-97873500D01*
X142993058Y-97873500D01*
X142995456Y-97873023D01*
X143025438Y-97867059D01*
X143025439Y-97867059D01*
X143030248Y-97866102D01*
X143072422Y-97837922D01*
X143073718Y-97839861D01*
X143101100Y-97828519D01*
X143128482Y-97839861D01*
X143129778Y-97837922D01*
X143171952Y-97866102D01*
X143176761Y-97867059D01*
X143176762Y-97867059D01*
X143206744Y-97873023D01*
X143209142Y-97873500D01*
X143759175Y-97873500D01*
X143794389Y-97888086D01*
X143808975Y-97923300D01*
X143794389Y-97958514D01*
X143344261Y-98408642D01*
X143342370Y-98410437D01*
X143324995Y-98426082D01*
X143311614Y-98438130D01*
X143300730Y-98462575D01*
X143297013Y-98469421D01*
X143282439Y-98491864D01*
X143281621Y-98497031D01*
X143281620Y-98497033D01*
X143280566Y-98503691D01*
X143276873Y-98516158D01*
X143272000Y-98527103D01*
X143272000Y-98553851D01*
X143271387Y-98561642D01*
X143268734Y-98578395D01*
X143267203Y-98588058D01*
X143268558Y-98593115D01*
X143268558Y-98593116D01*
X143270303Y-98599628D01*
X143272000Y-98612517D01*
X143272000Y-104883900D01*
X143257414Y-104919114D01*
X143222200Y-104933700D01*
X143209142Y-104933700D01*
X143206744Y-104934177D01*
X143176762Y-104940141D01*
X143176761Y-104940141D01*
X143171952Y-104941098D01*
X143129778Y-104969278D01*
X143128482Y-104967339D01*
X143101100Y-104978681D01*
X143073718Y-104967339D01*
X143072422Y-104969278D01*
X143034326Y-104943823D01*
X143034327Y-104943823D01*
X143030248Y-104941098D01*
X143025439Y-104940141D01*
X143025438Y-104940141D01*
X142995456Y-104934177D01*
X142993058Y-104933700D01*
X142409142Y-104933700D01*
X142406744Y-104934177D01*
X142376762Y-104940141D01*
X142376761Y-104940141D01*
X142371952Y-104941098D01*
X142329778Y-104969278D01*
X142301598Y-105011452D01*
X142300641Y-105016261D01*
X142300641Y-105016262D01*
X142294677Y-105046244D01*
X142294200Y-105048642D01*
X142294200Y-106343758D01*
X142301598Y-106380948D01*
X142329778Y-106423122D01*
X142371952Y-106451302D01*
X142376761Y-106452259D01*
X142376762Y-106452259D01*
X142406744Y-106458223D01*
X142409142Y-106458700D01*
X142422200Y-106458700D01*
X142457414Y-106473286D01*
X142472000Y-106508500D01*
X142472000Y-110273503D01*
X142471932Y-110276108D01*
X142469766Y-110317439D01*
X142471641Y-110322323D01*
X142471641Y-110322325D01*
X142479349Y-110342406D01*
X142481568Y-110349896D01*
X142487131Y-110376065D01*
X142490209Y-110380301D01*
X142494171Y-110385754D01*
X142500374Y-110397180D01*
X142502790Y-110403474D01*
X142502792Y-110403478D01*
X142504668Y-110408364D01*
X142523582Y-110427278D01*
X142528657Y-110433220D01*
X142541302Y-110450625D01*
X142541303Y-110450626D01*
X142544378Y-110454858D01*
X142548909Y-110457474D01*
X142548910Y-110457475D01*
X142554751Y-110460847D01*
X142565065Y-110468761D01*
X142917414Y-110821110D01*
X142932000Y-110856324D01*
X142932000Y-111221159D01*
X142917414Y-111256373D01*
X142896262Y-111268932D01*
X142835984Y-111286673D01*
X142761681Y-111308542D01*
X142761678Y-111308543D01*
X142759348Y-111309229D01*
X142573858Y-111406200D01*
X142571965Y-111407722D01*
X142571962Y-111407724D01*
X142425434Y-111525536D01*
X142410736Y-111537354D01*
X142276195Y-111697693D01*
X142275019Y-111699831D01*
X142275019Y-111699832D01*
X142226940Y-111787287D01*
X142197194Y-111811119D01*
X142159309Y-111806936D01*
X142135477Y-111777190D01*
X142133500Y-111763296D01*
X142133500Y-108051206D01*
X142133568Y-108048600D01*
X142135460Y-108012487D01*
X142135734Y-108007261D01*
X142126151Y-107982294D01*
X142123932Y-107974804D01*
X142119458Y-107953756D01*
X142119457Y-107953754D01*
X142118369Y-107948635D01*
X142111328Y-107938945D01*
X142105126Y-107927520D01*
X142102710Y-107921226D01*
X142102708Y-107921222D01*
X142100832Y-107916336D01*
X142081918Y-107897422D01*
X142076843Y-107891480D01*
X142064198Y-107874075D01*
X142064197Y-107874074D01*
X142061122Y-107869842D01*
X142056591Y-107867226D01*
X142056590Y-107867225D01*
X142050749Y-107863853D01*
X142040435Y-107855939D01*
X141492386Y-107307889D01*
X141477800Y-107272675D01*
X141477800Y-104660300D01*
X141492386Y-104625086D01*
X141527600Y-104610500D01*
X141856058Y-104610500D01*
X141858456Y-104610023D01*
X141888438Y-104604059D01*
X141888439Y-104604059D01*
X141893248Y-104603102D01*
X141935422Y-104574922D01*
X141963602Y-104532748D01*
X141971000Y-104495558D01*
X141971000Y-103911642D01*
X141966718Y-103890114D01*
X141964559Y-103879262D01*
X141964559Y-103879261D01*
X141963602Y-103874452D01*
X141935422Y-103832278D01*
X141937361Y-103830982D01*
X141926019Y-103803600D01*
X141937361Y-103776218D01*
X141935422Y-103774922D01*
X141960877Y-103736826D01*
X141963602Y-103732748D01*
X141971000Y-103695558D01*
X141971000Y-103111642D01*
X141963602Y-103074452D01*
X141935422Y-103032278D01*
X141937361Y-103030982D01*
X141926019Y-103003600D01*
X141937361Y-102976218D01*
X141935422Y-102974922D01*
X141960877Y-102936826D01*
X141963602Y-102932748D01*
X141971000Y-102895558D01*
X141971000Y-102311642D01*
X141963602Y-102274452D01*
X141935422Y-102232278D01*
X141937361Y-102230982D01*
X141926019Y-102203600D01*
X141937361Y-102176218D01*
X141935422Y-102174922D01*
X141937726Y-102171474D01*
X141963602Y-102132748D01*
X141971000Y-102095558D01*
X141971000Y-101511642D01*
X141963602Y-101474452D01*
X141935422Y-101432278D01*
X141937361Y-101430982D01*
X141926019Y-101403600D01*
X141937361Y-101376218D01*
X141935422Y-101374922D01*
X141953901Y-101347266D01*
X141963602Y-101332748D01*
X141971000Y-101295558D01*
X141971000Y-100711642D01*
X141963602Y-100674452D01*
X141935422Y-100632278D01*
X141937361Y-100630982D01*
X141926019Y-100603600D01*
X141937361Y-100576218D01*
X141935422Y-100574922D01*
X141960877Y-100536826D01*
X141963602Y-100532748D01*
X141971000Y-100495558D01*
X141971000Y-100482500D01*
X141985586Y-100447286D01*
X142020800Y-100432700D01*
X142393803Y-100432700D01*
X142396408Y-100432768D01*
X142437739Y-100434934D01*
X142442623Y-100433059D01*
X142442625Y-100433059D01*
X142462706Y-100425351D01*
X142470196Y-100423132D01*
X142491244Y-100418658D01*
X142491246Y-100418657D01*
X142496365Y-100417569D01*
X142506055Y-100410528D01*
X142517480Y-100404326D01*
X142523774Y-100401910D01*
X142523778Y-100401908D01*
X142528664Y-100400032D01*
X142547578Y-100381118D01*
X142553520Y-100376043D01*
X142570924Y-100363398D01*
X142575158Y-100360322D01*
X142575480Y-100359764D01*
X142607631Y-100344427D01*
X142622255Y-100346268D01*
X142622255Y-100346266D01*
X142622313Y-100346275D01*
X142625088Y-100346625D01*
X142629141Y-100347891D01*
X142632686Y-100347956D01*
X142753183Y-100350165D01*
X142756731Y-100350230D01*
X142771238Y-100346275D01*
X142876428Y-100317597D01*
X142876430Y-100317596D01*
X142879849Y-100316664D01*
X142938091Y-100280903D01*
X142985580Y-100251745D01*
X142985583Y-100251743D01*
X142988597Y-100249892D01*
X143000907Y-100236292D01*
X143071854Y-100157912D01*
X143071856Y-100157910D01*
X143074234Y-100155282D01*
X143129875Y-100040440D01*
X143151047Y-99914596D01*
X143151181Y-99903600D01*
X143150394Y-99898101D01*
X143133593Y-99780789D01*
X143133090Y-99777277D01*
X143080272Y-99661110D01*
X142996972Y-99564435D01*
X142889887Y-99495027D01*
X142767626Y-99458463D01*
X142764079Y-99458441D01*
X142764077Y-99458441D01*
X142706127Y-99458087D01*
X142640017Y-99457683D01*
X142517318Y-99492751D01*
X142409394Y-99560846D01*
X142324919Y-99656495D01*
X142316613Y-99674187D01*
X142272193Y-99768796D01*
X142272192Y-99768799D01*
X142270685Y-99772009D01*
X142251053Y-99898101D01*
X142253210Y-99914596D01*
X142253687Y-99918243D01*
X142243790Y-99955051D01*
X142210764Y-99974080D01*
X142204307Y-99974500D01*
X142020800Y-99974500D01*
X141985586Y-99959914D01*
X141971000Y-99924700D01*
X141971000Y-99911642D01*
X141963602Y-99874452D01*
X141935422Y-99832278D01*
X141937361Y-99830982D01*
X141926019Y-99803600D01*
X141937361Y-99776218D01*
X141935422Y-99774922D01*
X141960877Y-99736826D01*
X141963602Y-99732748D01*
X141971000Y-99695558D01*
X141971000Y-99111642D01*
X141967267Y-99092875D01*
X141964559Y-99079262D01*
X141964559Y-99079261D01*
X141963602Y-99074452D01*
X141935422Y-99032278D01*
X141937361Y-99030982D01*
X141926019Y-99003600D01*
X141937361Y-98976218D01*
X141935422Y-98974922D01*
X141956111Y-98943959D01*
X141963602Y-98932748D01*
X141965177Y-98924833D01*
X141970523Y-98897956D01*
X141971000Y-98895558D01*
X141971000Y-98311642D01*
X141968639Y-98299774D01*
X141964559Y-98279262D01*
X141964559Y-98279261D01*
X141963602Y-98274452D01*
X141945299Y-98247060D01*
X141938147Y-98236356D01*
X141935422Y-98232278D01*
X141925352Y-98225549D01*
X141903381Y-98210869D01*
X141893248Y-98204098D01*
X141888439Y-98203141D01*
X141888438Y-98203141D01*
X141858456Y-98197177D01*
X141856058Y-98196700D01*
X140560942Y-98196700D01*
X140558544Y-98197177D01*
X140528562Y-98203141D01*
X140528561Y-98203141D01*
X140523752Y-98204098D01*
X140513619Y-98210869D01*
X140491649Y-98225549D01*
X140481578Y-98232278D01*
X140478853Y-98236356D01*
X140471701Y-98247060D01*
X140453398Y-98274452D01*
X140452441Y-98279261D01*
X140452441Y-98279262D01*
X140448361Y-98299774D01*
X140446000Y-98311642D01*
X140446000Y-98324700D01*
X140431414Y-98359914D01*
X140396200Y-98374500D01*
X140208406Y-98374500D01*
X140205800Y-98374432D01*
X140200246Y-98374141D01*
X140164461Y-98372266D01*
X140159577Y-98374141D01*
X140159575Y-98374141D01*
X140139494Y-98381849D01*
X140132004Y-98384068D01*
X140110956Y-98388542D01*
X140110954Y-98388543D01*
X140105835Y-98389631D01*
X140101598Y-98392709D01*
X140101599Y-98392709D01*
X140096146Y-98396671D01*
X140084720Y-98402874D01*
X140078426Y-98405290D01*
X140078422Y-98405292D01*
X140073536Y-98407168D01*
X140054622Y-98426082D01*
X140048680Y-98431157D01*
X140031275Y-98443802D01*
X140031274Y-98443803D01*
X140027042Y-98446878D01*
X140024426Y-98451409D01*
X140024425Y-98451410D01*
X140021053Y-98457251D01*
X140013139Y-98467565D01*
X139926852Y-98553851D01*
X139844252Y-98636451D01*
X139842361Y-98638245D01*
X139811614Y-98665930D01*
X139800730Y-98690375D01*
X139797013Y-98697221D01*
X139782439Y-98719664D01*
X139781621Y-98724831D01*
X139781620Y-98724833D01*
X139780566Y-98731491D01*
X139776873Y-98743958D01*
X139772000Y-98754903D01*
X139772000Y-98781651D01*
X139771387Y-98789442D01*
X139767203Y-98815858D01*
X139768558Y-98820915D01*
X139768558Y-98820916D01*
X139770303Y-98827428D01*
X139772000Y-98840317D01*
X139772000Y-99388986D01*
X139771727Y-99394190D01*
X139768165Y-99428082D01*
X139769782Y-99433058D01*
X139770003Y-99435164D01*
X139772000Y-99447774D01*
X139772000Y-99996303D01*
X139771932Y-99998908D01*
X139769766Y-100040239D01*
X139771641Y-100045123D01*
X139771641Y-100045125D01*
X139779349Y-100065206D01*
X139781568Y-100072696D01*
X139784880Y-100088274D01*
X139787131Y-100098865D01*
X139790209Y-100103101D01*
X139794171Y-100108554D01*
X139800374Y-100119980D01*
X139802790Y-100126274D01*
X139802792Y-100126278D01*
X139804668Y-100131164D01*
X139823582Y-100150078D01*
X139828657Y-100156020D01*
X139841302Y-100173425D01*
X139841303Y-100173426D01*
X139844378Y-100177658D01*
X139848909Y-100180274D01*
X139848910Y-100180275D01*
X139854751Y-100183647D01*
X139865065Y-100191561D01*
X139953254Y-100279751D01*
X140033951Y-100360448D01*
X140035745Y-100362339D01*
X140063430Y-100393086D01*
X140068211Y-100395215D01*
X140068213Y-100395216D01*
X140087859Y-100403963D01*
X140094725Y-100407691D01*
X140109937Y-100417569D01*
X140117164Y-100422262D01*
X140122334Y-100423081D01*
X140122335Y-100423081D01*
X140125354Y-100423559D01*
X140128994Y-100424135D01*
X140141461Y-100427828D01*
X140152403Y-100432700D01*
X140179151Y-100432700D01*
X140186940Y-100433313D01*
X140213359Y-100437497D01*
X140218416Y-100436142D01*
X140218417Y-100436142D01*
X140224929Y-100434397D01*
X140237818Y-100432700D01*
X140396200Y-100432700D01*
X140431414Y-100447286D01*
X140446000Y-100482500D01*
X140446000Y-100495558D01*
X140453398Y-100532748D01*
X140456123Y-100536826D01*
X140481578Y-100574922D01*
X140479639Y-100576218D01*
X140490981Y-100603600D01*
X140479639Y-100630982D01*
X140481578Y-100632278D01*
X140453398Y-100674452D01*
X140446000Y-100711642D01*
X140446000Y-101295558D01*
X140453398Y-101332748D01*
X140463099Y-101347266D01*
X140481578Y-101374922D01*
X140479639Y-101376218D01*
X140490981Y-101403600D01*
X140479639Y-101430982D01*
X140481578Y-101432278D01*
X140453398Y-101474452D01*
X140446000Y-101511642D01*
X140446000Y-102095558D01*
X140453398Y-102132748D01*
X140479274Y-102171474D01*
X140481578Y-102174922D01*
X140479639Y-102176218D01*
X140490981Y-102203600D01*
X140479639Y-102230982D01*
X140481578Y-102232278D01*
X140453398Y-102274452D01*
X140446000Y-102311642D01*
X140446000Y-102895558D01*
X140453398Y-102932748D01*
X140456123Y-102936826D01*
X140481578Y-102974922D01*
X140479639Y-102976218D01*
X140490981Y-103003600D01*
X140479639Y-103030982D01*
X140481578Y-103032278D01*
X140453398Y-103074452D01*
X140446000Y-103111642D01*
X140446000Y-103117002D01*
X140431414Y-103152216D01*
X140406553Y-103165714D01*
X140384360Y-103170431D01*
X140374875Y-103177323D01*
X140374671Y-103177471D01*
X140363245Y-103183674D01*
X140356951Y-103186090D01*
X140356947Y-103186092D01*
X140352061Y-103187968D01*
X140333147Y-103206882D01*
X140327205Y-103211957D01*
X140309800Y-103224602D01*
X140309799Y-103224603D01*
X140305567Y-103227678D01*
X140302951Y-103232209D01*
X140302950Y-103232210D01*
X140299578Y-103238051D01*
X140291664Y-103248365D01*
X139829352Y-103710676D01*
X139827461Y-103712470D01*
X139796714Y-103740155D01*
X139785830Y-103764600D01*
X139782113Y-103771446D01*
X139767539Y-103793889D01*
X139766721Y-103799056D01*
X139766720Y-103799058D01*
X139765666Y-103805716D01*
X139761973Y-103818183D01*
X139757100Y-103829128D01*
X139757100Y-103855876D01*
X139756487Y-103863667D01*
X139752303Y-103890083D01*
X139753658Y-103895140D01*
X139753658Y-103895141D01*
X139755403Y-103901653D01*
X139757100Y-103914542D01*
X139757100Y-107470076D01*
X139742514Y-107505290D01*
X139171061Y-108076742D01*
X139169170Y-108078537D01*
X139138414Y-108106230D01*
X139127530Y-108130675D01*
X139123813Y-108137521D01*
X139109239Y-108159964D01*
X139108421Y-108165131D01*
X139108420Y-108165133D01*
X139107366Y-108171791D01*
X139103673Y-108184258D01*
X139098800Y-108195203D01*
X139098800Y-108221951D01*
X139098187Y-108229742D01*
X139094003Y-108256158D01*
X139095358Y-108261215D01*
X139095358Y-108261216D01*
X139097103Y-108267728D01*
X139098800Y-108280617D01*
X139098800Y-113027203D01*
X139098732Y-113029808D01*
X139096566Y-113071139D01*
X139098441Y-113076023D01*
X139098441Y-113076025D01*
X139106149Y-113096106D01*
X139108368Y-113103596D01*
X139112306Y-113122119D01*
X139113931Y-113129765D01*
X139117009Y-113134001D01*
X139120971Y-113139454D01*
X139127174Y-113150880D01*
X139129590Y-113157174D01*
X139129592Y-113157178D01*
X139131468Y-113162064D01*
X139150382Y-113180978D01*
X139155457Y-113186920D01*
X139168102Y-113204325D01*
X139168103Y-113204326D01*
X139171178Y-113208558D01*
X139175709Y-113211174D01*
X139175710Y-113211175D01*
X139181551Y-113214547D01*
X139191865Y-113222461D01*
X139729851Y-113760447D01*
X139731645Y-113762338D01*
X139759330Y-113793086D01*
X139764114Y-113795216D01*
X139783759Y-113803963D01*
X139790625Y-113807691D01*
X139808673Y-113819411D01*
X139808675Y-113819412D01*
X139813064Y-113822262D01*
X139818230Y-113823080D01*
X139818232Y-113823081D01*
X139822640Y-113823779D01*
X139824897Y-113824136D01*
X139837361Y-113827828D01*
X139848303Y-113832700D01*
X139849082Y-113832700D01*
X139878498Y-113852919D01*
X139885444Y-113890396D01*
X139881396Y-113902068D01*
X139875558Y-113913906D01*
X139878643Y-113922104D01*
X140614096Y-114657557D01*
X140621100Y-114660458D01*
X140628104Y-114657557D01*
X141365349Y-113920312D01*
X141368030Y-113913840D01*
X141363051Y-113902458D01*
X141362302Y-113864350D01*
X141388719Y-113836874D01*
X141408677Y-113832700D01*
X141997576Y-113832700D01*
X142032790Y-113847286D01*
X142310998Y-114125494D01*
X142325584Y-114160708D01*
X142313933Y-114192719D01*
X142304573Y-114203874D01*
X142276195Y-114237693D01*
X142175360Y-114421111D01*
X142174625Y-114423427D01*
X142174624Y-114423430D01*
X142112809Y-114618297D01*
X142112808Y-114618302D01*
X142112072Y-114620622D01*
X142111801Y-114623041D01*
X142111800Y-114623044D01*
X142090323Y-114814518D01*
X142088741Y-114828626D01*
X142092395Y-114872144D01*
X142105377Y-115026742D01*
X142106255Y-115037200D01*
X142163948Y-115238400D01*
X142165060Y-115240565D01*
X142165061Y-115240566D01*
X142184041Y-115277496D01*
X142259623Y-115424563D01*
X142389634Y-115588596D01*
X142391487Y-115590173D01*
X142391488Y-115590174D01*
X142423449Y-115617375D01*
X142549030Y-115724253D01*
X142551152Y-115725439D01*
X142551155Y-115725441D01*
X142624316Y-115766329D01*
X142731740Y-115826366D01*
X142930804Y-115891046D01*
X142933212Y-115891333D01*
X142933216Y-115891334D01*
X143122479Y-115913902D01*
X143138640Y-115915829D01*
X143271835Y-115905580D01*
X143344902Y-115899958D01*
X143344903Y-115899958D01*
X143347331Y-115899771D01*
X143349671Y-115899118D01*
X143349675Y-115899117D01*
X143546584Y-115844139D01*
X143546586Y-115844138D01*
X143548929Y-115843484D01*
X143571442Y-115832112D01*
X143733584Y-115750208D01*
X143733587Y-115750206D01*
X143735755Y-115749111D01*
X143900692Y-115620248D01*
X144037458Y-115461803D01*
X144078899Y-115388854D01*
X144108975Y-115365440D01*
X144146798Y-115370151D01*
X144170212Y-115400227D01*
X144172000Y-115413452D01*
X144172000Y-115458803D01*
X144171932Y-115461408D01*
X144169766Y-115502739D01*
X144171641Y-115507623D01*
X144171641Y-115507625D01*
X144179349Y-115527706D01*
X144181568Y-115535196D01*
X144185664Y-115554463D01*
X144187131Y-115561365D01*
X144190209Y-115565601D01*
X144194171Y-115571054D01*
X144200374Y-115582480D01*
X144202790Y-115588774D01*
X144202792Y-115588778D01*
X144204668Y-115593664D01*
X144223582Y-115612578D01*
X144228657Y-115618520D01*
X144241302Y-115635925D01*
X144241303Y-115635926D01*
X144244378Y-115640158D01*
X144248909Y-115642774D01*
X144248910Y-115642775D01*
X144254751Y-115646147D01*
X144265065Y-115654061D01*
X145004333Y-116393329D01*
X145006128Y-116395220D01*
X145033830Y-116425986D01*
X145058276Y-116436871D01*
X145065123Y-116440588D01*
X145087564Y-116455161D01*
X145092731Y-116455979D01*
X145092733Y-116455980D01*
X145099391Y-116457034D01*
X145111858Y-116460727D01*
X145122803Y-116465600D01*
X145149551Y-116465600D01*
X145157342Y-116466213D01*
X145165847Y-116467560D01*
X145183758Y-116470397D01*
X145188815Y-116469042D01*
X145188816Y-116469042D01*
X145195328Y-116467297D01*
X145208217Y-116465600D01*
X146489703Y-116465600D01*
X146492308Y-116465668D01*
X146533639Y-116467834D01*
X146538523Y-116465959D01*
X146538525Y-116465959D01*
X146558606Y-116458251D01*
X146566096Y-116456032D01*
X146587144Y-116451558D01*
X146587146Y-116451557D01*
X146592265Y-116450469D01*
X146601955Y-116443428D01*
X146613380Y-116437226D01*
X146619674Y-116434810D01*
X146619678Y-116434808D01*
X146624564Y-116432932D01*
X146643478Y-116414018D01*
X146649420Y-116408943D01*
X146666825Y-116396298D01*
X146666826Y-116396297D01*
X146671058Y-116393222D01*
X146677047Y-116382849D01*
X146684961Y-116372535D01*
X147379339Y-115678158D01*
X147381230Y-115676363D01*
X147408098Y-115652171D01*
X147408098Y-115652170D01*
X147411986Y-115648670D01*
X147422863Y-115624241D01*
X147426591Y-115617375D01*
X147438311Y-115599327D01*
X147438312Y-115599325D01*
X147441162Y-115594936D01*
X147442167Y-115588596D01*
X147443036Y-115583104D01*
X147446729Y-115570637D01*
X147449471Y-115564478D01*
X147451600Y-115559697D01*
X147451600Y-115532950D01*
X147452213Y-115525160D01*
X147455578Y-115503913D01*
X147456397Y-115498742D01*
X147453297Y-115487172D01*
X147451600Y-115474283D01*
X147451600Y-113602197D01*
X147451668Y-113599591D01*
X147453560Y-113563487D01*
X147453834Y-113558261D01*
X147444251Y-113533294D01*
X147442032Y-113525804D01*
X147437558Y-113504756D01*
X147437557Y-113504754D01*
X147436469Y-113499635D01*
X147429428Y-113489945D01*
X147423226Y-113478520D01*
X147420810Y-113472226D01*
X147420808Y-113472222D01*
X147418932Y-113467336D01*
X147400018Y-113448422D01*
X147394943Y-113442480D01*
X147382298Y-113425075D01*
X147382297Y-113425074D01*
X147379222Y-113420842D01*
X147374691Y-113418226D01*
X147374690Y-113418225D01*
X147368849Y-113414853D01*
X147358535Y-113406939D01*
X146705229Y-112753633D01*
X146690643Y-112718419D01*
X146693188Y-112702705D01*
X146746913Y-112541203D01*
X146773146Y-112333545D01*
X146773531Y-112306001D01*
X146773545Y-112304990D01*
X146773545Y-112304983D01*
X146773564Y-112303600D01*
X146753139Y-112095291D01*
X146692642Y-111894916D01*
X146594378Y-111710107D01*
X146592843Y-111708224D01*
X146592839Y-111708219D01*
X146463627Y-111549791D01*
X146462089Y-111547905D01*
X146451590Y-111539219D01*
X146302691Y-111416040D01*
X146300814Y-111414487D01*
X146116697Y-111314935D01*
X146114370Y-111314215D01*
X146114366Y-111314213D01*
X145919075Y-111253761D01*
X145916749Y-111253041D01*
X145914329Y-111252787D01*
X145914326Y-111252786D01*
X145711013Y-111231417D01*
X145708587Y-111231162D01*
X145706159Y-111231383D01*
X145706158Y-111231383D01*
X145502564Y-111249911D01*
X145502560Y-111249912D01*
X145500140Y-111250132D01*
X145399744Y-111279681D01*
X145301681Y-111308542D01*
X145301678Y-111308543D01*
X145299348Y-111309229D01*
X145113858Y-111406200D01*
X145111965Y-111407722D01*
X145111962Y-111407724D01*
X144965434Y-111525536D01*
X144950736Y-111537354D01*
X144816195Y-111697693D01*
X144753839Y-111811119D01*
X144723640Y-111866050D01*
X144693894Y-111889882D01*
X144656009Y-111885699D01*
X144632177Y-111855953D01*
X144630200Y-111842059D01*
X144630200Y-110690197D01*
X144630268Y-110687591D01*
X144632160Y-110651488D01*
X144632434Y-110646260D01*
X144630557Y-110641371D01*
X144630557Y-110641369D01*
X144622851Y-110621294D01*
X144620631Y-110613802D01*
X144616157Y-110592755D01*
X144615069Y-110587635D01*
X144608028Y-110577945D01*
X144601826Y-110566520D01*
X144599410Y-110560226D01*
X144599408Y-110560222D01*
X144597532Y-110555336D01*
X144578618Y-110536422D01*
X144573543Y-110530480D01*
X144560898Y-110513075D01*
X144560897Y-110513074D01*
X144557822Y-110508842D01*
X144553291Y-110506226D01*
X144553290Y-110506225D01*
X144547449Y-110502853D01*
X144537135Y-110494939D01*
X143744786Y-109702589D01*
X143730200Y-109667375D01*
X143730200Y-107213609D01*
X143744786Y-107178395D01*
X143753943Y-107171170D01*
X143785577Y-107151747D01*
X143785580Y-107151744D01*
X143788597Y-107149892D01*
X143818597Y-107116749D01*
X143871854Y-107057912D01*
X143871856Y-107057910D01*
X143874234Y-107055282D01*
X143929875Y-106940440D01*
X143951047Y-106814596D01*
X143951181Y-106803600D01*
X143950394Y-106798101D01*
X143933593Y-106680789D01*
X143933090Y-106677277D01*
X143880272Y-106561110D01*
X143838691Y-106512852D01*
X143826755Y-106476655D01*
X143843911Y-106442619D01*
X143848751Y-106438939D01*
X143872423Y-106423122D01*
X143873718Y-106425061D01*
X143901100Y-106413719D01*
X143928482Y-106425061D01*
X143929778Y-106423122D01*
X143971952Y-106451302D01*
X143976761Y-106452259D01*
X143976762Y-106452259D01*
X144006744Y-106458223D01*
X144009142Y-106458700D01*
X144593058Y-106458700D01*
X144595456Y-106458223D01*
X144625438Y-106452259D01*
X144625439Y-106452259D01*
X144630248Y-106451302D01*
X144672422Y-106423122D01*
X144673718Y-106425061D01*
X144701100Y-106413719D01*
X144728482Y-106425061D01*
X144729778Y-106423122D01*
X144771952Y-106451302D01*
X144776761Y-106452259D01*
X144776762Y-106452259D01*
X144806744Y-106458223D01*
X144809142Y-106458700D01*
X145375753Y-106458700D01*
X145410967Y-106473286D01*
X145417160Y-106480833D01*
X145436426Y-106509667D01*
X145443233Y-106516473D01*
X145518827Y-106566983D01*
X145527718Y-106570666D01*
X145594364Y-106583923D01*
X145599210Y-106584400D01*
X145764594Y-106584400D01*
X145771599Y-106581499D01*
X145774500Y-106574494D01*
X145774500Y-104817906D01*
X145771599Y-104810901D01*
X145764594Y-104808000D01*
X145599210Y-104808000D01*
X145594364Y-104808477D01*
X145527718Y-104821734D01*
X145518827Y-104825417D01*
X145443233Y-104875927D01*
X145436426Y-104882733D01*
X145417160Y-104911567D01*
X145385469Y-104932743D01*
X145375753Y-104933700D01*
X144809142Y-104933700D01*
X144806744Y-104934177D01*
X144776762Y-104940141D01*
X144776761Y-104940141D01*
X144771952Y-104941098D01*
X144729778Y-104969278D01*
X144728482Y-104967339D01*
X144701100Y-104978681D01*
X144673718Y-104967339D01*
X144672422Y-104969278D01*
X144634326Y-104943823D01*
X144634327Y-104943823D01*
X144630248Y-104941098D01*
X144625439Y-104940141D01*
X144625438Y-104940141D01*
X144595456Y-104934177D01*
X144593058Y-104933700D01*
X144009142Y-104933700D01*
X144006744Y-104934177D01*
X143976762Y-104940141D01*
X143976761Y-104940141D01*
X143971952Y-104941098D01*
X143929778Y-104969278D01*
X143928482Y-104967339D01*
X143901100Y-104978681D01*
X143873718Y-104967339D01*
X143872422Y-104969278D01*
X143834326Y-104943823D01*
X143834327Y-104943823D01*
X143830248Y-104941098D01*
X143825439Y-104940141D01*
X143825438Y-104940141D01*
X143795456Y-104934177D01*
X143793058Y-104933700D01*
X143780000Y-104933700D01*
X143744786Y-104919114D01*
X143730200Y-104883900D01*
X143730200Y-99098101D01*
X145351053Y-99098101D01*
X145367599Y-99224636D01*
X145376819Y-99245590D01*
X145415300Y-99333044D01*
X145418994Y-99341440D01*
X145501106Y-99439125D01*
X145607335Y-99509836D01*
X145610723Y-99510894D01*
X145610724Y-99510895D01*
X145629190Y-99516664D01*
X145729141Y-99547891D01*
X145732686Y-99547956D01*
X145853183Y-99550165D01*
X145856731Y-99550230D01*
X145910243Y-99535641D01*
X145976428Y-99517597D01*
X145976430Y-99517596D01*
X145979849Y-99516664D01*
X146038547Y-99480623D01*
X146085580Y-99451745D01*
X146085583Y-99451743D01*
X146088597Y-99449892D01*
X146101928Y-99435164D01*
X146171854Y-99357912D01*
X146171856Y-99357910D01*
X146174234Y-99355282D01*
X146229875Y-99240440D01*
X146251047Y-99114596D01*
X146251181Y-99103600D01*
X146250450Y-99098496D01*
X146238918Y-99017969D01*
X146248365Y-98981043D01*
X146253001Y-98975695D01*
X146581410Y-98647286D01*
X146616624Y-98632700D01*
X147293803Y-98632700D01*
X147296408Y-98632768D01*
X147337739Y-98634934D01*
X147342623Y-98633059D01*
X147342625Y-98633059D01*
X147362706Y-98625351D01*
X147370196Y-98623132D01*
X147391244Y-98618658D01*
X147391246Y-98618657D01*
X147396365Y-98617569D01*
X147406055Y-98610528D01*
X147417480Y-98604326D01*
X147423774Y-98601910D01*
X147423778Y-98601908D01*
X147428664Y-98600032D01*
X147447578Y-98581118D01*
X147453520Y-98576043D01*
X147470925Y-98563398D01*
X147470926Y-98563397D01*
X147475158Y-98560322D01*
X147481147Y-98549949D01*
X147489061Y-98539635D01*
X147573415Y-98455282D01*
X147657948Y-98370749D01*
X147659839Y-98368955D01*
X147673044Y-98357065D01*
X147690586Y-98341270D01*
X147701057Y-98317754D01*
X147701463Y-98316841D01*
X147705191Y-98309975D01*
X147716910Y-98291928D01*
X147716910Y-98291927D01*
X147719762Y-98287536D01*
X147721635Y-98275706D01*
X147725329Y-98263236D01*
X147728070Y-98257081D01*
X147730200Y-98252297D01*
X147730200Y-98225549D01*
X147730813Y-98217759D01*
X147733358Y-98201693D01*
X147734997Y-98191341D01*
X147732831Y-98183255D01*
X147731897Y-98179771D01*
X147730200Y-98166882D01*
X147730200Y-97923300D01*
X147744786Y-97888086D01*
X147780000Y-97873500D01*
X147793058Y-97873500D01*
X147795456Y-97873023D01*
X147825438Y-97867059D01*
X147825439Y-97867059D01*
X147830248Y-97866102D01*
X147872422Y-97837922D01*
X147873718Y-97839861D01*
X147901100Y-97828519D01*
X147928482Y-97839861D01*
X147929778Y-97837922D01*
X147971952Y-97866102D01*
X147976761Y-97867059D01*
X147976762Y-97867059D01*
X148006744Y-97873023D01*
X148009142Y-97873500D01*
X148022200Y-97873500D01*
X148057414Y-97888086D01*
X148072000Y-97923300D01*
X148072000Y-98188075D01*
X148057414Y-98223289D01*
X147444261Y-98836442D01*
X147442370Y-98838237D01*
X147422093Y-98856495D01*
X147411614Y-98865930D01*
X147400730Y-98890375D01*
X147397013Y-98897221D01*
X147382439Y-98919664D01*
X147381621Y-98924831D01*
X147381620Y-98924833D01*
X147380566Y-98931491D01*
X147376873Y-98943958D01*
X147372000Y-98954903D01*
X147372000Y-98981651D01*
X147371387Y-98989442D01*
X147369589Y-99000797D01*
X147367203Y-99015858D01*
X147368558Y-99020915D01*
X147368558Y-99020916D01*
X147370303Y-99027428D01*
X147372000Y-99040317D01*
X147372000Y-101196303D01*
X147371932Y-101198908D01*
X147369766Y-101240239D01*
X147371641Y-101245123D01*
X147371641Y-101245125D01*
X147379349Y-101265206D01*
X147381568Y-101272696D01*
X147387131Y-101298865D01*
X147394171Y-101308554D01*
X147400374Y-101319980D01*
X147402790Y-101326274D01*
X147402792Y-101326278D01*
X147404668Y-101331164D01*
X147423582Y-101350078D01*
X147428657Y-101356020D01*
X147441302Y-101373425D01*
X147441303Y-101373426D01*
X147444378Y-101377658D01*
X147448909Y-101380274D01*
X147448910Y-101380275D01*
X147454751Y-101383647D01*
X147465065Y-101391561D01*
X147749410Y-101675906D01*
X147763996Y-101711120D01*
X147763403Y-101718780D01*
X147751053Y-101798101D01*
X147767599Y-101924636D01*
X147781197Y-101955540D01*
X147812613Y-102026937D01*
X147818994Y-102041440D01*
X147901106Y-102139125D01*
X148007335Y-102209836D01*
X148010723Y-102210894D01*
X148010724Y-102210895D01*
X148029190Y-102216664D01*
X148129141Y-102247891D01*
X148132686Y-102247956D01*
X148253183Y-102250165D01*
X148256731Y-102250230D01*
X148269191Y-102246833D01*
X148376428Y-102217597D01*
X148376430Y-102217596D01*
X148379849Y-102216664D01*
X148420538Y-102191681D01*
X148485580Y-102151745D01*
X148485583Y-102151743D01*
X148488597Y-102149892D01*
X148500804Y-102136406D01*
X148571854Y-102057912D01*
X148571856Y-102057910D01*
X148574234Y-102055282D01*
X148629875Y-101940440D01*
X148651047Y-101814596D01*
X148651181Y-101803600D01*
X148650394Y-101798101D01*
X148633593Y-101680789D01*
X148633090Y-101677277D01*
X148580272Y-101561110D01*
X148496972Y-101464435D01*
X148468380Y-101445903D01*
X148446763Y-101414510D01*
X148453676Y-101377027D01*
X148469409Y-101361674D01*
X148485577Y-101351747D01*
X148485580Y-101351744D01*
X148488597Y-101349892D01*
X148574234Y-101255282D01*
X148574768Y-101254179D01*
X148605834Y-101233615D01*
X148615338Y-101232700D01*
X148981400Y-101232700D01*
X149016614Y-101247286D01*
X149031200Y-101282500D01*
X149031200Y-101295558D01*
X149038598Y-101332748D01*
X149048299Y-101347266D01*
X149066778Y-101374922D01*
X149064839Y-101376218D01*
X149076181Y-101403600D01*
X149064839Y-101430982D01*
X149066778Y-101432278D01*
X149038598Y-101474452D01*
X149031200Y-101511642D01*
X149031200Y-102095558D01*
X149038598Y-102132748D01*
X149064474Y-102171474D01*
X149066778Y-102174922D01*
X149064839Y-102176218D01*
X149076181Y-102203600D01*
X149064839Y-102230982D01*
X149066778Y-102232278D01*
X149038598Y-102274452D01*
X149031200Y-102311642D01*
X149031200Y-102895558D01*
X149038598Y-102932748D01*
X149041323Y-102936826D01*
X149066778Y-102974922D01*
X149064839Y-102976218D01*
X149076181Y-103003600D01*
X149064839Y-103030982D01*
X149066778Y-103032278D01*
X149038598Y-103074452D01*
X149031200Y-103111642D01*
X149031200Y-103124700D01*
X149016614Y-103159914D01*
X148981400Y-103174500D01*
X148308397Y-103174500D01*
X148305791Y-103174432D01*
X148264460Y-103172266D01*
X148259571Y-103174143D01*
X148259569Y-103174143D01*
X148239494Y-103181849D01*
X148232002Y-103184069D01*
X148226108Y-103185322D01*
X148205835Y-103189631D01*
X148201600Y-103192708D01*
X148196146Y-103196671D01*
X148184720Y-103202874D01*
X148178426Y-103205290D01*
X148178422Y-103205292D01*
X148173536Y-103207168D01*
X148154622Y-103226082D01*
X148148680Y-103231157D01*
X148131275Y-103243802D01*
X148131274Y-103243803D01*
X148127042Y-103246878D01*
X148124425Y-103251411D01*
X148121052Y-103257252D01*
X148113139Y-103267564D01*
X148070022Y-103310682D01*
X148030679Y-103350025D01*
X147995466Y-103364610D01*
X147981200Y-103362523D01*
X147967626Y-103358463D01*
X147964079Y-103358441D01*
X147964077Y-103358441D01*
X147906127Y-103358087D01*
X147840017Y-103357683D01*
X147717318Y-103392751D01*
X147609394Y-103460846D01*
X147524919Y-103556495D01*
X147496353Y-103617338D01*
X147472193Y-103668796D01*
X147472192Y-103668799D01*
X147470685Y-103672009D01*
X147451053Y-103798101D01*
X147455522Y-103832278D01*
X147463084Y-103890114D01*
X147453186Y-103926922D01*
X147448918Y-103931785D01*
X147344252Y-104036451D01*
X147342361Y-104038245D01*
X147311614Y-104065930D01*
X147300730Y-104090375D01*
X147297013Y-104097221D01*
X147282439Y-104119664D01*
X147281621Y-104124831D01*
X147281620Y-104124833D01*
X147280566Y-104131491D01*
X147276873Y-104143958D01*
X147272000Y-104154903D01*
X147272000Y-104181651D01*
X147271387Y-104189442D01*
X147267203Y-104215858D01*
X147268558Y-104220915D01*
X147268558Y-104220916D01*
X147270303Y-104227428D01*
X147272000Y-104240317D01*
X147272000Y-104883900D01*
X147257414Y-104919114D01*
X147222200Y-104933700D01*
X147209142Y-104933700D01*
X147206744Y-104934177D01*
X147176762Y-104940141D01*
X147176761Y-104940141D01*
X147171952Y-104941098D01*
X147129778Y-104969278D01*
X147128482Y-104967339D01*
X147101100Y-104978681D01*
X147073718Y-104967339D01*
X147072422Y-104969278D01*
X147034326Y-104943823D01*
X147034327Y-104943823D01*
X147030248Y-104941098D01*
X147025439Y-104940141D01*
X147025438Y-104940141D01*
X146995456Y-104934177D01*
X146993058Y-104933700D01*
X146426447Y-104933700D01*
X146391233Y-104919114D01*
X146385040Y-104911567D01*
X146365774Y-104882733D01*
X146358967Y-104875927D01*
X146283373Y-104825417D01*
X146274482Y-104821734D01*
X146207836Y-104808477D01*
X146202990Y-104808000D01*
X146037606Y-104808000D01*
X146030601Y-104810901D01*
X146027700Y-104817906D01*
X146027700Y-106574494D01*
X146030601Y-106581499D01*
X146037606Y-106584400D01*
X146202990Y-106584400D01*
X146207836Y-106583923D01*
X146274482Y-106570666D01*
X146283373Y-106566983D01*
X146358967Y-106516473D01*
X146365774Y-106509667D01*
X146385040Y-106480833D01*
X146416731Y-106459657D01*
X146426447Y-106458700D01*
X146993058Y-106458700D01*
X146995456Y-106458223D01*
X147025438Y-106452259D01*
X147025439Y-106452259D01*
X147030248Y-106451302D01*
X147072422Y-106423122D01*
X147073718Y-106425061D01*
X147101100Y-106413719D01*
X147128482Y-106425061D01*
X147129778Y-106423122D01*
X147171952Y-106451302D01*
X147176761Y-106452259D01*
X147176762Y-106452259D01*
X147206744Y-106458223D01*
X147209142Y-106458700D01*
X147793058Y-106458700D01*
X147795456Y-106458223D01*
X147825438Y-106452259D01*
X147825439Y-106452259D01*
X147830248Y-106451302D01*
X147872422Y-106423122D01*
X147873718Y-106425061D01*
X147901100Y-106413719D01*
X147928482Y-106425061D01*
X147929778Y-106423122D01*
X147971952Y-106451302D01*
X147976761Y-106452259D01*
X147976762Y-106452259D01*
X148006744Y-106458223D01*
X148009142Y-106458700D01*
X148593058Y-106458700D01*
X148595456Y-106458223D01*
X148625438Y-106452259D01*
X148625439Y-106452259D01*
X148630248Y-106451302D01*
X148672422Y-106423122D01*
X148700602Y-106380948D01*
X148708000Y-106343758D01*
X148708000Y-105798101D01*
X151751053Y-105798101D01*
X151767599Y-105924636D01*
X151818994Y-106041440D01*
X151901106Y-106139125D01*
X152007335Y-106209836D01*
X152010723Y-106210894D01*
X152010724Y-106210895D01*
X152029190Y-106216664D01*
X152129141Y-106247891D01*
X152132686Y-106247956D01*
X152253183Y-106250165D01*
X152256731Y-106250230D01*
X152269191Y-106246833D01*
X152376428Y-106217597D01*
X152376430Y-106217596D01*
X152379849Y-106216664D01*
X152420538Y-106191681D01*
X152485580Y-106151745D01*
X152485583Y-106151743D01*
X152488597Y-106149892D01*
X152574234Y-106055282D01*
X152574768Y-106054179D01*
X152605834Y-106033615D01*
X152615338Y-106032700D01*
X152723800Y-106032700D01*
X152759014Y-106047286D01*
X152773600Y-106082500D01*
X152773600Y-106356158D01*
X152774077Y-106358556D01*
X152779343Y-106385026D01*
X152780998Y-106393348D01*
X152783723Y-106397426D01*
X152800893Y-106423122D01*
X152809178Y-106435522D01*
X152851352Y-106463702D01*
X152856161Y-106464659D01*
X152856162Y-106464659D01*
X152886069Y-106470608D01*
X152888542Y-106471100D01*
X153963658Y-106471100D01*
X153966131Y-106470608D01*
X153996038Y-106464659D01*
X153996039Y-106464659D01*
X154000848Y-106463702D01*
X154043022Y-106435522D01*
X154051308Y-106423122D01*
X154068477Y-106397426D01*
X154071202Y-106393348D01*
X154072858Y-106385026D01*
X154076624Y-106366090D01*
X154397900Y-106366090D01*
X154398377Y-106370936D01*
X154411634Y-106437582D01*
X154415317Y-106446473D01*
X154465826Y-106522066D01*
X154472634Y-106528874D01*
X154548227Y-106579383D01*
X154557118Y-106583066D01*
X154623764Y-106596323D01*
X154628610Y-106596800D01*
X155039594Y-106596800D01*
X155046599Y-106593899D01*
X155049500Y-106586894D01*
X155302700Y-106586894D01*
X155305601Y-106593899D01*
X155312606Y-106596800D01*
X155723590Y-106596800D01*
X155728436Y-106596323D01*
X155795082Y-106583066D01*
X155803973Y-106579383D01*
X155879566Y-106528874D01*
X155886374Y-106522066D01*
X155936883Y-106446473D01*
X155940566Y-106437582D01*
X155953823Y-106370936D01*
X155954300Y-106366090D01*
X155954300Y-105940106D01*
X155951399Y-105933101D01*
X155944394Y-105930200D01*
X155312606Y-105930200D01*
X155305601Y-105933101D01*
X155302700Y-105940106D01*
X155302700Y-106586894D01*
X155049500Y-106586894D01*
X155049500Y-105940106D01*
X155046599Y-105933101D01*
X155039594Y-105930200D01*
X154407806Y-105930200D01*
X154400801Y-105933101D01*
X154397900Y-105940106D01*
X154397900Y-106366090D01*
X154076624Y-106366090D01*
X154078123Y-106358556D01*
X154078600Y-106356158D01*
X154078600Y-105667094D01*
X154397900Y-105667094D01*
X154400801Y-105674099D01*
X154407806Y-105677000D01*
X155039594Y-105677000D01*
X155046599Y-105674099D01*
X155049500Y-105667094D01*
X155302700Y-105667094D01*
X155305601Y-105674099D01*
X155312606Y-105677000D01*
X155944394Y-105677000D01*
X155951399Y-105674099D01*
X155954300Y-105667094D01*
X155954300Y-105241110D01*
X155953823Y-105236264D01*
X155940566Y-105169618D01*
X155936883Y-105160727D01*
X155886374Y-105085134D01*
X155879566Y-105078326D01*
X155803973Y-105027817D01*
X155795082Y-105024134D01*
X155728436Y-105010877D01*
X155723590Y-105010400D01*
X155312606Y-105010400D01*
X155305601Y-105013301D01*
X155302700Y-105020306D01*
X155302700Y-105667094D01*
X155049500Y-105667094D01*
X155049500Y-105020306D01*
X155046599Y-105013301D01*
X155039594Y-105010400D01*
X154628610Y-105010400D01*
X154623764Y-105010877D01*
X154557118Y-105024134D01*
X154548227Y-105027817D01*
X154472634Y-105078326D01*
X154465826Y-105085134D01*
X154415317Y-105160727D01*
X154411634Y-105169618D01*
X154398377Y-105236264D01*
X154397900Y-105241110D01*
X154397900Y-105667094D01*
X154078600Y-105667094D01*
X154078600Y-105251042D01*
X154071202Y-105213852D01*
X154043022Y-105171678D01*
X154000848Y-105143498D01*
X153996039Y-105142541D01*
X153996038Y-105142541D01*
X153966056Y-105136577D01*
X153963658Y-105136100D01*
X152888542Y-105136100D01*
X152886144Y-105136577D01*
X152856162Y-105142541D01*
X152856161Y-105142541D01*
X152851352Y-105143498D01*
X152809178Y-105171678D01*
X152780998Y-105213852D01*
X152773600Y-105251042D01*
X152773600Y-105524700D01*
X152759014Y-105559914D01*
X152723800Y-105574500D01*
X152614636Y-105574500D01*
X152576909Y-105557207D01*
X152499289Y-105467124D01*
X152496972Y-105464435D01*
X152389887Y-105395027D01*
X152267626Y-105358463D01*
X152264079Y-105358441D01*
X152264077Y-105358441D01*
X152206127Y-105358087D01*
X152140017Y-105357683D01*
X152017318Y-105392751D01*
X151909394Y-105460846D01*
X151903515Y-105467503D01*
X151853000Y-105524700D01*
X151824919Y-105556495D01*
X151816983Y-105573398D01*
X151772193Y-105668796D01*
X151772192Y-105668799D01*
X151770685Y-105672009D01*
X151751053Y-105798101D01*
X148708000Y-105798101D01*
X148708000Y-105048642D01*
X148707523Y-105046244D01*
X148701559Y-105016262D01*
X148701559Y-105016261D01*
X148700602Y-105011452D01*
X148672422Y-104969278D01*
X148630248Y-104941098D01*
X148625439Y-104940141D01*
X148625438Y-104940141D01*
X148595456Y-104934177D01*
X148593058Y-104933700D01*
X148580000Y-104933700D01*
X148544786Y-104919114D01*
X148530200Y-104883900D01*
X148530200Y-104482500D01*
X148544786Y-104447286D01*
X148580000Y-104432700D01*
X148981400Y-104432700D01*
X149016614Y-104447286D01*
X149031200Y-104482500D01*
X149031200Y-104495558D01*
X149038598Y-104532748D01*
X149066778Y-104574922D01*
X149108952Y-104603102D01*
X149113761Y-104604059D01*
X149113762Y-104604059D01*
X149143744Y-104610023D01*
X149146142Y-104610500D01*
X150441258Y-104610500D01*
X150443656Y-104610023D01*
X150473638Y-104604059D01*
X150473639Y-104604059D01*
X150478448Y-104603102D01*
X150520622Y-104574922D01*
X150548802Y-104532748D01*
X150556200Y-104495558D01*
X150556200Y-103911642D01*
X150551918Y-103890114D01*
X150549759Y-103879262D01*
X150549759Y-103879261D01*
X150548802Y-103874452D01*
X150520622Y-103832278D01*
X150522561Y-103830982D01*
X150511219Y-103803600D01*
X150522561Y-103776218D01*
X150520622Y-103774922D01*
X150546077Y-103736826D01*
X150548802Y-103732748D01*
X150556200Y-103695558D01*
X150556200Y-103111642D01*
X150548802Y-103074452D01*
X150520622Y-103032278D01*
X150522561Y-103030982D01*
X150511219Y-103003600D01*
X150522561Y-102976218D01*
X150520622Y-102974922D01*
X150546077Y-102936826D01*
X150548802Y-102932748D01*
X150556200Y-102895558D01*
X150556200Y-102882500D01*
X150570786Y-102847286D01*
X150606000Y-102832700D01*
X150785576Y-102832700D01*
X150820790Y-102847286D01*
X151883933Y-103910429D01*
X151885728Y-103912320D01*
X151913430Y-103943086D01*
X151918214Y-103945216D01*
X151937863Y-103953964D01*
X151944722Y-103957688D01*
X151967164Y-103972262D01*
X151972334Y-103973081D01*
X151972335Y-103973081D01*
X151975354Y-103973559D01*
X151978994Y-103974135D01*
X151991457Y-103977826D01*
X151994059Y-103978985D01*
X152020293Y-104006631D01*
X152023600Y-104024477D01*
X152023600Y-104266158D01*
X152030998Y-104303348D01*
X152059178Y-104345522D01*
X152101352Y-104373702D01*
X152106161Y-104374659D01*
X152106162Y-104374659D01*
X152136144Y-104380623D01*
X152138542Y-104381100D01*
X153263658Y-104381100D01*
X153266056Y-104380623D01*
X153296038Y-104374659D01*
X153296039Y-104374659D01*
X153300848Y-104373702D01*
X153343022Y-104345522D01*
X153371202Y-104303348D01*
X153378600Y-104266158D01*
X153378600Y-103770724D01*
X153393186Y-103735510D01*
X155047829Y-102080867D01*
X155049720Y-102079072D01*
X155076141Y-102055282D01*
X155080486Y-102051370D01*
X155091365Y-102026936D01*
X155095088Y-102020078D01*
X155109662Y-101997636D01*
X155111535Y-101985806D01*
X155115229Y-101973336D01*
X155116221Y-101971110D01*
X155120100Y-101962397D01*
X155120100Y-101935649D01*
X155120713Y-101927859D01*
X155121224Y-101924636D01*
X155124897Y-101901441D01*
X155121797Y-101889871D01*
X155120100Y-101876982D01*
X155120100Y-100341125D01*
X155134686Y-100305911D01*
X155169900Y-100291325D01*
X155197567Y-100299718D01*
X155212171Y-100309476D01*
X155212174Y-100309477D01*
X155216252Y-100312202D01*
X155221061Y-100313159D01*
X155221062Y-100313159D01*
X155243373Y-100317597D01*
X155253442Y-100319600D01*
X155528558Y-100319600D01*
X155538627Y-100317597D01*
X155560938Y-100313159D01*
X155560939Y-100313159D01*
X155565748Y-100312202D01*
X155595560Y-100292282D01*
X155603844Y-100286747D01*
X155607922Y-100284022D01*
X155608016Y-100283881D01*
X155641000Y-100270219D01*
X155673984Y-100283881D01*
X155674078Y-100284022D01*
X155678156Y-100286747D01*
X155686440Y-100292282D01*
X155716252Y-100312202D01*
X155721061Y-100313159D01*
X155721062Y-100313159D01*
X155743373Y-100317597D01*
X155753442Y-100319600D01*
X156028558Y-100319600D01*
X156038627Y-100317597D01*
X156060938Y-100313159D01*
X156060939Y-100313159D01*
X156065748Y-100312202D01*
X156095560Y-100292282D01*
X156103844Y-100286747D01*
X156107922Y-100284022D01*
X156108016Y-100283881D01*
X156141000Y-100270219D01*
X156173984Y-100283881D01*
X156174078Y-100284022D01*
X156178156Y-100286747D01*
X156186440Y-100292282D01*
X156216252Y-100312202D01*
X156221061Y-100313159D01*
X156221062Y-100313159D01*
X156243373Y-100317597D01*
X156253442Y-100319600D01*
X156528558Y-100319600D01*
X156538627Y-100317597D01*
X156560938Y-100313159D01*
X156560939Y-100313159D01*
X156565748Y-100312202D01*
X156569826Y-100309477D01*
X156569829Y-100309476D01*
X156584433Y-100299718D01*
X156621816Y-100292282D01*
X156653507Y-100313458D01*
X156661900Y-100341125D01*
X156661900Y-100877976D01*
X156647314Y-100913190D01*
X155924862Y-101635641D01*
X155234161Y-102326342D01*
X155232270Y-102328137D01*
X155201514Y-102355830D01*
X155190630Y-102380275D01*
X155186913Y-102387121D01*
X155172339Y-102409564D01*
X155171521Y-102414731D01*
X155171520Y-102414733D01*
X155170466Y-102421391D01*
X155166773Y-102433858D01*
X155161900Y-102444803D01*
X155161900Y-102471551D01*
X155161287Y-102479342D01*
X155157103Y-102505758D01*
X155158458Y-102510815D01*
X155158458Y-102510816D01*
X155160203Y-102517328D01*
X155161900Y-102530217D01*
X155161900Y-103269275D01*
X155147314Y-103304489D01*
X155112100Y-103319075D01*
X155084433Y-103310682D01*
X155069829Y-103300924D01*
X155069826Y-103300923D01*
X155065748Y-103298198D01*
X155060939Y-103297241D01*
X155060938Y-103297241D01*
X155030956Y-103291277D01*
X155028558Y-103290800D01*
X154753442Y-103290800D01*
X154751044Y-103291277D01*
X154721062Y-103297241D01*
X154721061Y-103297241D01*
X154716252Y-103298198D01*
X154706837Y-103304489D01*
X154685008Y-103319075D01*
X154674078Y-103326378D01*
X154671353Y-103330456D01*
X154663814Y-103341739D01*
X154645898Y-103368552D01*
X154638500Y-103405742D01*
X154638500Y-104430858D01*
X154645898Y-104468048D01*
X154674078Y-104510222D01*
X154716252Y-104538402D01*
X154721061Y-104539359D01*
X154721062Y-104539359D01*
X154749229Y-104544962D01*
X154753442Y-104545800D01*
X155028558Y-104545800D01*
X155032771Y-104544962D01*
X155060938Y-104539359D01*
X155060939Y-104539359D01*
X155065748Y-104538402D01*
X155107922Y-104510222D01*
X155108016Y-104510081D01*
X155141000Y-104496419D01*
X155173984Y-104510081D01*
X155174078Y-104510222D01*
X155216252Y-104538402D01*
X155221061Y-104539359D01*
X155221062Y-104539359D01*
X155249229Y-104544962D01*
X155253442Y-104545800D01*
X155520054Y-104545800D01*
X155555268Y-104560386D01*
X155561461Y-104567933D01*
X155580727Y-104596767D01*
X155587534Y-104603574D01*
X155663127Y-104654083D01*
X155672018Y-104657766D01*
X155738664Y-104671023D01*
X155743510Y-104671500D01*
X155756094Y-104671500D01*
X155763099Y-104668599D01*
X155766000Y-104661594D01*
X156016000Y-104661594D01*
X156018901Y-104668599D01*
X156025906Y-104671500D01*
X156038490Y-104671500D01*
X156043336Y-104671023D01*
X156109982Y-104657766D01*
X156118873Y-104654083D01*
X156194466Y-104603574D01*
X156201273Y-104596767D01*
X156220539Y-104567933D01*
X156252230Y-104546757D01*
X156261946Y-104545800D01*
X156528558Y-104545800D01*
X156532771Y-104544962D01*
X156560938Y-104539359D01*
X156560939Y-104539359D01*
X156565748Y-104538402D01*
X156607922Y-104510222D01*
X156608016Y-104510081D01*
X156641000Y-104496419D01*
X156673984Y-104510081D01*
X156674078Y-104510222D01*
X156716252Y-104538402D01*
X156721061Y-104539359D01*
X156721062Y-104539359D01*
X156749229Y-104544962D01*
X156753442Y-104545800D01*
X157028558Y-104545800D01*
X157032771Y-104544962D01*
X157060938Y-104539359D01*
X157060939Y-104539359D01*
X157065748Y-104538402D01*
X157107922Y-104510222D01*
X157136102Y-104468048D01*
X157143500Y-104430858D01*
X157143500Y-103521636D01*
X157159495Y-103485069D01*
X157196613Y-103450757D01*
X157256922Y-103338983D01*
X157258275Y-103333539D01*
X157258764Y-103330456D01*
X157335290Y-102847286D01*
X157353305Y-102733543D01*
X157356483Y-102722278D01*
X157376207Y-102674659D01*
X157438659Y-102523884D01*
X157442205Y-102516924D01*
X157450366Y-102503608D01*
X157558995Y-102326342D01*
X157563345Y-102319244D01*
X157567938Y-102312923D01*
X157604278Y-102270374D01*
X157718513Y-102136622D01*
X157724027Y-102131108D01*
X157900323Y-101980538D01*
X157906644Y-101975945D01*
X157978795Y-101931730D01*
X158104328Y-101854803D01*
X158111286Y-101851258D01*
X158228018Y-101802907D01*
X158266133Y-101802907D01*
X158282898Y-101814322D01*
X158332508Y-101865695D01*
X158332511Y-101865698D01*
X158334440Y-101867695D01*
X158336762Y-101869214D01*
X158336765Y-101869217D01*
X158424118Y-101926379D01*
X158471011Y-101957065D01*
X158527280Y-101977991D01*
X158621379Y-102012986D01*
X158621381Y-102012987D01*
X158623988Y-102013956D01*
X158785768Y-102035542D01*
X158788537Y-102035290D01*
X158788539Y-102035290D01*
X158945541Y-102021002D01*
X158948310Y-102020750D01*
X159035771Y-101992332D01*
X159100892Y-101971173D01*
X159100894Y-101971172D01*
X159103535Y-101970314D01*
X159116816Y-101962397D01*
X159241338Y-101888168D01*
X159241342Y-101888165D01*
X159243729Y-101886742D01*
X159245741Y-101884826D01*
X159245745Y-101884823D01*
X159314161Y-101819670D01*
X159361923Y-101774187D01*
X159363460Y-101771873D01*
X159363463Y-101771870D01*
X159450703Y-101640563D01*
X159450704Y-101640560D01*
X159452244Y-101638243D01*
X159453231Y-101635645D01*
X159453233Y-101635641D01*
X159509213Y-101488274D01*
X159509214Y-101488271D01*
X159510203Y-101485667D01*
X159531469Y-101334350D01*
X159532700Y-101325594D01*
X159532700Y-101325592D01*
X159532918Y-101324042D01*
X159533203Y-101303600D01*
X159518309Y-101170818D01*
X159515320Y-101144166D01*
X159515320Y-101144164D01*
X159515010Y-101141404D01*
X159511447Y-101131170D01*
X159484273Y-101053141D01*
X159461334Y-100987269D01*
X159380503Y-100857912D01*
X159376319Y-100851216D01*
X159376318Y-100851214D01*
X159374844Y-100848856D01*
X159259839Y-100733044D01*
X159257498Y-100731558D01*
X159257495Y-100731556D01*
X159122033Y-100645590D01*
X159122580Y-100644728D01*
X159099616Y-100618777D01*
X159101939Y-100580733D01*
X159121201Y-100559783D01*
X159241338Y-100488168D01*
X159241342Y-100488165D01*
X159243729Y-100486742D01*
X159245741Y-100484826D01*
X159245745Y-100484823D01*
X159300407Y-100432768D01*
X159361923Y-100374187D01*
X159363460Y-100371873D01*
X159363463Y-100371870D01*
X159450703Y-100240563D01*
X159450704Y-100240560D01*
X159452244Y-100238243D01*
X159453231Y-100235645D01*
X159453233Y-100235641D01*
X159509213Y-100088274D01*
X159509214Y-100088271D01*
X159510203Y-100085667D01*
X159527708Y-99961110D01*
X159532700Y-99925594D01*
X159532700Y-99925592D01*
X159532918Y-99924042D01*
X159532961Y-99921002D01*
X159533181Y-99905168D01*
X159533203Y-99903600D01*
X159518915Y-99776218D01*
X159515320Y-99744166D01*
X159515320Y-99744164D01*
X159515010Y-99741404D01*
X159512506Y-99734211D01*
X159483280Y-99650289D01*
X159461334Y-99587269D01*
X159394694Y-99480623D01*
X159376319Y-99451216D01*
X159376318Y-99451214D01*
X159374844Y-99448856D01*
X159361248Y-99435164D01*
X159309352Y-99382904D01*
X159259839Y-99333044D01*
X159257498Y-99331558D01*
X159257495Y-99331556D01*
X159124382Y-99247081D01*
X159122033Y-99245590D01*
X158968276Y-99190840D01*
X158806211Y-99171515D01*
X158803442Y-99171806D01*
X158803440Y-99171806D01*
X158646659Y-99188284D01*
X158646657Y-99188284D01*
X158643892Y-99188575D01*
X158641262Y-99189470D01*
X158641259Y-99189471D01*
X158492023Y-99240275D01*
X158492021Y-99240276D01*
X158489386Y-99241173D01*
X158487016Y-99242631D01*
X158487014Y-99242632D01*
X158435048Y-99274602D01*
X158350372Y-99326695D01*
X158310074Y-99366158D01*
X158272097Y-99403348D01*
X158233761Y-99440889D01*
X158232254Y-99443228D01*
X158232252Y-99443230D01*
X158156454Y-99560846D01*
X158145347Y-99578081D01*
X158144396Y-99580694D01*
X158144395Y-99580696D01*
X158101716Y-99697956D01*
X158089524Y-99731452D01*
X158089176Y-99734207D01*
X158089175Y-99734211D01*
X158071974Y-99870374D01*
X158069068Y-99893378D01*
X158072323Y-99926577D01*
X158083312Y-100038644D01*
X158084995Y-100055813D01*
X158085874Y-100058454D01*
X158085874Y-100058456D01*
X158094926Y-100085667D01*
X158136513Y-100210682D01*
X158221062Y-100350289D01*
X158222998Y-100352294D01*
X158222999Y-100352295D01*
X158332508Y-100465695D01*
X158332511Y-100465698D01*
X158334440Y-100467695D01*
X158336762Y-100469214D01*
X158336765Y-100469217D01*
X158380683Y-100497956D01*
X158471011Y-100557065D01*
X158473621Y-100558036D01*
X158476106Y-100559291D01*
X158475427Y-100560634D01*
X158499891Y-100583371D01*
X158501284Y-100621461D01*
X158480704Y-100646514D01*
X158350372Y-100726695D01*
X158233761Y-100840889D01*
X158232254Y-100843228D01*
X158232252Y-100843230D01*
X158162319Y-100951745D01*
X158145347Y-100978081D01*
X158144393Y-100980702D01*
X158138610Y-100996590D01*
X158110871Y-101025566D01*
X158093912Y-101032590D01*
X158092157Y-101033241D01*
X158090972Y-101033526D01*
X158060519Y-101046421D01*
X158060327Y-101046501D01*
X157824161Y-101144325D01*
X157815596Y-101146997D01*
X157791551Y-101152174D01*
X157786533Y-101154681D01*
X157785624Y-101155238D01*
X157785606Y-101155248D01*
X157761416Y-101170071D01*
X157759783Y-101170991D01*
X157758660Y-101171456D01*
X157730545Y-101188990D01*
X157730293Y-101189145D01*
X157512472Y-101322626D01*
X157504420Y-101326610D01*
X157484414Y-101334350D01*
X157484410Y-101334352D01*
X157481487Y-101335483D01*
X157476923Y-101338745D01*
X157454518Y-101357880D01*
X157453061Y-101359034D01*
X157452016Y-101359674D01*
X157450464Y-101361021D01*
X157427026Y-101381359D01*
X157426738Y-101381607D01*
X157277975Y-101508662D01*
X157232508Y-101547494D01*
X157225179Y-101552689D01*
X157206626Y-101563465D01*
X157206624Y-101563466D01*
X157203915Y-101565040D01*
X157199917Y-101568975D01*
X157199210Y-101569803D01*
X157180790Y-101591370D01*
X157179522Y-101592748D01*
X157178592Y-101593542D01*
X157177264Y-101595122D01*
X157157327Y-101618840D01*
X157157074Y-101619138D01*
X156991166Y-101813392D01*
X156984739Y-101819670D01*
X156965673Y-101835192D01*
X156962340Y-101839704D01*
X156955260Y-101851258D01*
X156946954Y-101864812D01*
X156945913Y-101866377D01*
X156945119Y-101867306D01*
X156928002Y-101895738D01*
X156804083Y-102097956D01*
X156794396Y-102113763D01*
X156789030Y-102120969D01*
X156774712Y-102136954D01*
X156774707Y-102136961D01*
X156772622Y-102139289D01*
X156770036Y-102144268D01*
X156769626Y-102145258D01*
X156769625Y-102145260D01*
X156758767Y-102171474D01*
X156757984Y-102173182D01*
X156757347Y-102174221D01*
X156744883Y-102204992D01*
X156645124Y-102445834D01*
X156640561Y-102456851D01*
X156638379Y-102461441D01*
X156618565Y-102498163D01*
X156617212Y-102503608D01*
X156617044Y-102504671D01*
X156617043Y-102504674D01*
X156610126Y-102548343D01*
X156609453Y-102551796D01*
X156605569Y-102568556D01*
X156598475Y-102599162D01*
X156598894Y-102603255D01*
X156598894Y-102603260D01*
X156599228Y-102606516D01*
X156598875Y-102619381D01*
X156565089Y-102832700D01*
X156510267Y-103178834D01*
X156509239Y-103185322D01*
X156509255Y-103187381D01*
X156509255Y-103187384D01*
X156509411Y-103207168D01*
X156509659Y-103238644D01*
X156509674Y-103240608D01*
X156495366Y-103275936D01*
X156459876Y-103290800D01*
X156261946Y-103290800D01*
X156226732Y-103276214D01*
X156220539Y-103268667D01*
X156201273Y-103239833D01*
X156194466Y-103233026D01*
X156118873Y-103182517D01*
X156109982Y-103178834D01*
X156043336Y-103165577D01*
X156038490Y-103165100D01*
X156025906Y-103165100D01*
X156018901Y-103168001D01*
X156016000Y-103175006D01*
X156016000Y-104661594D01*
X155766000Y-104661594D01*
X155766000Y-103175006D01*
X155763099Y-103168001D01*
X155756094Y-103165100D01*
X155743510Y-103165100D01*
X155738667Y-103165577D01*
X155679616Y-103177323D01*
X155642233Y-103169887D01*
X155621057Y-103138196D01*
X155620100Y-103128480D01*
X155620100Y-102609024D01*
X155634686Y-102573810D01*
X157047829Y-101160667D01*
X157049720Y-101158872D01*
X157053745Y-101155248D01*
X157080486Y-101131170D01*
X157091368Y-101106729D01*
X157095092Y-101099871D01*
X157109661Y-101077437D01*
X157111534Y-101065608D01*
X157115227Y-101053141D01*
X157117970Y-101046981D01*
X157120100Y-101042197D01*
X157120100Y-101015449D01*
X157120713Y-101007659D01*
X157124078Y-100986413D01*
X157124897Y-100981242D01*
X157121797Y-100969672D01*
X157120100Y-100956783D01*
X157120100Y-100280903D01*
X157128494Y-100253234D01*
X157133377Y-100245926D01*
X157136102Y-100241848D01*
X157142410Y-100210140D01*
X157143023Y-100207056D01*
X157143500Y-100204658D01*
X157143500Y-99179542D01*
X157141000Y-99166974D01*
X157137059Y-99147162D01*
X157137059Y-99147161D01*
X157136102Y-99142352D01*
X157128494Y-99130966D01*
X157120100Y-99103297D01*
X157120100Y-98613609D01*
X157134686Y-98578395D01*
X157143843Y-98571170D01*
X157175477Y-98551747D01*
X157175480Y-98551744D01*
X157178497Y-98549892D01*
X157183585Y-98544271D01*
X157261754Y-98457912D01*
X157261756Y-98457910D01*
X157264134Y-98455282D01*
X157319775Y-98340440D01*
X157340947Y-98214596D01*
X157341081Y-98203600D01*
X157339081Y-98189631D01*
X157323493Y-98080789D01*
X157322990Y-98077277D01*
X157270172Y-97961110D01*
X157186872Y-97864435D01*
X157079787Y-97795027D01*
X156957526Y-97758463D01*
X156953979Y-97758441D01*
X156953977Y-97758441D01*
X156896027Y-97758087D01*
X156829917Y-97757683D01*
X156707218Y-97792751D01*
X156679973Y-97809941D01*
X156642410Y-97816396D01*
X156611283Y-97794398D01*
X156603600Y-97767824D01*
X156603600Y-96184297D01*
X156603668Y-96181691D01*
X156605471Y-96147286D01*
X156605834Y-96140361D01*
X156603048Y-96133101D01*
X156596251Y-96115394D01*
X156594032Y-96107904D01*
X156589558Y-96086856D01*
X156589557Y-96086854D01*
X156588469Y-96081735D01*
X156581428Y-96072045D01*
X156575226Y-96060620D01*
X156572810Y-96054326D01*
X156572808Y-96054322D01*
X156570932Y-96049436D01*
X156552018Y-96030522D01*
X156546943Y-96024580D01*
X156534298Y-96007175D01*
X156534297Y-96007174D01*
X156531222Y-96002942D01*
X156526691Y-96000326D01*
X156526690Y-96000325D01*
X156520849Y-95996953D01*
X156510535Y-95989039D01*
X154568258Y-94046761D01*
X154566463Y-94044870D01*
X154542271Y-94018002D01*
X154542270Y-94018002D01*
X154538770Y-94014114D01*
X154514325Y-94003230D01*
X154507470Y-93999507D01*
X154501275Y-93995484D01*
X154479688Y-93964071D01*
X154478600Y-93953720D01*
X154478600Y-93641042D01*
X154476306Y-93629509D01*
X154472159Y-93608662D01*
X154472159Y-93608661D01*
X154471202Y-93603852D01*
X154452659Y-93576100D01*
X154445747Y-93565756D01*
X154443022Y-93561678D01*
X154400848Y-93533498D01*
X154396039Y-93532541D01*
X154396038Y-93532541D01*
X154366056Y-93526577D01*
X154363658Y-93526100D01*
X153438542Y-93526100D01*
X153436144Y-93526577D01*
X153406162Y-93532541D01*
X153406161Y-93532541D01*
X153401352Y-93533498D01*
X153359178Y-93561678D01*
X153356453Y-93565756D01*
X153349541Y-93576100D01*
X153330998Y-93603852D01*
X153330041Y-93608661D01*
X153330041Y-93608662D01*
X153325894Y-93629509D01*
X153323600Y-93641042D01*
X153323600Y-94766158D01*
X153330998Y-94803348D01*
X153338192Y-94814114D01*
X153353535Y-94837076D01*
X153359178Y-94845522D01*
X153401352Y-94873702D01*
X153406161Y-94874659D01*
X153406162Y-94874659D01*
X153417931Y-94877000D01*
X153438542Y-94881100D01*
X154363658Y-94881100D01*
X154384269Y-94877000D01*
X154396038Y-94874659D01*
X154396039Y-94874659D01*
X154400848Y-94873702D01*
X154443022Y-94845522D01*
X154448666Y-94837076D01*
X154464008Y-94814114D01*
X154471202Y-94803348D01*
X154478600Y-94766158D01*
X154478600Y-94725324D01*
X154493186Y-94690110D01*
X154528400Y-94675524D01*
X154563614Y-94690110D01*
X155497844Y-95624341D01*
X156130814Y-96257311D01*
X156145400Y-96292525D01*
X156145400Y-98410247D01*
X156145332Y-98412852D01*
X156143166Y-98454183D01*
X156145041Y-98459067D01*
X156145041Y-98459069D01*
X156152749Y-98479150D01*
X156154968Y-98486640D01*
X156160531Y-98512809D01*
X156159606Y-98513006D01*
X156161900Y-98523795D01*
X156161900Y-99043075D01*
X156147314Y-99078289D01*
X156112100Y-99092875D01*
X156084433Y-99084482D01*
X156069829Y-99074724D01*
X156069826Y-99074723D01*
X156065748Y-99071998D01*
X156060939Y-99071041D01*
X156060938Y-99071041D01*
X156030956Y-99065077D01*
X156028558Y-99064600D01*
X155753442Y-99064600D01*
X155751044Y-99065077D01*
X155721062Y-99071041D01*
X155721061Y-99071041D01*
X155716252Y-99071998D01*
X155712174Y-99074723D01*
X155712171Y-99074724D01*
X155697567Y-99084482D01*
X155660184Y-99091918D01*
X155628493Y-99070742D01*
X155620100Y-99043075D01*
X155620100Y-99000797D01*
X155620168Y-98998191D01*
X155620453Y-98992751D01*
X155622334Y-98956860D01*
X155612751Y-98931894D01*
X155610531Y-98924403D01*
X155606057Y-98903352D01*
X155606056Y-98903350D01*
X155604969Y-98898235D01*
X155597928Y-98888544D01*
X155591726Y-98877122D01*
X155587432Y-98865935D01*
X155568515Y-98847018D01*
X155563440Y-98841076D01*
X155550798Y-98823675D01*
X155550796Y-98823674D01*
X155547722Y-98819442D01*
X155537351Y-98813454D01*
X155527038Y-98805541D01*
X155418258Y-98696761D01*
X155416463Y-98694870D01*
X155392271Y-98668002D01*
X155392270Y-98668002D01*
X155388770Y-98664114D01*
X155364325Y-98653230D01*
X155357479Y-98649513D01*
X155335036Y-98634939D01*
X155329869Y-98634121D01*
X155329867Y-98634120D01*
X155323209Y-98633066D01*
X155310741Y-98629373D01*
X155304581Y-98626630D01*
X155299797Y-98624500D01*
X155273049Y-98624500D01*
X155265258Y-98623887D01*
X155244013Y-98620522D01*
X155238842Y-98619703D01*
X155233785Y-98621058D01*
X155233784Y-98621058D01*
X155227272Y-98622803D01*
X155214383Y-98624500D01*
X153428400Y-98624500D01*
X153393186Y-98609914D01*
X153378600Y-98574700D01*
X153378600Y-98341042D01*
X153374737Y-98321624D01*
X153372159Y-98308662D01*
X153372159Y-98308661D01*
X153371202Y-98303852D01*
X153348831Y-98270371D01*
X153345747Y-98265756D01*
X153343022Y-98261678D01*
X153300848Y-98233498D01*
X153296039Y-98232541D01*
X153295169Y-98232181D01*
X153268217Y-98205230D01*
X153268217Y-98167115D01*
X153295168Y-98140163D01*
X153301124Y-98138127D01*
X153335460Y-98128766D01*
X153376428Y-98117597D01*
X153376430Y-98117596D01*
X153379849Y-98116664D01*
X153449257Y-98074047D01*
X153485580Y-98051745D01*
X153485583Y-98051743D01*
X153488597Y-98049892D01*
X153500804Y-98036406D01*
X153571854Y-97957912D01*
X153571856Y-97957910D01*
X153574234Y-97955282D01*
X153629875Y-97840440D01*
X153651047Y-97714596D01*
X153651181Y-97703600D01*
X153633090Y-97577277D01*
X153580272Y-97461110D01*
X153496972Y-97364435D01*
X153389887Y-97295027D01*
X153267626Y-97258463D01*
X153264079Y-97258441D01*
X153264077Y-97258441D01*
X153206127Y-97258087D01*
X153140017Y-97257683D01*
X153017318Y-97292751D01*
X152909394Y-97360846D01*
X152824919Y-97456495D01*
X152823602Y-97455332D01*
X152796928Y-97473464D01*
X152786823Y-97474500D01*
X150816624Y-97474500D01*
X150781410Y-97459914D01*
X149977970Y-96656473D01*
X149887655Y-96566158D01*
X150523600Y-96566158D01*
X150530998Y-96603348D01*
X150559178Y-96645522D01*
X150601352Y-96673702D01*
X150606161Y-96674659D01*
X150606162Y-96674659D01*
X150636144Y-96680623D01*
X150638542Y-96681100D01*
X151563658Y-96681100D01*
X151566056Y-96680623D01*
X151596038Y-96674659D01*
X151596039Y-96674659D01*
X151600848Y-96673702D01*
X151643022Y-96645522D01*
X151671202Y-96603348D01*
X151676624Y-96576090D01*
X153197900Y-96576090D01*
X153198377Y-96580936D01*
X153211634Y-96647582D01*
X153215317Y-96656473D01*
X153265826Y-96732066D01*
X153272634Y-96738874D01*
X153348227Y-96789383D01*
X153357118Y-96793066D01*
X153423764Y-96806323D01*
X153428610Y-96806800D01*
X153764594Y-96806800D01*
X153771599Y-96803899D01*
X153774500Y-96796894D01*
X154027700Y-96796894D01*
X154030601Y-96803899D01*
X154037606Y-96806800D01*
X154373590Y-96806800D01*
X154378436Y-96806323D01*
X154445082Y-96793066D01*
X154453973Y-96789383D01*
X154529566Y-96738874D01*
X154536374Y-96732066D01*
X154586883Y-96656473D01*
X154590566Y-96647582D01*
X154603823Y-96580936D01*
X154604300Y-96576090D01*
X154604300Y-96140106D01*
X154601399Y-96133101D01*
X154594394Y-96130200D01*
X154037606Y-96130200D01*
X154030601Y-96133101D01*
X154027700Y-96140106D01*
X154027700Y-96796894D01*
X153774500Y-96796894D01*
X153774500Y-96140106D01*
X153771599Y-96133101D01*
X153764594Y-96130200D01*
X153207806Y-96130200D01*
X153200801Y-96133101D01*
X153197900Y-96140106D01*
X153197900Y-96576090D01*
X151676624Y-96576090D01*
X151678600Y-96566158D01*
X151678600Y-95867094D01*
X153197900Y-95867094D01*
X153200801Y-95874099D01*
X153207806Y-95877000D01*
X153764594Y-95877000D01*
X153771599Y-95874099D01*
X153774500Y-95867094D01*
X154027700Y-95867094D01*
X154030601Y-95874099D01*
X154037606Y-95877000D01*
X154594394Y-95877000D01*
X154601399Y-95874099D01*
X154604300Y-95867094D01*
X154604300Y-95431110D01*
X154603823Y-95426264D01*
X154590566Y-95359618D01*
X154586883Y-95350727D01*
X154536374Y-95275134D01*
X154529566Y-95268326D01*
X154453973Y-95217817D01*
X154445082Y-95214134D01*
X154378436Y-95200877D01*
X154373590Y-95200400D01*
X154037606Y-95200400D01*
X154030601Y-95203301D01*
X154027700Y-95210306D01*
X154027700Y-95867094D01*
X153774500Y-95867094D01*
X153774500Y-95210306D01*
X153771599Y-95203301D01*
X153764594Y-95200400D01*
X153428610Y-95200400D01*
X153423764Y-95200877D01*
X153357118Y-95214134D01*
X153348227Y-95217817D01*
X153272634Y-95268326D01*
X153265826Y-95275134D01*
X153215317Y-95350727D01*
X153211634Y-95359618D01*
X153198377Y-95426264D01*
X153197900Y-95431110D01*
X153197900Y-95867094D01*
X151678600Y-95867094D01*
X151678600Y-95441042D01*
X151671202Y-95403852D01*
X151643022Y-95361678D01*
X151600848Y-95333498D01*
X151596039Y-95332541D01*
X151596038Y-95332541D01*
X151566056Y-95326577D01*
X151563658Y-95326100D01*
X150638542Y-95326100D01*
X150636144Y-95326577D01*
X150606162Y-95332541D01*
X150606161Y-95332541D01*
X150601352Y-95333498D01*
X150559178Y-95361678D01*
X150530998Y-95403852D01*
X150523600Y-95441042D01*
X150523600Y-96566158D01*
X149887655Y-96566158D01*
X149168258Y-95846761D01*
X149166463Y-95844870D01*
X149142271Y-95818002D01*
X149142270Y-95818002D01*
X149138770Y-95814114D01*
X149114325Y-95803230D01*
X149107479Y-95799513D01*
X149085036Y-95784939D01*
X149079869Y-95784121D01*
X149079867Y-95784120D01*
X149073209Y-95783066D01*
X149060741Y-95779373D01*
X149054581Y-95776630D01*
X149049797Y-95774500D01*
X149023049Y-95774500D01*
X149015258Y-95773887D01*
X148994013Y-95770522D01*
X148988842Y-95769703D01*
X148983785Y-95771058D01*
X148983784Y-95771058D01*
X148977272Y-95772803D01*
X148964383Y-95774500D01*
X147708406Y-95774500D01*
X147705800Y-95774432D01*
X147700246Y-95774141D01*
X147664461Y-95772266D01*
X147659577Y-95774141D01*
X147659575Y-95774141D01*
X147639494Y-95781849D01*
X147632004Y-95784068D01*
X147610956Y-95788542D01*
X147610954Y-95788543D01*
X147605835Y-95789631D01*
X147599351Y-95794342D01*
X147596146Y-95796671D01*
X147584720Y-95802874D01*
X147578426Y-95805290D01*
X147578422Y-95805292D01*
X147573536Y-95807168D01*
X147554622Y-95826082D01*
X147548680Y-95831157D01*
X147531275Y-95843802D01*
X147531274Y-95843803D01*
X147527042Y-95846878D01*
X147524426Y-95851409D01*
X147524425Y-95851410D01*
X147521053Y-95857251D01*
X147513139Y-95867565D01*
X147426352Y-95954351D01*
X147344252Y-96036451D01*
X147342361Y-96038245D01*
X147311614Y-96065930D01*
X147300730Y-96090375D01*
X147297013Y-96097221D01*
X147282439Y-96119664D01*
X147281621Y-96124831D01*
X147281620Y-96124833D01*
X147280566Y-96131491D01*
X147276873Y-96143958D01*
X147272000Y-96154903D01*
X147272000Y-96181651D01*
X147271387Y-96189442D01*
X147267203Y-96215858D01*
X147268558Y-96220915D01*
X147268558Y-96220916D01*
X147270303Y-96227428D01*
X147272000Y-96240317D01*
X147272000Y-96292344D01*
X147257414Y-96327558D01*
X147222200Y-96342144D01*
X147186986Y-96327558D01*
X147180793Y-96320011D01*
X147165774Y-96297533D01*
X147158967Y-96290727D01*
X147083373Y-96240217D01*
X147074482Y-96236534D01*
X147007836Y-96223277D01*
X147002990Y-96222800D01*
X146837606Y-96222800D01*
X146830601Y-96225701D01*
X146827700Y-96232706D01*
X146827700Y-97989294D01*
X146830601Y-97996299D01*
X146837606Y-97999200D01*
X147002990Y-97999200D01*
X147007836Y-97998723D01*
X147074482Y-97985466D01*
X147083373Y-97981783D01*
X147158967Y-97931273D01*
X147165774Y-97924467D01*
X147180793Y-97901989D01*
X147212484Y-97880813D01*
X147249867Y-97888249D01*
X147271043Y-97919940D01*
X147272000Y-97929656D01*
X147272000Y-98088076D01*
X147257413Y-98123290D01*
X147220788Y-98159914D01*
X147185575Y-98174500D01*
X146508397Y-98174500D01*
X146505791Y-98174432D01*
X146501116Y-98174187D01*
X146464460Y-98172266D01*
X146439495Y-98181849D01*
X146432005Y-98184069D01*
X146430290Y-98184433D01*
X146410952Y-98188543D01*
X146410950Y-98188544D01*
X146405835Y-98189631D01*
X146396806Y-98196191D01*
X146396144Y-98196672D01*
X146384722Y-98202874D01*
X146373535Y-98207168D01*
X146354618Y-98226085D01*
X146348676Y-98231160D01*
X146331275Y-98243802D01*
X146331274Y-98243804D01*
X146327042Y-98246878D01*
X146321151Y-98257081D01*
X146321055Y-98257248D01*
X146313141Y-98267562D01*
X145930680Y-98650023D01*
X145895466Y-98664609D01*
X145881199Y-98662522D01*
X145871024Y-98659479D01*
X145871023Y-98659479D01*
X145867626Y-98658463D01*
X145864079Y-98658441D01*
X145864077Y-98658441D01*
X145806127Y-98658087D01*
X145740017Y-98657683D01*
X145617318Y-98692751D01*
X145509394Y-98760846D01*
X145507045Y-98763506D01*
X145438537Y-98841076D01*
X145424919Y-98856495D01*
X145404292Y-98900429D01*
X145372193Y-98968796D01*
X145372192Y-98968799D01*
X145370685Y-98972009D01*
X145351053Y-99098101D01*
X143730200Y-99098101D01*
X143730200Y-98691324D01*
X143744786Y-98656110D01*
X144403529Y-97997367D01*
X144405420Y-97995572D01*
X144420734Y-97981783D01*
X144436186Y-97967870D01*
X144440352Y-97958514D01*
X144447064Y-97943437D01*
X144450788Y-97936578D01*
X144465362Y-97914136D01*
X144466181Y-97908967D01*
X144467529Y-97905454D01*
X144493765Y-97877806D01*
X144514021Y-97873500D01*
X144575753Y-97873500D01*
X144610967Y-97888086D01*
X144617160Y-97895633D01*
X144636426Y-97924467D01*
X144643233Y-97931273D01*
X144718827Y-97981783D01*
X144727718Y-97985466D01*
X144794364Y-97998723D01*
X144799210Y-97999200D01*
X144964594Y-97999200D01*
X144971599Y-97996299D01*
X144974500Y-97989294D01*
X144974500Y-97034200D01*
X144989086Y-96998986D01*
X145024300Y-96984400D01*
X145177900Y-96984400D01*
X145213114Y-96998986D01*
X145227700Y-97034200D01*
X145227700Y-97989294D01*
X145230601Y-97996299D01*
X145237606Y-97999200D01*
X145402990Y-97999200D01*
X145407836Y-97998723D01*
X145474482Y-97985466D01*
X145483373Y-97981783D01*
X145558967Y-97931273D01*
X145565774Y-97924467D01*
X145585040Y-97895633D01*
X145616731Y-97874457D01*
X145626447Y-97873500D01*
X146175753Y-97873500D01*
X146210967Y-97888086D01*
X146217160Y-97895633D01*
X146236426Y-97924467D01*
X146243233Y-97931273D01*
X146318827Y-97981783D01*
X146327718Y-97985466D01*
X146394364Y-97998723D01*
X146399210Y-97999200D01*
X146564594Y-97999200D01*
X146571599Y-97996299D01*
X146574500Y-97989294D01*
X146574500Y-96232706D01*
X146571599Y-96225701D01*
X146564594Y-96222800D01*
X146399210Y-96222800D01*
X146394364Y-96223277D01*
X146327718Y-96236534D01*
X146318827Y-96240217D01*
X146243233Y-96290727D01*
X146236426Y-96297533D01*
X146221407Y-96320011D01*
X146189716Y-96341187D01*
X146152333Y-96333751D01*
X146131157Y-96302060D01*
X146130200Y-96292344D01*
X146130200Y-96010897D01*
X146130268Y-96008291D01*
X146132434Y-95966960D01*
X146130557Y-95962071D01*
X146130557Y-95962069D01*
X146122851Y-95941994D01*
X146120631Y-95934502D01*
X146116157Y-95913455D01*
X146115069Y-95908335D01*
X146108028Y-95898645D01*
X146101826Y-95887220D01*
X146099410Y-95880926D01*
X146099408Y-95880922D01*
X146097532Y-95876036D01*
X146078618Y-95857122D01*
X146073543Y-95851180D01*
X146060898Y-95833775D01*
X146060896Y-95833774D01*
X146057822Y-95829542D01*
X146047446Y-95823551D01*
X146037138Y-95815641D01*
X145968250Y-95746754D01*
X145966455Y-95744862D01*
X145942274Y-95718005D01*
X145942272Y-95718004D01*
X145938770Y-95714114D01*
X145914325Y-95703230D01*
X145907479Y-95699513D01*
X145885036Y-95684939D01*
X145879869Y-95684121D01*
X145879867Y-95684120D01*
X145873209Y-95683066D01*
X145860741Y-95679373D01*
X145854581Y-95676630D01*
X145849797Y-95674500D01*
X145823049Y-95674500D01*
X145815258Y-95673887D01*
X145794013Y-95670522D01*
X145788842Y-95669703D01*
X145783785Y-95671058D01*
X145783784Y-95671058D01*
X145777272Y-95672803D01*
X145764383Y-95674500D01*
X145380000Y-95674500D01*
X145344786Y-95659914D01*
X145330200Y-95624700D01*
X145330200Y-95376973D01*
X145344786Y-95341759D01*
X145375486Y-95327378D01*
X145432448Y-95322194D01*
X145448310Y-95320750D01*
X145588701Y-95275134D01*
X145600892Y-95271173D01*
X145600894Y-95271172D01*
X145603535Y-95270314D01*
X145606870Y-95268326D01*
X145741338Y-95188168D01*
X145741342Y-95188165D01*
X145743729Y-95186742D01*
X145745741Y-95184826D01*
X145745745Y-95184823D01*
X145803104Y-95130200D01*
X145861923Y-95074187D01*
X145863460Y-95071873D01*
X145863463Y-95071870D01*
X145950703Y-94940563D01*
X145950704Y-94940560D01*
X145952244Y-94938243D01*
X145953231Y-94935645D01*
X145953233Y-94935641D01*
X145974132Y-94880623D01*
X145980138Y-94864814D01*
X146006277Y-94837076D01*
X146026691Y-94832700D01*
X146074655Y-94832700D01*
X146109869Y-94847286D01*
X146121909Y-94866781D01*
X146126514Y-94880623D01*
X146136513Y-94910682D01*
X146221062Y-95050289D01*
X146222998Y-95052294D01*
X146222999Y-95052295D01*
X146332508Y-95165695D01*
X146332511Y-95165698D01*
X146334440Y-95167695D01*
X146336762Y-95169214D01*
X146336765Y-95169217D01*
X146372000Y-95192274D01*
X146471011Y-95257065D01*
X146502808Y-95268890D01*
X146621379Y-95312986D01*
X146621381Y-95312987D01*
X146623988Y-95313956D01*
X146785768Y-95335542D01*
X146788537Y-95335290D01*
X146788539Y-95335290D01*
X146945541Y-95321002D01*
X146948310Y-95320750D01*
X147088701Y-95275134D01*
X147100892Y-95271173D01*
X147100894Y-95271172D01*
X147103535Y-95270314D01*
X147106870Y-95268326D01*
X147241338Y-95188168D01*
X147241342Y-95188165D01*
X147243729Y-95186742D01*
X147245741Y-95184826D01*
X147245745Y-95184823D01*
X147303104Y-95130200D01*
X147361923Y-95074187D01*
X147363460Y-95071873D01*
X147363463Y-95071870D01*
X147450703Y-94940563D01*
X147450704Y-94940560D01*
X147452244Y-94938243D01*
X147453231Y-94935645D01*
X147453233Y-94935641D01*
X147474132Y-94880623D01*
X147480138Y-94864814D01*
X147506277Y-94837076D01*
X147526691Y-94832700D01*
X149693803Y-94832700D01*
X149696408Y-94832768D01*
X149737739Y-94834934D01*
X149742623Y-94833059D01*
X149742625Y-94833059D01*
X149762706Y-94825351D01*
X149770196Y-94823132D01*
X149791244Y-94818658D01*
X149791246Y-94818657D01*
X149796365Y-94817569D01*
X149806055Y-94810528D01*
X149817480Y-94804326D01*
X149823774Y-94801910D01*
X149823778Y-94801908D01*
X149828664Y-94800032D01*
X149847578Y-94781118D01*
X149853520Y-94776043D01*
X149870925Y-94763398D01*
X149870926Y-94763397D01*
X149875158Y-94760322D01*
X149879363Y-94753040D01*
X149881147Y-94749949D01*
X149889061Y-94739635D01*
X150181410Y-94447286D01*
X150216624Y-94432700D01*
X150473800Y-94432700D01*
X150509014Y-94447286D01*
X150523600Y-94482500D01*
X150523600Y-94766158D01*
X150530998Y-94803348D01*
X150538192Y-94814114D01*
X150553535Y-94837076D01*
X150559178Y-94845522D01*
X150601352Y-94873702D01*
X150606161Y-94874659D01*
X150606162Y-94874659D01*
X150617931Y-94877000D01*
X150638542Y-94881100D01*
X151563658Y-94881100D01*
X151584269Y-94877000D01*
X151596038Y-94874659D01*
X151596039Y-94874659D01*
X151600848Y-94873702D01*
X151643022Y-94845522D01*
X151648666Y-94837076D01*
X151664008Y-94814114D01*
X151671202Y-94803348D01*
X151678600Y-94766158D01*
X151678600Y-93641042D01*
X151676306Y-93629509D01*
X151672159Y-93608662D01*
X151672159Y-93608661D01*
X151671202Y-93603852D01*
X151652659Y-93576100D01*
X151645747Y-93565756D01*
X151643022Y-93561678D01*
X151600848Y-93533498D01*
X151596039Y-93532541D01*
X151596038Y-93532541D01*
X151566056Y-93526577D01*
X151563658Y-93526100D01*
X150638542Y-93526100D01*
X150636144Y-93526577D01*
X150606162Y-93532541D01*
X150606161Y-93532541D01*
X150601352Y-93533498D01*
X150559178Y-93561678D01*
X150556453Y-93565756D01*
X150549541Y-93576100D01*
X150530998Y-93603852D01*
X150530041Y-93608661D01*
X150530041Y-93608662D01*
X150525894Y-93629509D01*
X150523600Y-93641042D01*
X150523600Y-93924700D01*
X150509014Y-93959914D01*
X150473800Y-93974500D01*
X150108397Y-93974500D01*
X150105791Y-93974432D01*
X150064460Y-93972266D01*
X150059571Y-93974143D01*
X150059569Y-93974143D01*
X150039494Y-93981849D01*
X150032002Y-93984069D01*
X150020939Y-93986421D01*
X150005835Y-93989631D01*
X149997780Y-93995484D01*
X149996146Y-93996671D01*
X149984720Y-94002874D01*
X149978426Y-94005290D01*
X149978422Y-94005292D01*
X149973536Y-94007168D01*
X149954622Y-94026082D01*
X149948680Y-94031157D01*
X149931275Y-94043802D01*
X149931274Y-94043803D01*
X149927042Y-94046878D01*
X149924426Y-94051409D01*
X149924425Y-94051410D01*
X149921053Y-94057251D01*
X149913139Y-94067565D01*
X149620789Y-94359914D01*
X149585575Y-94374500D01*
X147527102Y-94374500D01*
X147491888Y-94359914D01*
X147480072Y-94341077D01*
X147462250Y-94289897D01*
X147462247Y-94289891D01*
X147461334Y-94287269D01*
X147374844Y-94148856D01*
X147259839Y-94033044D01*
X147257498Y-94031558D01*
X147257495Y-94031556D01*
X147167481Y-93974432D01*
X147122033Y-93945590D01*
X146968276Y-93890840D01*
X146806211Y-93871515D01*
X146803442Y-93871806D01*
X146803440Y-93871806D01*
X146646659Y-93888284D01*
X146646657Y-93888284D01*
X146643892Y-93888575D01*
X146641262Y-93889470D01*
X146641259Y-93889471D01*
X146492023Y-93940275D01*
X146492021Y-93940276D01*
X146489386Y-93941173D01*
X146487016Y-93942631D01*
X146487014Y-93942632D01*
X146468991Y-93953720D01*
X146350372Y-94026695D01*
X146233761Y-94140889D01*
X146232254Y-94143228D01*
X146232252Y-94143230D01*
X146151505Y-94268525D01*
X146145347Y-94278081D01*
X146144396Y-94280694D01*
X146144395Y-94280696D01*
X146122179Y-94341733D01*
X146096428Y-94369834D01*
X146075382Y-94374500D01*
X146027102Y-94374500D01*
X145991888Y-94359914D01*
X145980072Y-94341077D01*
X145962250Y-94289897D01*
X145962247Y-94289891D01*
X145961334Y-94287269D01*
X145874844Y-94148856D01*
X145759839Y-94033044D01*
X145757498Y-94031558D01*
X145757495Y-94031556D01*
X145667481Y-93974432D01*
X145622033Y-93945590D01*
X145468276Y-93890840D01*
X145306211Y-93871515D01*
X145303442Y-93871806D01*
X145303440Y-93871806D01*
X145146659Y-93888284D01*
X145146657Y-93888284D01*
X145143892Y-93888575D01*
X145141262Y-93889470D01*
X145141259Y-93889471D01*
X144992023Y-93940275D01*
X144992021Y-93940276D01*
X144989386Y-93941173D01*
X144987016Y-93942631D01*
X144987014Y-93942632D01*
X144968991Y-93953720D01*
X144850372Y-94026695D01*
X144733761Y-94140889D01*
X144732254Y-94143228D01*
X144732252Y-94143230D01*
X144651505Y-94268525D01*
X144645347Y-94278081D01*
X144644396Y-94280694D01*
X144644395Y-94280696D01*
X144607211Y-94382859D01*
X144589524Y-94431452D01*
X144589176Y-94434207D01*
X144589175Y-94434211D01*
X144583075Y-94482500D01*
X144569068Y-94593378D01*
X144569340Y-94596150D01*
X144582006Y-94725324D01*
X144584995Y-94755813D01*
X144585874Y-94758454D01*
X144585874Y-94758456D01*
X144605901Y-94818658D01*
X144636513Y-94910682D01*
X144721062Y-95050289D01*
X144722998Y-95052294D01*
X144722999Y-95052295D01*
X144832508Y-95165695D01*
X144832511Y-95165698D01*
X144834440Y-95167695D01*
X144836762Y-95169214D01*
X144836771Y-95169222D01*
X144849469Y-95177531D01*
X144870948Y-95209018D01*
X144872000Y-95219201D01*
X144872000Y-95624700D01*
X144857414Y-95659914D01*
X144822200Y-95674500D01*
X144408417Y-95674500D01*
X144405811Y-95674432D01*
X144364461Y-95672265D01*
X144359578Y-95674139D01*
X144359574Y-95674140D01*
X144339490Y-95681850D01*
X144332000Y-95684069D01*
X144327908Y-95684939D01*
X144310956Y-95688542D01*
X144310954Y-95688543D01*
X144305835Y-95689631D01*
X144301598Y-95692709D01*
X144301599Y-95692709D01*
X144296146Y-95696671D01*
X144284720Y-95702874D01*
X144278426Y-95705290D01*
X144278422Y-95705292D01*
X144273536Y-95707168D01*
X144254622Y-95726082D01*
X144248680Y-95731157D01*
X144231275Y-95743802D01*
X144231274Y-95743804D01*
X144227042Y-95746878D01*
X144221051Y-95757254D01*
X144213141Y-95767562D01*
X144190845Y-95789858D01*
X144187551Y-95792869D01*
X144159776Y-95816063D01*
X144157471Y-95820761D01*
X144157470Y-95820762D01*
X144145692Y-95844767D01*
X144142751Y-95849952D01*
X144125339Y-95876764D01*
X144124521Y-95881931D01*
X144124519Y-95881935D01*
X144124293Y-95883362D01*
X144119818Y-95897498D01*
X144116874Y-95903498D01*
X144116001Y-95926925D01*
X144115683Y-95935444D01*
X144115106Y-95941373D01*
X144110103Y-95972958D01*
X144111458Y-95978015D01*
X144111832Y-95979411D01*
X144113493Y-95994154D01*
X144102066Y-96300556D01*
X144086178Y-96335202D01*
X144052301Y-96348500D01*
X144009142Y-96348500D01*
X144006744Y-96348977D01*
X143976762Y-96354941D01*
X143976761Y-96354941D01*
X143971952Y-96355898D01*
X143929778Y-96384078D01*
X143928482Y-96382139D01*
X143901100Y-96393481D01*
X143873718Y-96382139D01*
X143872422Y-96384078D01*
X143866846Y-96380352D01*
X143830248Y-96355898D01*
X143825439Y-96354941D01*
X143825438Y-96354941D01*
X143795456Y-96348977D01*
X143793058Y-96348500D01*
X143780000Y-96348500D01*
X143744786Y-96333914D01*
X143730200Y-96298700D01*
X143730200Y-96110897D01*
X143730268Y-96108291D01*
X143731020Y-96093944D01*
X143732434Y-96066961D01*
X143730001Y-96060620D01*
X143722851Y-96041994D01*
X143720632Y-96034504D01*
X143716158Y-96013456D01*
X143716157Y-96013454D01*
X143715069Y-96008335D01*
X143708028Y-95998645D01*
X143701826Y-95987220D01*
X143699410Y-95980926D01*
X143699408Y-95980922D01*
X143697532Y-95976036D01*
X143678618Y-95957122D01*
X143673543Y-95951180D01*
X143660898Y-95933775D01*
X143660897Y-95933774D01*
X143657822Y-95929542D01*
X143653291Y-95926926D01*
X143653290Y-95926925D01*
X143647449Y-95923553D01*
X143637135Y-95915639D01*
X142568258Y-94846761D01*
X142566463Y-94844870D01*
X142542271Y-94818002D01*
X142542270Y-94818002D01*
X142538770Y-94814114D01*
X142514325Y-94803230D01*
X142507479Y-94799513D01*
X142485036Y-94784939D01*
X142479869Y-94784121D01*
X142479867Y-94784120D01*
X142473209Y-94783066D01*
X142460741Y-94779373D01*
X142454581Y-94776630D01*
X142449797Y-94774500D01*
X142423049Y-94774500D01*
X142415258Y-94773887D01*
X142394013Y-94770522D01*
X142388842Y-94769703D01*
X142383785Y-94771058D01*
X142383784Y-94771058D01*
X142377272Y-94772803D01*
X142364383Y-94774500D01*
X141778400Y-94774500D01*
X141743186Y-94759914D01*
X141728600Y-94724700D01*
X141728600Y-94380900D01*
X141743186Y-94345686D01*
X141778400Y-94331100D01*
X141788248Y-94331100D01*
X141795394Y-94331615D01*
X141812744Y-94334131D01*
X141812745Y-94334131D01*
X141819823Y-94335157D01*
X141826335Y-94332196D01*
X141826337Y-94332196D01*
X141842448Y-94324871D01*
X141849039Y-94322419D01*
X141866025Y-94317436D01*
X141866026Y-94317435D01*
X141872889Y-94315422D01*
X141877577Y-94310020D01*
X141879599Y-94308722D01*
X141881417Y-94307153D01*
X141887928Y-94304192D01*
X141901409Y-94283315D01*
X141905631Y-94277691D01*
X141917233Y-94264321D01*
X141917233Y-94264320D01*
X141921922Y-94258917D01*
X141922948Y-94251837D01*
X141924412Y-94248640D01*
X141924861Y-94247820D01*
X141925600Y-94245850D01*
X141928511Y-94241341D01*
X141928600Y-94240727D01*
X141928600Y-94216452D01*
X141929115Y-94209306D01*
X141931631Y-94191956D01*
X141931631Y-94191955D01*
X141932657Y-94184877D01*
X141929696Y-94178365D01*
X141929097Y-94174156D01*
X141928600Y-94167138D01*
X141928600Y-93716452D01*
X141929115Y-93709306D01*
X141931631Y-93691956D01*
X141931631Y-93691955D01*
X141932657Y-93684877D01*
X141929696Y-93678365D01*
X141929696Y-93678363D01*
X141922371Y-93662252D01*
X141919919Y-93655661D01*
X141914936Y-93638675D01*
X141914935Y-93638674D01*
X141912922Y-93631811D01*
X141907520Y-93627123D01*
X141906222Y-93625101D01*
X141904653Y-93623283D01*
X141901692Y-93616772D01*
X141880815Y-93603291D01*
X141875191Y-93599069D01*
X141861821Y-93587467D01*
X141861820Y-93587467D01*
X141856417Y-93582778D01*
X141849337Y-93581752D01*
X141846140Y-93580288D01*
X141845320Y-93579839D01*
X141843350Y-93579100D01*
X141838841Y-93576189D01*
X141838227Y-93576100D01*
X141813952Y-93576100D01*
X141806806Y-93575585D01*
X141789456Y-93573069D01*
X141789455Y-93573069D01*
X141782377Y-93572043D01*
X141775865Y-93575004D01*
X141771656Y-93575603D01*
X141764638Y-93576100D01*
X141013952Y-93576100D01*
X141006806Y-93575585D01*
X140989456Y-93573069D01*
X140989455Y-93573069D01*
X140982377Y-93572043D01*
X140975865Y-93575004D01*
X140975863Y-93575004D01*
X140959752Y-93582329D01*
X140953161Y-93584781D01*
X140936175Y-93589764D01*
X140936174Y-93589765D01*
X140929311Y-93591778D01*
X140924623Y-93597180D01*
X140922601Y-93598478D01*
X140920783Y-93600047D01*
X140914272Y-93603008D01*
X140900792Y-93623884D01*
X140896569Y-93629509D01*
X140880278Y-93648283D01*
X140879252Y-93655363D01*
X140877788Y-93658560D01*
X140877339Y-93659380D01*
X140876600Y-93661350D01*
X140873689Y-93665859D01*
X140873600Y-93666473D01*
X140873600Y-93690748D01*
X140873085Y-93697894D01*
X140869543Y-93722323D01*
X140872504Y-93728835D01*
X140873103Y-93733044D01*
X140873600Y-93740062D01*
X140873600Y-94190748D01*
X140873085Y-94197894D01*
X140869543Y-94222323D01*
X140872504Y-94228835D01*
X140872504Y-94228837D01*
X140879829Y-94244948D01*
X140882281Y-94251539D01*
X140884446Y-94258917D01*
X140889278Y-94275389D01*
X140894680Y-94280077D01*
X140895978Y-94282099D01*
X140897547Y-94283917D01*
X140900508Y-94290428D01*
X140912515Y-94298181D01*
X140921384Y-94303908D01*
X140927009Y-94308131D01*
X140945783Y-94324422D01*
X140952863Y-94325448D01*
X140956060Y-94326912D01*
X140956880Y-94327361D01*
X140958850Y-94328100D01*
X140963359Y-94331011D01*
X140963973Y-94331100D01*
X140988248Y-94331100D01*
X140995394Y-94331615D01*
X141012745Y-94334131D01*
X141012746Y-94334131D01*
X141019823Y-94335157D01*
X141020976Y-94334633D01*
X141053701Y-94343035D01*
X141073103Y-94375842D01*
X141073600Y-94382859D01*
X141073600Y-95626300D01*
X141059014Y-95661514D01*
X141023800Y-95676100D01*
X141013952Y-95676100D01*
X141006806Y-95675585D01*
X140989456Y-95673069D01*
X140989455Y-95673069D01*
X140982377Y-95672043D01*
X140975865Y-95675004D01*
X140975863Y-95675004D01*
X140959752Y-95682329D01*
X140953161Y-95684781D01*
X140936175Y-95689764D01*
X140936174Y-95689765D01*
X140929311Y-95691778D01*
X140924623Y-95697180D01*
X140922601Y-95698478D01*
X140920783Y-95700047D01*
X140914272Y-95703008D01*
X140904588Y-95718005D01*
X140900792Y-95723884D01*
X140896569Y-95729509D01*
X140880278Y-95748283D01*
X140879252Y-95755363D01*
X140877788Y-95758560D01*
X140877339Y-95759380D01*
X140876600Y-95761350D01*
X140873689Y-95765859D01*
X140873600Y-95766473D01*
X140873600Y-95790748D01*
X140873085Y-95797894D01*
X140871042Y-95811987D01*
X140869543Y-95822323D01*
X140872504Y-95828835D01*
X140873103Y-95833044D01*
X140873600Y-95840062D01*
X140873600Y-96290748D01*
X140873085Y-96297894D01*
X140869543Y-96322323D01*
X140872504Y-96328835D01*
X140872504Y-96328837D01*
X140879829Y-96344948D01*
X140882281Y-96351539D01*
X140886445Y-96365731D01*
X140889278Y-96375389D01*
X140894680Y-96380077D01*
X140895978Y-96382099D01*
X140897547Y-96383917D01*
X140900508Y-96390428D01*
X140912515Y-96398181D01*
X140921384Y-96403908D01*
X140927009Y-96408131D01*
X140945783Y-96424422D01*
X140952863Y-96425448D01*
X140956060Y-96426912D01*
X140956880Y-96427361D01*
X140958850Y-96428100D01*
X140963359Y-96431011D01*
X140963973Y-96431100D01*
X140988248Y-96431100D01*
X140995394Y-96431615D01*
X141012744Y-96434131D01*
X141012745Y-96434131D01*
X141019823Y-96435157D01*
X141026335Y-96432196D01*
X141030544Y-96431597D01*
X141037562Y-96431100D01*
X141788248Y-96431100D01*
X141795394Y-96431615D01*
X141812744Y-96434131D01*
X141812745Y-96434131D01*
X141819823Y-96435157D01*
X141826335Y-96432196D01*
X141826337Y-96432196D01*
X141842448Y-96424871D01*
X141849039Y-96422419D01*
X141866025Y-96417436D01*
X141866026Y-96417435D01*
X141872889Y-96415422D01*
X141877577Y-96410020D01*
X141879599Y-96408722D01*
X141881417Y-96407153D01*
X141887928Y-96404192D01*
X141901409Y-96383315D01*
X141905631Y-96377691D01*
X141917233Y-96364321D01*
X141917233Y-96364320D01*
X141921922Y-96358917D01*
X141922948Y-96351837D01*
X141924412Y-96348640D01*
X141924861Y-96347820D01*
X141925600Y-96345850D01*
X141928511Y-96341341D01*
X141928600Y-96340727D01*
X141928600Y-96316452D01*
X141929115Y-96309306D01*
X141931631Y-96291956D01*
X141931631Y-96291955D01*
X141932657Y-96284877D01*
X141929696Y-96278365D01*
X141929097Y-96274156D01*
X141928600Y-96267138D01*
X141928600Y-95816452D01*
X141929115Y-95809306D01*
X141931631Y-95791956D01*
X141931631Y-95791955D01*
X141932657Y-95784877D01*
X141929696Y-95778365D01*
X141929696Y-95778363D01*
X141922371Y-95762252D01*
X141919919Y-95755661D01*
X141914936Y-95738675D01*
X141914935Y-95738674D01*
X141912922Y-95731811D01*
X141907520Y-95727123D01*
X141906222Y-95725101D01*
X141904653Y-95723283D01*
X141901692Y-95716772D01*
X141880815Y-95703291D01*
X141875191Y-95699069D01*
X141861821Y-95687467D01*
X141861820Y-95687467D01*
X141856417Y-95682778D01*
X141849337Y-95681752D01*
X141846140Y-95680288D01*
X141845320Y-95679839D01*
X141843350Y-95679100D01*
X141838841Y-95676189D01*
X141838227Y-95676100D01*
X141813952Y-95676100D01*
X141806806Y-95675585D01*
X141789455Y-95673069D01*
X141789454Y-95673069D01*
X141782377Y-95672043D01*
X141781224Y-95672567D01*
X141748499Y-95664165D01*
X141729097Y-95631358D01*
X141728600Y-95624341D01*
X141728600Y-95282500D01*
X141743186Y-95247286D01*
X141778400Y-95232700D01*
X142285576Y-95232700D01*
X142320790Y-95247286D01*
X143257414Y-96183911D01*
X143272000Y-96219125D01*
X143272000Y-96298700D01*
X143257414Y-96333914D01*
X143222200Y-96348500D01*
X143209142Y-96348500D01*
X143206744Y-96348977D01*
X143176762Y-96354941D01*
X143176761Y-96354941D01*
X143171952Y-96355898D01*
X143129778Y-96384078D01*
X143128482Y-96382139D01*
X143101100Y-96393481D01*
X143073718Y-96382139D01*
X143072422Y-96384078D01*
X143066846Y-96380352D01*
X143030248Y-96355898D01*
X143025439Y-96354941D01*
X143025438Y-96354941D01*
X142995456Y-96348977D01*
X142993058Y-96348500D01*
X142409142Y-96348500D01*
X142406744Y-96348977D01*
X142376762Y-96354941D01*
X142376761Y-96354941D01*
X142371952Y-96355898D01*
X142329778Y-96384078D01*
X142301598Y-96426252D01*
X142300641Y-96431061D01*
X142300641Y-96431062D01*
X142297732Y-96445686D01*
X142294200Y-96463442D01*
X142294200Y-97173275D01*
X142279614Y-97208489D01*
X142220789Y-97267314D01*
X142185575Y-97281900D01*
X140224024Y-97281900D01*
X140188810Y-97267314D01*
X139437611Y-96516114D01*
X139423025Y-96480900D01*
X139437611Y-96445686D01*
X139472825Y-96431100D01*
X139488248Y-96431100D01*
X139495394Y-96431615D01*
X139512744Y-96434131D01*
X139512745Y-96434131D01*
X139519823Y-96435157D01*
X139526335Y-96432196D01*
X139530544Y-96431597D01*
X139537562Y-96431100D01*
X140288248Y-96431100D01*
X140295394Y-96431615D01*
X140312744Y-96434131D01*
X140312745Y-96434131D01*
X140319823Y-96435157D01*
X140326335Y-96432196D01*
X140326337Y-96432196D01*
X140342448Y-96424871D01*
X140349039Y-96422419D01*
X140366025Y-96417436D01*
X140366026Y-96417435D01*
X140372889Y-96415422D01*
X140377577Y-96410020D01*
X140379599Y-96408722D01*
X140381417Y-96407153D01*
X140387928Y-96404192D01*
X140401409Y-96383315D01*
X140405631Y-96377691D01*
X140417233Y-96364321D01*
X140417233Y-96364320D01*
X140421922Y-96358917D01*
X140422948Y-96351837D01*
X140424412Y-96348640D01*
X140424861Y-96347820D01*
X140425600Y-96345850D01*
X140428511Y-96341341D01*
X140428600Y-96340727D01*
X140428600Y-96316452D01*
X140429115Y-96309306D01*
X140431631Y-96291956D01*
X140431631Y-96291955D01*
X140432657Y-96284877D01*
X140429696Y-96278365D01*
X140429097Y-96274156D01*
X140428600Y-96267138D01*
X140428600Y-95816452D01*
X140429115Y-95809306D01*
X140431631Y-95791956D01*
X140431631Y-95791955D01*
X140432657Y-95784877D01*
X140429696Y-95778365D01*
X140429696Y-95778363D01*
X140422371Y-95762252D01*
X140419919Y-95755661D01*
X140414936Y-95738675D01*
X140414935Y-95738674D01*
X140412922Y-95731811D01*
X140407520Y-95727123D01*
X140406222Y-95725101D01*
X140404653Y-95723283D01*
X140401692Y-95716772D01*
X140380815Y-95703291D01*
X140375190Y-95699068D01*
X140371460Y-95695831D01*
X140354300Y-95658219D01*
X140354300Y-95140106D01*
X140351399Y-95133101D01*
X140344394Y-95130200D01*
X139457806Y-95130200D01*
X139450801Y-95133101D01*
X139447900Y-95140106D01*
X139447900Y-95655029D01*
X139433314Y-95690243D01*
X139432610Y-95690810D01*
X139429311Y-95691778D01*
X139424621Y-95697182D01*
X139422601Y-95698479D01*
X139420785Y-95700046D01*
X139414272Y-95703008D01*
X139404588Y-95718005D01*
X139400792Y-95723884D01*
X139396569Y-95729509D01*
X139380278Y-95748283D01*
X139379252Y-95755363D01*
X139377788Y-95758560D01*
X139377339Y-95759380D01*
X139376600Y-95761350D01*
X139373689Y-95765859D01*
X139373600Y-95766473D01*
X139373600Y-95790748D01*
X139373085Y-95797894D01*
X139371042Y-95811987D01*
X139369543Y-95822323D01*
X139372504Y-95828835D01*
X139373103Y-95833044D01*
X139373600Y-95840062D01*
X139373600Y-96290748D01*
X139373085Y-96297894D01*
X139369543Y-96322323D01*
X139371143Y-96325842D01*
X139362265Y-96360418D01*
X139329457Y-96379820D01*
X139292540Y-96370341D01*
X139287232Y-96365736D01*
X138943186Y-96021689D01*
X138928600Y-95986475D01*
X138928600Y-95816452D01*
X138929115Y-95809306D01*
X138931631Y-95791956D01*
X138931631Y-95791955D01*
X138932657Y-95784877D01*
X138929696Y-95778365D01*
X138929696Y-95778363D01*
X138922371Y-95762252D01*
X138919919Y-95755661D01*
X138914936Y-95738675D01*
X138914935Y-95738674D01*
X138912922Y-95731811D01*
X138907520Y-95727123D01*
X138906222Y-95725101D01*
X138904653Y-95723283D01*
X138901692Y-95716772D01*
X138880815Y-95703291D01*
X138875191Y-95699069D01*
X138861821Y-95687467D01*
X138861820Y-95687467D01*
X138856417Y-95682778D01*
X138849337Y-95681752D01*
X138846140Y-95680288D01*
X138845320Y-95679839D01*
X138843350Y-95679100D01*
X138838841Y-95676189D01*
X138838227Y-95676100D01*
X138813952Y-95676100D01*
X138806806Y-95675585D01*
X138789455Y-95673069D01*
X138789454Y-95673069D01*
X138782377Y-95672043D01*
X138781224Y-95672567D01*
X138748499Y-95664165D01*
X138729097Y-95631358D01*
X138728600Y-95624341D01*
X138728600Y-94380900D01*
X138743186Y-94345686D01*
X138778400Y-94331100D01*
X138788248Y-94331100D01*
X138795394Y-94331615D01*
X138812744Y-94334131D01*
X138812745Y-94334131D01*
X138819823Y-94335157D01*
X138826335Y-94332196D01*
X138826337Y-94332196D01*
X138842448Y-94324871D01*
X138849039Y-94322419D01*
X138866025Y-94317436D01*
X138866026Y-94317435D01*
X138872889Y-94315422D01*
X138877577Y-94310020D01*
X138879599Y-94308722D01*
X138881417Y-94307153D01*
X138887928Y-94304192D01*
X138901409Y-94283315D01*
X138905631Y-94277691D01*
X138917233Y-94264321D01*
X138917233Y-94264320D01*
X138921922Y-94258917D01*
X138922948Y-94251837D01*
X138924412Y-94248640D01*
X138924861Y-94247820D01*
X138925600Y-94245850D01*
X138928511Y-94241341D01*
X138928600Y-94240727D01*
X138928600Y-94222323D01*
X139369543Y-94222323D01*
X139372504Y-94228835D01*
X139372504Y-94228837D01*
X139379829Y-94244948D01*
X139382281Y-94251539D01*
X139384446Y-94258917D01*
X139389278Y-94275389D01*
X139394680Y-94280077D01*
X139395978Y-94282099D01*
X139397547Y-94283917D01*
X139400508Y-94290428D01*
X139412515Y-94298181D01*
X139421384Y-94303908D01*
X139427010Y-94308132D01*
X139430740Y-94311369D01*
X139447900Y-94348981D01*
X139447900Y-94867094D01*
X139450801Y-94874099D01*
X139457806Y-94877000D01*
X140344394Y-94877000D01*
X140351399Y-94874099D01*
X140354300Y-94867094D01*
X140354300Y-94352171D01*
X140368886Y-94316957D01*
X140369590Y-94316390D01*
X140372889Y-94315422D01*
X140377579Y-94310018D01*
X140379599Y-94308721D01*
X140381415Y-94307154D01*
X140387928Y-94304192D01*
X140401409Y-94283315D01*
X140405631Y-94277691D01*
X140417233Y-94264321D01*
X140417233Y-94264320D01*
X140421922Y-94258917D01*
X140422948Y-94251837D01*
X140424412Y-94248640D01*
X140424861Y-94247820D01*
X140425600Y-94245850D01*
X140428511Y-94241341D01*
X140428600Y-94240727D01*
X140428600Y-94216452D01*
X140429115Y-94209306D01*
X140431631Y-94191956D01*
X140431631Y-94191955D01*
X140432657Y-94184877D01*
X140429696Y-94178365D01*
X140429097Y-94174156D01*
X140428600Y-94167138D01*
X140428600Y-93716452D01*
X140429115Y-93709306D01*
X140431631Y-93691956D01*
X140431631Y-93691955D01*
X140432657Y-93684877D01*
X140429696Y-93678365D01*
X140429696Y-93678363D01*
X140422371Y-93662252D01*
X140419919Y-93655661D01*
X140414936Y-93638675D01*
X140414935Y-93638674D01*
X140412922Y-93631811D01*
X140407520Y-93627123D01*
X140406222Y-93625101D01*
X140404653Y-93623283D01*
X140401692Y-93616772D01*
X140380815Y-93603291D01*
X140375191Y-93599069D01*
X140361821Y-93587467D01*
X140361820Y-93587467D01*
X140356417Y-93582778D01*
X140349337Y-93581752D01*
X140346140Y-93580288D01*
X140345320Y-93579839D01*
X140343350Y-93579100D01*
X140338841Y-93576189D01*
X140338227Y-93576100D01*
X140313952Y-93576100D01*
X140306806Y-93575585D01*
X140289456Y-93573069D01*
X140289455Y-93573069D01*
X140282377Y-93572043D01*
X140275865Y-93575004D01*
X140271656Y-93575603D01*
X140264638Y-93576100D01*
X139513952Y-93576100D01*
X139506806Y-93575585D01*
X139489456Y-93573069D01*
X139489455Y-93573069D01*
X139482377Y-93572043D01*
X139475865Y-93575004D01*
X139475863Y-93575004D01*
X139459752Y-93582329D01*
X139453161Y-93584781D01*
X139436175Y-93589764D01*
X139436174Y-93589765D01*
X139429311Y-93591778D01*
X139424623Y-93597180D01*
X139422601Y-93598478D01*
X139420783Y-93600047D01*
X139414272Y-93603008D01*
X139400792Y-93623884D01*
X139396569Y-93629509D01*
X139380278Y-93648283D01*
X139379252Y-93655363D01*
X139377788Y-93658560D01*
X139377339Y-93659380D01*
X139376600Y-93661350D01*
X139373689Y-93665859D01*
X139373600Y-93666473D01*
X139373600Y-93690748D01*
X139373085Y-93697894D01*
X139369543Y-93722323D01*
X139372504Y-93728835D01*
X139373103Y-93733044D01*
X139373600Y-93740062D01*
X139373600Y-94190748D01*
X139373085Y-94197894D01*
X139369543Y-94222323D01*
X138928600Y-94222323D01*
X138928600Y-94216452D01*
X138929115Y-94209306D01*
X138931631Y-94191956D01*
X138931631Y-94191955D01*
X138932657Y-94184877D01*
X138929696Y-94178365D01*
X138929097Y-94174156D01*
X138928600Y-94167138D01*
X138928600Y-93716452D01*
X138929115Y-93709306D01*
X138931631Y-93691956D01*
X138931631Y-93691955D01*
X138932657Y-93684877D01*
X138929696Y-93678365D01*
X138929696Y-93678363D01*
X138922371Y-93662252D01*
X138919919Y-93655661D01*
X138914936Y-93638675D01*
X138914935Y-93638674D01*
X138912922Y-93631811D01*
X138907520Y-93627123D01*
X138906222Y-93625101D01*
X138904653Y-93623283D01*
X138901692Y-93616772D01*
X138880815Y-93603291D01*
X138875191Y-93599069D01*
X138861821Y-93587467D01*
X138861820Y-93587467D01*
X138856417Y-93582778D01*
X138849337Y-93581752D01*
X138846140Y-93580288D01*
X138845320Y-93579839D01*
X138843350Y-93579100D01*
X138838841Y-93576189D01*
X138838227Y-93576100D01*
X138813952Y-93576100D01*
X138806806Y-93575585D01*
X138789456Y-93573069D01*
X138789455Y-93573069D01*
X138782377Y-93572043D01*
X138775865Y-93575004D01*
X138771656Y-93575603D01*
X138764638Y-93576100D01*
X138013952Y-93576100D01*
X138006806Y-93575585D01*
X137989456Y-93573069D01*
X137989455Y-93573069D01*
X137982377Y-93572043D01*
X137975865Y-93575004D01*
X137975863Y-93575004D01*
X137959752Y-93582329D01*
X137953161Y-93584781D01*
X137936175Y-93589764D01*
X137936174Y-93589765D01*
X137929311Y-93591778D01*
X137924623Y-93597180D01*
X137922601Y-93598478D01*
X137920783Y-93600047D01*
X137914272Y-93603008D01*
X137900792Y-93623884D01*
X137896569Y-93629509D01*
X137880278Y-93648283D01*
X137879252Y-93655363D01*
X137877788Y-93658560D01*
X137877339Y-93659380D01*
X137876600Y-93661350D01*
X137873689Y-93665859D01*
X137873600Y-93666473D01*
X137873600Y-93690748D01*
X137873085Y-93697894D01*
X137869543Y-93722323D01*
X137872504Y-93728835D01*
X137873103Y-93733044D01*
X137873600Y-93740062D01*
X137873600Y-94190748D01*
X137873085Y-94197894D01*
X137869543Y-94222323D01*
X137872504Y-94228835D01*
X137872504Y-94228837D01*
X137879829Y-94244948D01*
X137882281Y-94251539D01*
X137884446Y-94258917D01*
X137889278Y-94275389D01*
X137894680Y-94280077D01*
X137895978Y-94282099D01*
X137897547Y-94283917D01*
X137900508Y-94290428D01*
X137912515Y-94298181D01*
X137921384Y-94303908D01*
X137927009Y-94308131D01*
X137945783Y-94324422D01*
X137952863Y-94325448D01*
X137956060Y-94326912D01*
X137956880Y-94327361D01*
X137958850Y-94328100D01*
X137963359Y-94331011D01*
X137963973Y-94331100D01*
X137988248Y-94331100D01*
X137995394Y-94331615D01*
X138012745Y-94334131D01*
X138012746Y-94334131D01*
X138019823Y-94335157D01*
X138020976Y-94334633D01*
X138053701Y-94343035D01*
X138073103Y-94375842D01*
X138073600Y-94382859D01*
X138073600Y-95626300D01*
X138059014Y-95661514D01*
X138023800Y-95676100D01*
X138013952Y-95676100D01*
X138006806Y-95675585D01*
X137989456Y-95673069D01*
X137989455Y-95673069D01*
X137982377Y-95672043D01*
X137975865Y-95675004D01*
X137975863Y-95675004D01*
X137959752Y-95682329D01*
X137953161Y-95684781D01*
X137936175Y-95689764D01*
X137936174Y-95689765D01*
X137929311Y-95691778D01*
X137924623Y-95697180D01*
X137922601Y-95698478D01*
X137920783Y-95700047D01*
X137914272Y-95703008D01*
X137904588Y-95718005D01*
X137900792Y-95723884D01*
X137896569Y-95729509D01*
X137880278Y-95748283D01*
X137879252Y-95755363D01*
X137877788Y-95758560D01*
X137877339Y-95759380D01*
X137876600Y-95761350D01*
X137873689Y-95765859D01*
X137873600Y-95766473D01*
X137873600Y-95790748D01*
X137873085Y-95797894D01*
X137871042Y-95811987D01*
X137869543Y-95822323D01*
X137872504Y-95828835D01*
X137873103Y-95833044D01*
X137873600Y-95840062D01*
X137873600Y-96290748D01*
X137873085Y-96297894D01*
X137869543Y-96322323D01*
X137203200Y-96322323D01*
X137203200Y-93055500D01*
X137217786Y-93020286D01*
X137253000Y-93005700D01*
X159749200Y-93005700D01*
X159784414Y-93020286D01*
G37*
G04 #@! TD.AperFunction*
M02*
