G04 #@! TF.GenerationSoftware,KiCad,Pcbnew,6.0.5-a6ca702e91~116~ubuntu20.04.1*
G04 #@! TF.CreationDate,2022-05-08T17:52:19+03:00*
G04 #@! TF.ProjectId,ict_v361,6963745f-7633-4363-912e-6b696361645f,rev?*
G04 #@! TF.SameCoordinates,Original*
G04 #@! TF.FileFunction,Soldermask,Top*
G04 #@! TF.FilePolarity,Negative*
%FSLAX46Y46*%
G04 Gerber Fmt 4.6, Leading zero omitted, Abs format (unit mm)*
G04 Created by KiCad (PCBNEW 6.0.5-a6ca702e91~116~ubuntu20.04.1) date 2022-05-08 17:52:19*
%MOMM*%
%LPD*%
G01*
G04 APERTURE LIST*
G04 Aperture macros list*
%AMRoundRect*
0 Rectangle with rounded corners*
0 $1 Rounding radius*
0 $2 $3 $4 $5 $6 $7 $8 $9 X,Y pos of 4 corners*
0 Add a 4 corners polygon primitive as box body*
4,1,4,$2,$3,$4,$5,$6,$7,$8,$9,$2,$3,0*
0 Add four circle primitives for the rounded corners*
1,1,$1+$1,$2,$3*
1,1,$1+$1,$4,$5*
1,1,$1+$1,$6,$7*
1,1,$1+$1,$8,$9*
0 Add four rect primitives between the rounded corners*
20,1,$1+$1,$2,$3,$4,$5,0*
20,1,$1+$1,$4,$5,$6,$7,0*
20,1,$1+$1,$6,$7,$8,$9,0*
20,1,$1+$1,$8,$9,$2,$3,0*%
G04 Aperture macros list end*
%ADD10RoundRect,0.063500X-0.635000X0.279400X-0.635000X-0.279400X0.635000X-0.279400X0.635000X0.279400X0*%
%ADD11RoundRect,0.063500X-0.279400X0.635000X-0.279400X-0.635000X0.279400X-0.635000X0.279400X0.635000X0*%
%ADD12RoundRect,0.063500X-0.125000X-0.500000X0.125000X-0.500000X0.125000X0.500000X-0.125000X0.500000X0*%
%ADD13RoundRect,0.063500X0.125000X0.500000X-0.125000X0.500000X-0.125000X-0.500000X0.125000X-0.500000X0*%
%ADD14RoundRect,0.063500X-0.450000X-0.550000X0.450000X-0.550000X0.450000X0.550000X-0.450000X0.550000X0*%
%ADD15RoundRect,0.063500X-0.525000X-0.540000X0.525000X-0.540000X0.525000X0.540000X-0.525000X0.540000X0*%
%ADD16C,2.006600*%
%ADD17RoundRect,0.063500X-0.550000X0.500000X-0.550000X-0.500000X0.550000X-0.500000X0.550000X0.500000X0*%
%ADD18RoundRect,0.063500X0.550000X-0.500000X0.550000X0.500000X-0.550000X0.500000X-0.550000X-0.500000X0*%
%ADD19RoundRect,0.063500X0.200000X0.800000X-0.200000X0.800000X-0.200000X-0.800000X0.200000X-0.800000X0*%
G04 APERTURE END LIST*
G36*
X141901100Y-94303600D02*
G01*
X140901100Y-94303600D01*
X140901100Y-93603600D01*
X141901100Y-93603600D01*
X141901100Y-94303600D01*
G37*
G36*
X140401100Y-94303600D02*
G01*
X139401100Y-94303600D01*
X139401100Y-93603600D01*
X140401100Y-93603600D01*
X140401100Y-94303600D01*
G37*
G36*
X138901100Y-94303600D02*
G01*
X137901100Y-94303600D01*
X137901100Y-93603600D01*
X138901100Y-93603600D01*
X138901100Y-94303600D01*
G37*
G36*
X138901100Y-96403600D02*
G01*
X137901100Y-96403600D01*
X137901100Y-95703600D01*
X138901100Y-95703600D01*
X138901100Y-96403600D01*
G37*
G36*
X140401100Y-96403600D02*
G01*
X139401100Y-96403600D01*
X139401100Y-95703600D01*
X140401100Y-95703600D01*
X140401100Y-96403600D01*
G37*
G36*
X141901100Y-96403600D02*
G01*
X140901100Y-96403600D01*
X140901100Y-95703600D01*
X141901100Y-95703600D01*
X141901100Y-96403600D01*
G37*
G36*
X141901100Y-94303600D02*
G01*
X140901100Y-94303600D01*
X140901100Y-93603600D01*
X141901100Y-93603600D01*
X141901100Y-94303600D01*
G37*
G36*
X140401100Y-94303600D02*
G01*
X139401100Y-94303600D01*
X139401100Y-93603600D01*
X140401100Y-93603600D01*
X140401100Y-94303600D01*
G37*
G36*
X138901100Y-94303600D02*
G01*
X137901100Y-94303600D01*
X137901100Y-93603600D01*
X138901100Y-93603600D01*
X138901100Y-94303600D01*
G37*
G36*
X138901100Y-96403600D02*
G01*
X137901100Y-96403600D01*
X137901100Y-95703600D01*
X138901100Y-95703600D01*
X138901100Y-96403600D01*
G37*
G36*
X140401100Y-96403600D02*
G01*
X139401100Y-96403600D01*
X139401100Y-95703600D01*
X140401100Y-95703600D01*
X140401100Y-96403600D01*
G37*
G36*
X141901100Y-96403600D02*
G01*
X140901100Y-96403600D01*
X140901100Y-95703600D01*
X141901100Y-95703600D01*
X141901100Y-96403600D01*
G37*
D10*
X149793700Y-98603600D03*
X149793700Y-99403600D03*
X149793700Y-100203600D03*
X149793700Y-101003600D03*
X149793700Y-101803600D03*
X149793700Y-102603600D03*
X149793700Y-103403600D03*
X149793700Y-104203600D03*
D11*
X148301100Y-105696200D03*
X147501100Y-105696200D03*
X146701100Y-105696200D03*
X145901100Y-105696200D03*
X145101100Y-105696200D03*
X144301100Y-105696200D03*
X143501100Y-105696200D03*
X142701100Y-105696200D03*
D10*
X141208500Y-104203600D03*
X141208500Y-103403600D03*
X141208500Y-102603600D03*
X141208500Y-101803600D03*
X141208500Y-101003600D03*
X141208500Y-100203600D03*
X141208500Y-99403600D03*
X141208500Y-98603600D03*
D11*
X142701100Y-97111000D03*
X143501100Y-97111000D03*
X144301100Y-97111000D03*
X145101100Y-97111000D03*
X145901100Y-97111000D03*
X146701100Y-97111000D03*
X147501100Y-97111000D03*
X148301100Y-97111000D03*
D12*
X156891000Y-103918300D03*
X156391000Y-103918300D03*
X155891000Y-103918300D03*
X155391000Y-103918300D03*
X154891000Y-103918300D03*
D13*
X154891000Y-99692100D03*
X155391000Y-99692100D03*
X155891000Y-99692100D03*
X156391000Y-99692100D03*
X156891000Y-99692100D03*
D14*
X151101100Y-96003600D03*
X153901100Y-94203600D03*
X153901100Y-96003600D03*
X151101100Y-94203600D03*
D15*
X155176100Y-105803600D03*
X153426100Y-105803600D03*
D16*
X140621100Y-114843600D03*
X140621100Y-112303600D03*
X143161100Y-114843600D03*
X143161100Y-112303600D03*
X145701100Y-114843600D03*
X145701100Y-112303600D03*
D17*
X152701100Y-100553600D03*
X152701100Y-98853600D03*
D18*
X152701100Y-102053600D03*
X152701100Y-103753600D03*
D19*
X138401100Y-95003600D03*
X139901100Y-95003600D03*
X141401100Y-95003600D03*
G36*
X145429998Y-105019854D02*
G01*
X145432525Y-105021542D01*
X145498889Y-105042322D01*
X145569688Y-105021533D01*
X145572202Y-105019854D01*
X145574198Y-105019723D01*
X145575309Y-105021386D01*
X145574976Y-105022628D01*
X145564919Y-105037679D01*
X145560200Y-105061399D01*
X145560200Y-106331001D01*
X145564919Y-106354721D01*
X145574976Y-106369772D01*
X145575107Y-106371768D01*
X145573444Y-106372879D01*
X145572202Y-106372546D01*
X145569675Y-106370858D01*
X145503311Y-106350078D01*
X145432512Y-106370867D01*
X145429998Y-106372546D01*
X145428002Y-106372677D01*
X145426891Y-106371014D01*
X145427224Y-106369772D01*
X145437281Y-106354721D01*
X145442000Y-106331001D01*
X145442000Y-105061399D01*
X145437281Y-105037679D01*
X145427224Y-105022628D01*
X145427093Y-105020632D01*
X145428756Y-105019521D01*
X145429998Y-105019854D01*
G37*
G36*
X143829998Y-105019854D02*
G01*
X143832525Y-105021542D01*
X143898889Y-105042322D01*
X143969688Y-105021533D01*
X143972202Y-105019854D01*
X143974198Y-105019723D01*
X143975309Y-105021386D01*
X143974976Y-105022628D01*
X143964919Y-105037679D01*
X143960200Y-105061399D01*
X143960200Y-106331001D01*
X143964919Y-106354721D01*
X143974976Y-106369772D01*
X143975107Y-106371768D01*
X143973444Y-106372879D01*
X143972202Y-106372546D01*
X143969675Y-106370858D01*
X143903311Y-106350078D01*
X143832512Y-106370867D01*
X143829998Y-106372546D01*
X143828002Y-106372677D01*
X143826891Y-106371014D01*
X143827224Y-106369772D01*
X143837281Y-106354721D01*
X143842000Y-106331001D01*
X143842000Y-105061399D01*
X143837281Y-105037679D01*
X143827224Y-105022628D01*
X143827093Y-105020632D01*
X143828756Y-105019521D01*
X143829998Y-105019854D01*
G37*
G36*
X144629998Y-105019854D02*
G01*
X144632525Y-105021542D01*
X144698889Y-105042322D01*
X144769688Y-105021533D01*
X144772202Y-105019854D01*
X144774198Y-105019723D01*
X144775309Y-105021386D01*
X144774976Y-105022628D01*
X144764919Y-105037679D01*
X144760200Y-105061399D01*
X144760200Y-106331001D01*
X144764919Y-106354721D01*
X144774976Y-106369772D01*
X144775107Y-106371768D01*
X144773444Y-106372879D01*
X144772202Y-106372546D01*
X144769675Y-106370858D01*
X144703311Y-106350078D01*
X144632512Y-106370867D01*
X144629998Y-106372546D01*
X144628002Y-106372677D01*
X144626891Y-106371014D01*
X144627224Y-106369772D01*
X144637281Y-106354721D01*
X144642000Y-106331001D01*
X144642000Y-105061399D01*
X144637281Y-105037679D01*
X144627224Y-105022628D01*
X144627093Y-105020632D01*
X144628756Y-105019521D01*
X144629998Y-105019854D01*
G37*
G36*
X146229998Y-105019854D02*
G01*
X146232525Y-105021542D01*
X146298889Y-105042322D01*
X146369688Y-105021533D01*
X146372202Y-105019854D01*
X146374198Y-105019723D01*
X146375309Y-105021386D01*
X146374976Y-105022628D01*
X146364919Y-105037679D01*
X146360200Y-105061399D01*
X146360200Y-106331001D01*
X146364919Y-106354721D01*
X146374976Y-106369772D01*
X146375107Y-106371768D01*
X146373444Y-106372879D01*
X146372202Y-106372546D01*
X146369675Y-106370858D01*
X146303311Y-106350078D01*
X146232512Y-106370867D01*
X146229998Y-106372546D01*
X146228002Y-106372677D01*
X146226891Y-106371014D01*
X146227224Y-106369772D01*
X146237281Y-106354721D01*
X146242000Y-106331001D01*
X146242000Y-105061399D01*
X146237281Y-105037679D01*
X146227224Y-105022628D01*
X146227093Y-105020632D01*
X146228756Y-105019521D01*
X146229998Y-105019854D01*
G37*
G36*
X147029998Y-105019854D02*
G01*
X147032525Y-105021542D01*
X147098889Y-105042322D01*
X147169688Y-105021533D01*
X147172202Y-105019854D01*
X147174198Y-105019723D01*
X147175309Y-105021386D01*
X147174976Y-105022628D01*
X147164919Y-105037679D01*
X147160200Y-105061399D01*
X147160200Y-106331001D01*
X147164919Y-106354721D01*
X147174976Y-106369772D01*
X147175107Y-106371768D01*
X147173444Y-106372879D01*
X147172202Y-106372546D01*
X147169675Y-106370858D01*
X147103311Y-106350078D01*
X147032512Y-106370867D01*
X147029998Y-106372546D01*
X147028002Y-106372677D01*
X147026891Y-106371014D01*
X147027224Y-106369772D01*
X147037281Y-106354721D01*
X147042000Y-106331001D01*
X147042000Y-105061399D01*
X147037281Y-105037679D01*
X147027224Y-105022628D01*
X147027093Y-105020632D01*
X147028756Y-105019521D01*
X147029998Y-105019854D01*
G37*
G36*
X143029998Y-105019854D02*
G01*
X143032525Y-105021542D01*
X143098889Y-105042322D01*
X143169688Y-105021533D01*
X143172202Y-105019854D01*
X143174198Y-105019723D01*
X143175309Y-105021386D01*
X143174976Y-105022628D01*
X143164919Y-105037679D01*
X143160200Y-105061399D01*
X143160200Y-106331001D01*
X143164919Y-106354721D01*
X143174976Y-106369772D01*
X143175107Y-106371768D01*
X143173444Y-106372879D01*
X143172202Y-106372546D01*
X143169675Y-106370858D01*
X143103311Y-106350078D01*
X143032512Y-106370867D01*
X143029998Y-106372546D01*
X143028002Y-106372677D01*
X143026891Y-106371014D01*
X143027224Y-106369772D01*
X143037281Y-106354721D01*
X143042000Y-106331001D01*
X143042000Y-105061399D01*
X143037281Y-105037679D01*
X143027224Y-105022628D01*
X143027093Y-105020632D01*
X143028756Y-105019521D01*
X143029998Y-105019854D01*
G37*
G36*
X147829998Y-105019854D02*
G01*
X147832525Y-105021542D01*
X147898889Y-105042322D01*
X147969688Y-105021533D01*
X147972202Y-105019854D01*
X147974198Y-105019723D01*
X147975309Y-105021386D01*
X147974976Y-105022628D01*
X147964919Y-105037679D01*
X147960200Y-105061399D01*
X147960200Y-106331001D01*
X147964919Y-106354721D01*
X147974976Y-106369772D01*
X147975107Y-106371768D01*
X147973444Y-106372879D01*
X147972202Y-106372546D01*
X147969675Y-106370858D01*
X147903311Y-106350078D01*
X147832512Y-106370867D01*
X147829998Y-106372546D01*
X147828002Y-106372677D01*
X147826891Y-106371014D01*
X147827224Y-106369772D01*
X147837281Y-106354721D01*
X147842000Y-106331001D01*
X147842000Y-105061399D01*
X147837281Y-105037679D01*
X147827224Y-105022628D01*
X147827093Y-105020632D01*
X147828756Y-105019521D01*
X147829998Y-105019854D01*
G37*
G36*
X155565498Y-103376954D02*
G01*
X155572426Y-103381582D01*
X155638789Y-103402362D01*
X155709588Y-103381573D01*
X155716502Y-103376954D01*
X155718498Y-103376823D01*
X155719609Y-103378486D01*
X155719276Y-103379728D01*
X155709219Y-103394779D01*
X155704500Y-103418499D01*
X155704500Y-104418101D01*
X155709219Y-104441821D01*
X155719276Y-104456872D01*
X155719407Y-104458868D01*
X155717744Y-104459979D01*
X155716502Y-104459646D01*
X155709574Y-104455018D01*
X155643211Y-104434238D01*
X155572412Y-104455027D01*
X155565498Y-104459646D01*
X155563502Y-104459777D01*
X155562391Y-104458114D01*
X155562724Y-104456872D01*
X155572781Y-104441821D01*
X155577500Y-104418101D01*
X155577500Y-103418499D01*
X155572781Y-103394779D01*
X155562724Y-103379728D01*
X155562593Y-103377732D01*
X155564256Y-103376621D01*
X155565498Y-103376954D01*
G37*
G36*
X156565498Y-103376954D02*
G01*
X156572426Y-103381582D01*
X156638789Y-103402362D01*
X156709588Y-103381573D01*
X156716502Y-103376954D01*
X156718498Y-103376823D01*
X156719609Y-103378486D01*
X156719276Y-103379728D01*
X156709219Y-103394779D01*
X156704500Y-103418499D01*
X156704500Y-104418101D01*
X156709219Y-104441821D01*
X156719276Y-104456872D01*
X156719407Y-104458868D01*
X156717744Y-104459979D01*
X156716502Y-104459646D01*
X156709574Y-104455018D01*
X156643211Y-104434238D01*
X156572412Y-104455027D01*
X156565498Y-104459646D01*
X156563502Y-104459777D01*
X156562391Y-104458114D01*
X156562724Y-104456872D01*
X156572781Y-104441821D01*
X156577500Y-104418101D01*
X156577500Y-103418499D01*
X156572781Y-103394779D01*
X156562724Y-103379728D01*
X156562593Y-103377732D01*
X156564256Y-103376621D01*
X156565498Y-103376954D01*
G37*
G36*
X155065498Y-103376954D02*
G01*
X155072426Y-103381582D01*
X155138789Y-103402362D01*
X155209588Y-103381573D01*
X155216502Y-103376954D01*
X155218498Y-103376823D01*
X155219609Y-103378486D01*
X155219276Y-103379728D01*
X155209219Y-103394779D01*
X155204500Y-103418499D01*
X155204500Y-104418101D01*
X155209219Y-104441821D01*
X155219276Y-104456872D01*
X155219407Y-104458868D01*
X155217744Y-104459979D01*
X155216502Y-104459646D01*
X155209574Y-104455018D01*
X155143211Y-104434238D01*
X155072412Y-104455027D01*
X155065498Y-104459646D01*
X155063502Y-104459777D01*
X155062391Y-104458114D01*
X155062724Y-104456872D01*
X155072781Y-104441821D01*
X155077500Y-104418101D01*
X155077500Y-103418499D01*
X155072781Y-103394779D01*
X155062724Y-103379728D01*
X155062593Y-103377732D01*
X155064256Y-103376621D01*
X155065498Y-103376954D01*
G37*
G36*
X156065498Y-103376954D02*
G01*
X156072426Y-103381582D01*
X156138789Y-103402362D01*
X156209588Y-103381573D01*
X156216502Y-103376954D01*
X156218498Y-103376823D01*
X156219609Y-103378486D01*
X156219276Y-103379728D01*
X156209219Y-103394779D01*
X156204500Y-103418499D01*
X156204500Y-104418101D01*
X156209219Y-104441821D01*
X156219276Y-104456872D01*
X156219407Y-104458868D01*
X156217744Y-104459979D01*
X156216502Y-104459646D01*
X156209574Y-104455018D01*
X156143211Y-104434238D01*
X156072412Y-104455027D01*
X156065498Y-104459646D01*
X156063502Y-104459777D01*
X156062391Y-104458114D01*
X156062724Y-104456872D01*
X156072781Y-104441821D01*
X156077500Y-104418101D01*
X156077500Y-103418499D01*
X156072781Y-103394779D01*
X156062724Y-103379728D01*
X156062593Y-103377732D01*
X156064256Y-103376621D01*
X156065498Y-103376954D01*
G37*
G36*
X140534928Y-103729724D02*
G01*
X140549979Y-103739781D01*
X140573699Y-103744500D01*
X141843301Y-103744500D01*
X141867021Y-103739781D01*
X141882072Y-103729724D01*
X141884068Y-103729593D01*
X141885179Y-103731256D01*
X141884846Y-103732498D01*
X141883158Y-103735025D01*
X141862378Y-103801389D01*
X141883167Y-103872188D01*
X141884846Y-103874702D01*
X141884977Y-103876698D01*
X141883314Y-103877809D01*
X141882072Y-103877476D01*
X141867021Y-103867419D01*
X141843301Y-103862700D01*
X140573699Y-103862700D01*
X140549979Y-103867419D01*
X140534928Y-103877476D01*
X140532932Y-103877607D01*
X140531821Y-103875944D01*
X140532154Y-103874702D01*
X140533842Y-103872175D01*
X140554622Y-103805811D01*
X140533833Y-103735012D01*
X140532154Y-103732498D01*
X140532023Y-103730502D01*
X140533686Y-103729391D01*
X140534928Y-103729724D01*
G37*
G36*
X149120128Y-103729724D02*
G01*
X149135179Y-103739781D01*
X149158899Y-103744500D01*
X150428501Y-103744500D01*
X150452221Y-103739781D01*
X150467272Y-103729724D01*
X150469268Y-103729593D01*
X150470379Y-103731256D01*
X150470046Y-103732498D01*
X150468358Y-103735025D01*
X150447578Y-103801389D01*
X150468367Y-103872188D01*
X150470046Y-103874702D01*
X150470177Y-103876698D01*
X150468514Y-103877809D01*
X150467272Y-103877476D01*
X150452221Y-103867419D01*
X150428501Y-103862700D01*
X149158899Y-103862700D01*
X149135179Y-103867419D01*
X149120128Y-103877476D01*
X149118132Y-103877607D01*
X149117021Y-103875944D01*
X149117354Y-103874702D01*
X149119042Y-103872175D01*
X149139822Y-103805811D01*
X149119033Y-103735012D01*
X149117354Y-103732498D01*
X149117223Y-103730502D01*
X149118886Y-103729391D01*
X149120128Y-103729724D01*
G37*
G36*
X140534928Y-102929724D02*
G01*
X140549979Y-102939781D01*
X140573699Y-102944500D01*
X141843301Y-102944500D01*
X141867021Y-102939781D01*
X141882072Y-102929724D01*
X141884068Y-102929593D01*
X141885179Y-102931256D01*
X141884846Y-102932498D01*
X141883158Y-102935025D01*
X141862378Y-103001389D01*
X141883167Y-103072188D01*
X141884846Y-103074702D01*
X141884977Y-103076698D01*
X141883314Y-103077809D01*
X141882072Y-103077476D01*
X141867021Y-103067419D01*
X141843301Y-103062700D01*
X140573699Y-103062700D01*
X140549979Y-103067419D01*
X140534928Y-103077476D01*
X140532932Y-103077607D01*
X140531821Y-103075944D01*
X140532154Y-103074702D01*
X140533842Y-103072175D01*
X140554622Y-103005811D01*
X140533833Y-102935012D01*
X140532154Y-102932498D01*
X140532023Y-102930502D01*
X140533686Y-102929391D01*
X140534928Y-102929724D01*
G37*
G36*
X149120128Y-102929724D02*
G01*
X149135179Y-102939781D01*
X149158899Y-102944500D01*
X150428501Y-102944500D01*
X150452221Y-102939781D01*
X150467272Y-102929724D01*
X150469268Y-102929593D01*
X150470379Y-102931256D01*
X150470046Y-102932498D01*
X150468358Y-102935025D01*
X150447578Y-103001389D01*
X150468367Y-103072188D01*
X150470046Y-103074702D01*
X150470177Y-103076698D01*
X150468514Y-103077809D01*
X150467272Y-103077476D01*
X150452221Y-103067419D01*
X150428501Y-103062700D01*
X149158899Y-103062700D01*
X149135179Y-103067419D01*
X149120128Y-103077476D01*
X149118132Y-103077607D01*
X149117021Y-103075944D01*
X149117354Y-103074702D01*
X149119042Y-103072175D01*
X149139822Y-103005811D01*
X149119033Y-102935012D01*
X149117354Y-102932498D01*
X149117223Y-102930502D01*
X149118886Y-102929391D01*
X149120128Y-102929724D01*
G37*
G36*
X149120128Y-102129724D02*
G01*
X149135179Y-102139781D01*
X149158899Y-102144500D01*
X150428501Y-102144500D01*
X150452221Y-102139781D01*
X150467272Y-102129724D01*
X150469268Y-102129593D01*
X150470379Y-102131256D01*
X150470046Y-102132498D01*
X150468358Y-102135025D01*
X150447578Y-102201389D01*
X150468367Y-102272188D01*
X150470046Y-102274702D01*
X150470177Y-102276698D01*
X150468514Y-102277809D01*
X150467272Y-102277476D01*
X150452221Y-102267419D01*
X150428501Y-102262700D01*
X149158899Y-102262700D01*
X149135179Y-102267419D01*
X149120128Y-102277476D01*
X149118132Y-102277607D01*
X149117021Y-102275944D01*
X149117354Y-102274702D01*
X149119042Y-102272175D01*
X149139822Y-102205811D01*
X149119033Y-102135012D01*
X149117354Y-102132498D01*
X149117223Y-102130502D01*
X149118886Y-102129391D01*
X149120128Y-102129724D01*
G37*
G36*
X140534928Y-102129724D02*
G01*
X140549979Y-102139781D01*
X140573699Y-102144500D01*
X141843301Y-102144500D01*
X141867021Y-102139781D01*
X141882072Y-102129724D01*
X141884068Y-102129593D01*
X141885179Y-102131256D01*
X141884846Y-102132498D01*
X141883158Y-102135025D01*
X141862378Y-102201389D01*
X141883167Y-102272188D01*
X141884846Y-102274702D01*
X141884977Y-102276698D01*
X141883314Y-102277809D01*
X141882072Y-102277476D01*
X141867021Y-102267419D01*
X141843301Y-102262700D01*
X140573699Y-102262700D01*
X140549979Y-102267419D01*
X140534928Y-102277476D01*
X140532932Y-102277607D01*
X140531821Y-102275944D01*
X140532154Y-102274702D01*
X140533842Y-102272175D01*
X140554622Y-102205811D01*
X140533833Y-102135012D01*
X140532154Y-102132498D01*
X140532023Y-102130502D01*
X140533686Y-102129391D01*
X140534928Y-102129724D01*
G37*
G36*
X149120128Y-101329724D02*
G01*
X149135179Y-101339781D01*
X149158899Y-101344500D01*
X150428501Y-101344500D01*
X150452221Y-101339781D01*
X150467272Y-101329724D01*
X150469268Y-101329593D01*
X150470379Y-101331256D01*
X150470046Y-101332498D01*
X150468358Y-101335025D01*
X150447578Y-101401389D01*
X150468367Y-101472188D01*
X150470046Y-101474702D01*
X150470177Y-101476698D01*
X150468514Y-101477809D01*
X150467272Y-101477476D01*
X150452221Y-101467419D01*
X150428501Y-101462700D01*
X149158899Y-101462700D01*
X149135179Y-101467419D01*
X149120128Y-101477476D01*
X149118132Y-101477607D01*
X149117021Y-101475944D01*
X149117354Y-101474702D01*
X149119042Y-101472175D01*
X149139822Y-101405811D01*
X149119033Y-101335012D01*
X149117354Y-101332498D01*
X149117223Y-101330502D01*
X149118886Y-101329391D01*
X149120128Y-101329724D01*
G37*
G36*
X140534928Y-101329724D02*
G01*
X140549979Y-101339781D01*
X140573699Y-101344500D01*
X141843301Y-101344500D01*
X141867021Y-101339781D01*
X141882072Y-101329724D01*
X141884068Y-101329593D01*
X141885179Y-101331256D01*
X141884846Y-101332498D01*
X141883158Y-101335025D01*
X141862378Y-101401389D01*
X141883167Y-101472188D01*
X141884846Y-101474702D01*
X141884977Y-101476698D01*
X141883314Y-101477809D01*
X141882072Y-101477476D01*
X141867021Y-101467419D01*
X141843301Y-101462700D01*
X140573699Y-101462700D01*
X140549979Y-101467419D01*
X140534928Y-101477476D01*
X140532932Y-101477607D01*
X140531821Y-101475944D01*
X140532154Y-101474702D01*
X140533842Y-101472175D01*
X140554622Y-101405811D01*
X140533833Y-101335012D01*
X140532154Y-101332498D01*
X140532023Y-101330502D01*
X140533686Y-101329391D01*
X140534928Y-101329724D01*
G37*
G36*
X140534928Y-100529724D02*
G01*
X140549979Y-100539781D01*
X140573699Y-100544500D01*
X141843301Y-100544500D01*
X141867021Y-100539781D01*
X141882072Y-100529724D01*
X141884068Y-100529593D01*
X141885179Y-100531256D01*
X141884846Y-100532498D01*
X141883158Y-100535025D01*
X141862378Y-100601389D01*
X141883167Y-100672188D01*
X141884846Y-100674702D01*
X141884977Y-100676698D01*
X141883314Y-100677809D01*
X141882072Y-100677476D01*
X141867021Y-100667419D01*
X141843301Y-100662700D01*
X140573699Y-100662700D01*
X140549979Y-100667419D01*
X140534928Y-100677476D01*
X140532932Y-100677607D01*
X140531821Y-100675944D01*
X140532154Y-100674702D01*
X140533842Y-100672175D01*
X140554622Y-100605811D01*
X140533833Y-100535012D01*
X140532154Y-100532498D01*
X140532023Y-100530502D01*
X140533686Y-100529391D01*
X140534928Y-100529724D01*
G37*
G36*
X149120128Y-100529724D02*
G01*
X149135179Y-100539781D01*
X149158899Y-100544500D01*
X150428501Y-100544500D01*
X150452221Y-100539781D01*
X150467272Y-100529724D01*
X150469268Y-100529593D01*
X150470379Y-100531256D01*
X150470046Y-100532498D01*
X150468358Y-100535025D01*
X150447578Y-100601389D01*
X150468367Y-100672188D01*
X150470046Y-100674702D01*
X150470177Y-100676698D01*
X150468514Y-100677809D01*
X150467272Y-100677476D01*
X150452221Y-100667419D01*
X150428501Y-100662700D01*
X149158899Y-100662700D01*
X149135179Y-100667419D01*
X149120128Y-100677476D01*
X149118132Y-100677607D01*
X149117021Y-100675944D01*
X149117354Y-100674702D01*
X149119042Y-100672175D01*
X149139822Y-100605811D01*
X149119033Y-100535012D01*
X149117354Y-100532498D01*
X149117223Y-100530502D01*
X149118886Y-100529391D01*
X149120128Y-100529724D01*
G37*
G36*
X156565498Y-99150754D02*
G01*
X156572426Y-99155382D01*
X156638789Y-99176162D01*
X156709588Y-99155373D01*
X156716502Y-99150754D01*
X156718498Y-99150623D01*
X156719609Y-99152286D01*
X156719276Y-99153528D01*
X156709219Y-99168579D01*
X156704500Y-99192299D01*
X156704500Y-100191901D01*
X156709219Y-100215621D01*
X156719276Y-100230672D01*
X156719407Y-100232668D01*
X156717744Y-100233779D01*
X156716502Y-100233446D01*
X156709574Y-100228818D01*
X156643211Y-100208038D01*
X156572412Y-100228827D01*
X156565498Y-100233446D01*
X156563502Y-100233577D01*
X156562391Y-100231914D01*
X156562724Y-100230672D01*
X156572781Y-100215621D01*
X156577500Y-100191901D01*
X156577500Y-99192299D01*
X156572781Y-99168579D01*
X156562724Y-99153528D01*
X156562593Y-99151532D01*
X156564256Y-99150421D01*
X156565498Y-99150754D01*
G37*
G36*
X155565498Y-99150754D02*
G01*
X155572426Y-99155382D01*
X155638789Y-99176162D01*
X155709588Y-99155373D01*
X155716502Y-99150754D01*
X155718498Y-99150623D01*
X155719609Y-99152286D01*
X155719276Y-99153528D01*
X155709219Y-99168579D01*
X155704500Y-99192299D01*
X155704500Y-100191901D01*
X155709219Y-100215621D01*
X155719276Y-100230672D01*
X155719407Y-100232668D01*
X155717744Y-100233779D01*
X155716502Y-100233446D01*
X155709574Y-100228818D01*
X155643211Y-100208038D01*
X155572412Y-100228827D01*
X155565498Y-100233446D01*
X155563502Y-100233577D01*
X155562391Y-100231914D01*
X155562724Y-100230672D01*
X155572781Y-100215621D01*
X155577500Y-100191901D01*
X155577500Y-99192299D01*
X155572781Y-99168579D01*
X155562724Y-99153528D01*
X155562593Y-99151532D01*
X155564256Y-99150421D01*
X155565498Y-99150754D01*
G37*
G36*
X156065498Y-99150754D02*
G01*
X156072426Y-99155382D01*
X156138789Y-99176162D01*
X156209588Y-99155373D01*
X156216502Y-99150754D01*
X156218498Y-99150623D01*
X156219609Y-99152286D01*
X156219276Y-99153528D01*
X156209219Y-99168579D01*
X156204500Y-99192299D01*
X156204500Y-100191901D01*
X156209219Y-100215621D01*
X156219276Y-100230672D01*
X156219407Y-100232668D01*
X156217744Y-100233779D01*
X156216502Y-100233446D01*
X156209574Y-100228818D01*
X156143211Y-100208038D01*
X156072412Y-100228827D01*
X156065498Y-100233446D01*
X156063502Y-100233577D01*
X156062391Y-100231914D01*
X156062724Y-100230672D01*
X156072781Y-100215621D01*
X156077500Y-100191901D01*
X156077500Y-99192299D01*
X156072781Y-99168579D01*
X156062724Y-99153528D01*
X156062593Y-99151532D01*
X156064256Y-99150421D01*
X156065498Y-99150754D01*
G37*
G36*
X155065498Y-99150754D02*
G01*
X155072426Y-99155382D01*
X155138789Y-99176162D01*
X155209588Y-99155373D01*
X155216502Y-99150754D01*
X155218498Y-99150623D01*
X155219609Y-99152286D01*
X155219276Y-99153528D01*
X155209219Y-99168579D01*
X155204500Y-99192299D01*
X155204500Y-100191901D01*
X155209219Y-100215621D01*
X155219276Y-100230672D01*
X155219407Y-100232668D01*
X155217744Y-100233779D01*
X155216502Y-100233446D01*
X155209574Y-100228818D01*
X155143211Y-100208038D01*
X155072412Y-100228827D01*
X155065498Y-100233446D01*
X155063502Y-100233577D01*
X155062391Y-100231914D01*
X155062724Y-100230672D01*
X155072781Y-100215621D01*
X155077500Y-100191901D01*
X155077500Y-99192299D01*
X155072781Y-99168579D01*
X155062724Y-99153528D01*
X155062593Y-99151532D01*
X155064256Y-99150421D01*
X155065498Y-99150754D01*
G37*
G36*
X140534928Y-99729724D02*
G01*
X140549979Y-99739781D01*
X140573699Y-99744500D01*
X141843301Y-99744500D01*
X141867021Y-99739781D01*
X141882072Y-99729724D01*
X141884068Y-99729593D01*
X141885179Y-99731256D01*
X141884846Y-99732498D01*
X141883158Y-99735025D01*
X141862378Y-99801389D01*
X141883167Y-99872188D01*
X141884846Y-99874702D01*
X141884977Y-99876698D01*
X141883314Y-99877809D01*
X141882072Y-99877476D01*
X141867021Y-99867419D01*
X141843301Y-99862700D01*
X140573699Y-99862700D01*
X140549979Y-99867419D01*
X140534928Y-99877476D01*
X140532932Y-99877607D01*
X140531821Y-99875944D01*
X140532154Y-99874702D01*
X140533842Y-99872175D01*
X140554622Y-99805811D01*
X140533833Y-99735012D01*
X140532154Y-99732498D01*
X140532023Y-99730502D01*
X140533686Y-99729391D01*
X140534928Y-99729724D01*
G37*
G36*
X149120128Y-99729724D02*
G01*
X149135179Y-99739781D01*
X149158899Y-99744500D01*
X150428501Y-99744500D01*
X150452221Y-99739781D01*
X150467272Y-99729724D01*
X150469268Y-99729593D01*
X150470379Y-99731256D01*
X150470046Y-99732498D01*
X150468358Y-99735025D01*
X150447578Y-99801389D01*
X150468367Y-99872188D01*
X150470046Y-99874702D01*
X150470177Y-99876698D01*
X150468514Y-99877809D01*
X150467272Y-99877476D01*
X150452221Y-99867419D01*
X150428501Y-99862700D01*
X149158899Y-99862700D01*
X149135179Y-99867419D01*
X149120128Y-99877476D01*
X149118132Y-99877607D01*
X149117021Y-99875944D01*
X149117354Y-99874702D01*
X149119042Y-99872175D01*
X149139822Y-99805811D01*
X149119033Y-99735012D01*
X149117354Y-99732498D01*
X149117223Y-99730502D01*
X149118886Y-99729391D01*
X149120128Y-99729724D01*
G37*
G36*
X140534928Y-98929724D02*
G01*
X140549979Y-98939781D01*
X140573699Y-98944500D01*
X141843301Y-98944500D01*
X141867021Y-98939781D01*
X141882072Y-98929724D01*
X141884068Y-98929593D01*
X141885179Y-98931256D01*
X141884846Y-98932498D01*
X141883158Y-98935025D01*
X141862378Y-99001389D01*
X141883167Y-99072188D01*
X141884846Y-99074702D01*
X141884977Y-99076698D01*
X141883314Y-99077809D01*
X141882072Y-99077476D01*
X141867021Y-99067419D01*
X141843301Y-99062700D01*
X140573699Y-99062700D01*
X140549979Y-99067419D01*
X140534928Y-99077476D01*
X140532932Y-99077607D01*
X140531821Y-99075944D01*
X140532154Y-99074702D01*
X140533842Y-99072175D01*
X140554622Y-99005811D01*
X140533833Y-98935012D01*
X140532154Y-98932498D01*
X140532023Y-98930502D01*
X140533686Y-98929391D01*
X140534928Y-98929724D01*
G37*
G36*
X149120128Y-98929724D02*
G01*
X149135179Y-98939781D01*
X149158899Y-98944500D01*
X150428501Y-98944500D01*
X150452221Y-98939781D01*
X150467272Y-98929724D01*
X150469268Y-98929593D01*
X150470379Y-98931256D01*
X150470046Y-98932498D01*
X150468358Y-98935025D01*
X150447578Y-99001389D01*
X150468367Y-99072188D01*
X150470046Y-99074702D01*
X150470177Y-99076698D01*
X150468514Y-99077809D01*
X150467272Y-99077476D01*
X150452221Y-99067419D01*
X150428501Y-99062700D01*
X149158899Y-99062700D01*
X149135179Y-99067419D01*
X149120128Y-99077476D01*
X149118132Y-99077607D01*
X149117021Y-99075944D01*
X149117354Y-99074702D01*
X149119042Y-99072175D01*
X149139822Y-99005811D01*
X149119033Y-98935012D01*
X149117354Y-98932498D01*
X149117223Y-98930502D01*
X149118886Y-98929391D01*
X149120128Y-98929724D01*
G37*
G36*
X147029998Y-96434654D02*
G01*
X147032525Y-96436342D01*
X147098889Y-96457122D01*
X147169688Y-96436333D01*
X147172202Y-96434654D01*
X147174198Y-96434523D01*
X147175309Y-96436186D01*
X147174976Y-96437428D01*
X147164919Y-96452479D01*
X147160200Y-96476199D01*
X147160200Y-97745801D01*
X147164919Y-97769521D01*
X147174976Y-97784572D01*
X147175107Y-97786568D01*
X147173444Y-97787679D01*
X147172202Y-97787346D01*
X147169675Y-97785658D01*
X147103311Y-97764878D01*
X147032512Y-97785667D01*
X147029998Y-97787346D01*
X147028002Y-97787477D01*
X147026891Y-97785814D01*
X147027224Y-97784572D01*
X147037281Y-97769521D01*
X147042000Y-97745801D01*
X147042000Y-96476199D01*
X147037281Y-96452479D01*
X147027224Y-96437428D01*
X147027093Y-96435432D01*
X147028756Y-96434321D01*
X147029998Y-96434654D01*
G37*
G36*
X143829998Y-96434654D02*
G01*
X143832525Y-96436342D01*
X143898889Y-96457122D01*
X143969688Y-96436333D01*
X143972202Y-96434654D01*
X143974198Y-96434523D01*
X143975309Y-96436186D01*
X143974976Y-96437428D01*
X143964919Y-96452479D01*
X143960200Y-96476199D01*
X143960200Y-97745801D01*
X143964919Y-97769521D01*
X143974976Y-97784572D01*
X143975107Y-97786568D01*
X143973444Y-97787679D01*
X143972202Y-97787346D01*
X143969675Y-97785658D01*
X143903311Y-97764878D01*
X143832512Y-97785667D01*
X143829998Y-97787346D01*
X143828002Y-97787477D01*
X143826891Y-97785814D01*
X143827224Y-97784572D01*
X143837281Y-97769521D01*
X143842000Y-97745801D01*
X143842000Y-96476199D01*
X143837281Y-96452479D01*
X143827224Y-96437428D01*
X143827093Y-96435432D01*
X143828756Y-96434321D01*
X143829998Y-96434654D01*
G37*
G36*
X144629998Y-96434654D02*
G01*
X144632525Y-96436342D01*
X144698889Y-96457122D01*
X144769688Y-96436333D01*
X144772202Y-96434654D01*
X144774198Y-96434523D01*
X144775309Y-96436186D01*
X144774976Y-96437428D01*
X144764919Y-96452479D01*
X144760200Y-96476199D01*
X144760200Y-97745801D01*
X144764919Y-97769521D01*
X144774976Y-97784572D01*
X144775107Y-97786568D01*
X144773444Y-97787679D01*
X144772202Y-97787346D01*
X144769675Y-97785658D01*
X144703311Y-97764878D01*
X144632512Y-97785667D01*
X144629998Y-97787346D01*
X144628002Y-97787477D01*
X144626891Y-97785814D01*
X144627224Y-97784572D01*
X144637281Y-97769521D01*
X144642000Y-97745801D01*
X144642000Y-96476199D01*
X144637281Y-96452479D01*
X144627224Y-96437428D01*
X144627093Y-96435432D01*
X144628756Y-96434321D01*
X144629998Y-96434654D01*
G37*
G36*
X147829998Y-96434654D02*
G01*
X147832525Y-96436342D01*
X147898889Y-96457122D01*
X147969688Y-96436333D01*
X147972202Y-96434654D01*
X147974198Y-96434523D01*
X147975309Y-96436186D01*
X147974976Y-96437428D01*
X147964919Y-96452479D01*
X147960200Y-96476199D01*
X147960200Y-97745801D01*
X147964919Y-97769521D01*
X147974976Y-97784572D01*
X147975107Y-97786568D01*
X147973444Y-97787679D01*
X147972202Y-97787346D01*
X147969675Y-97785658D01*
X147903311Y-97764878D01*
X147832512Y-97785667D01*
X147829998Y-97787346D01*
X147828002Y-97787477D01*
X147826891Y-97785814D01*
X147827224Y-97784572D01*
X147837281Y-97769521D01*
X147842000Y-97745801D01*
X147842000Y-96476199D01*
X147837281Y-96452479D01*
X147827224Y-96437428D01*
X147827093Y-96435432D01*
X147828756Y-96434321D01*
X147829998Y-96434654D01*
G37*
G36*
X146229998Y-96434654D02*
G01*
X146232525Y-96436342D01*
X146298889Y-96457122D01*
X146369688Y-96436333D01*
X146372202Y-96434654D01*
X146374198Y-96434523D01*
X146375309Y-96436186D01*
X146374976Y-96437428D01*
X146364919Y-96452479D01*
X146360200Y-96476199D01*
X146360200Y-97745801D01*
X146364919Y-97769521D01*
X146374976Y-97784572D01*
X146375107Y-97786568D01*
X146373444Y-97787679D01*
X146372202Y-97787346D01*
X146369675Y-97785658D01*
X146303311Y-97764878D01*
X146232512Y-97785667D01*
X146229998Y-97787346D01*
X146228002Y-97787477D01*
X146226891Y-97785814D01*
X146227224Y-97784572D01*
X146237281Y-97769521D01*
X146242000Y-97745801D01*
X146242000Y-96476199D01*
X146237281Y-96452479D01*
X146227224Y-96437428D01*
X146227093Y-96435432D01*
X146228756Y-96434321D01*
X146229998Y-96434654D01*
G37*
G36*
X143029998Y-96434654D02*
G01*
X143032525Y-96436342D01*
X143098889Y-96457122D01*
X143169688Y-96436333D01*
X143172202Y-96434654D01*
X143174198Y-96434523D01*
X143175309Y-96436186D01*
X143174976Y-96437428D01*
X143164919Y-96452479D01*
X143160200Y-96476199D01*
X143160200Y-97745801D01*
X143164919Y-97769521D01*
X143174976Y-97784572D01*
X143175107Y-97786568D01*
X143173444Y-97787679D01*
X143172202Y-97787346D01*
X143169675Y-97785658D01*
X143103311Y-97764878D01*
X143032512Y-97785667D01*
X143029998Y-97787346D01*
X143028002Y-97787477D01*
X143026891Y-97785814D01*
X143027224Y-97784572D01*
X143037281Y-97769521D01*
X143042000Y-97745801D01*
X143042000Y-96476199D01*
X143037281Y-96452479D01*
X143027224Y-96437428D01*
X143027093Y-96435432D01*
X143028756Y-96434321D01*
X143029998Y-96434654D01*
G37*
G36*
X145429998Y-96434654D02*
G01*
X145432525Y-96436342D01*
X145498889Y-96457122D01*
X145569688Y-96436333D01*
X145572202Y-96434654D01*
X145574198Y-96434523D01*
X145575309Y-96436186D01*
X145574976Y-96437428D01*
X145564919Y-96452479D01*
X145560200Y-96476199D01*
X145560200Y-97745801D01*
X145564919Y-97769521D01*
X145574976Y-97784572D01*
X145575107Y-97786568D01*
X145573444Y-97787679D01*
X145572202Y-97787346D01*
X145569675Y-97785658D01*
X145503311Y-97764878D01*
X145432512Y-97785667D01*
X145429998Y-97787346D01*
X145428002Y-97787477D01*
X145426891Y-97785814D01*
X145427224Y-97784572D01*
X145437281Y-97769521D01*
X145442000Y-97745801D01*
X145442000Y-96476199D01*
X145437281Y-96452479D01*
X145427224Y-96437428D01*
X145427093Y-96435432D01*
X145428756Y-96434321D01*
X145429998Y-96434654D01*
G37*
M02*
