G04 #@! TF.GenerationSoftware,KiCad,Pcbnew,6.0.5-a6ca702e91~116~ubuntu20.04.1*
G04 #@! TF.CreationDate,2022-05-08T17:52:19+03:00*
G04 #@! TF.ProjectId,ict_v361,6963745f-7633-4363-912e-6b696361645f,rev?*
G04 #@! TF.SameCoordinates,Original*
G04 #@! TF.FileFunction,Soldermask,Bot*
G04 #@! TF.FilePolarity,Negative*
%FSLAX46Y46*%
G04 Gerber Fmt 4.6, Leading zero omitted, Abs format (unit mm)*
G04 Created by KiCad (PCBNEW 6.0.5-a6ca702e91~116~ubuntu20.04.1) date 2022-05-08 17:52:19*
%MOMM*%
%LPD*%
G01*
G04 APERTURE LIST*
G04 Aperture macros list*
%AMRoundRect*
0 Rectangle with rounded corners*
0 $1 Rounding radius*
0 $2 $3 $4 $5 $6 $7 $8 $9 X,Y pos of 4 corners*
0 Add a 4 corners polygon primitive as box body*
4,1,4,$2,$3,$4,$5,$6,$7,$8,$9,$2,$3,0*
0 Add four circle primitives for the rounded corners*
1,1,$1+$1,$2,$3*
1,1,$1+$1,$4,$5*
1,1,$1+$1,$6,$7*
1,1,$1+$1,$8,$9*
0 Add four rect primitives between the rounded corners*
20,1,$1+$1,$2,$3,$4,$5,0*
20,1,$1+$1,$4,$5,$6,$7,0*
20,1,$1+$1,$6,$7,$8,$9,0*
20,1,$1+$1,$8,$9,$2,$3,0*%
G04 Aperture macros list end*
%ADD10C,2.006600*%
%ADD11RoundRect,0.063500X-0.900000X-0.350000X0.900000X-0.350000X0.900000X0.350000X-0.900000X0.350000X0*%
%ADD12RoundRect,0.063500X-0.900000X-0.400000X0.900000X-0.400000X0.900000X0.400000X-0.900000X0.400000X0*%
G04 APERTURE END LIST*
D10*
X140621100Y-114843600D03*
X140621100Y-112303600D03*
X143161100Y-114843600D03*
X143161100Y-112303600D03*
X145701100Y-114843600D03*
X145701100Y-112303600D03*
D11*
X150151100Y-106003600D03*
X150151100Y-97303600D03*
D12*
X150151100Y-98353600D03*
X150151100Y-99453600D03*
X150151100Y-100553600D03*
X150151100Y-101653600D03*
X150151100Y-102753600D03*
X150151100Y-103853600D03*
X150151100Y-104953600D03*
D11*
X140651100Y-106003600D03*
D12*
X140651100Y-103853600D03*
X140651100Y-104953600D03*
G36*
X141586464Y-105406076D02*
G01*
X141586003Y-105407490D01*
X141546678Y-105454545D01*
X141538046Y-105523260D01*
X141568010Y-105585890D01*
X141576702Y-105593420D01*
X141577356Y-105595310D01*
X141576046Y-105596822D01*
X141575002Y-105596894D01*
X141550901Y-105592100D01*
X139751299Y-105592100D01*
X139727579Y-105596819D01*
X139718843Y-105602656D01*
X139716847Y-105602787D01*
X139715736Y-105601124D01*
X139716197Y-105599710D01*
X139755522Y-105552655D01*
X139764154Y-105483940D01*
X139734190Y-105421310D01*
X139725498Y-105413780D01*
X139724844Y-105411890D01*
X139726154Y-105410378D01*
X139727198Y-105410306D01*
X139751299Y-105415100D01*
X141550901Y-105415100D01*
X141574621Y-105410381D01*
X141583357Y-105404544D01*
X141585353Y-105404413D01*
X141586464Y-105406076D01*
G37*
G36*
X151086464Y-105406076D02*
G01*
X151086003Y-105407490D01*
X151046678Y-105454545D01*
X151038046Y-105523260D01*
X151068010Y-105585890D01*
X151076702Y-105593420D01*
X151077356Y-105595310D01*
X151076046Y-105596822D01*
X151075002Y-105596894D01*
X151050901Y-105592100D01*
X149251299Y-105592100D01*
X149227579Y-105596819D01*
X149218843Y-105602656D01*
X149216847Y-105602787D01*
X149215736Y-105601124D01*
X149216197Y-105599710D01*
X149255522Y-105552655D01*
X149264154Y-105483940D01*
X149234190Y-105421310D01*
X149225498Y-105413780D01*
X149224844Y-105411890D01*
X149226154Y-105410378D01*
X149227198Y-105410306D01*
X149251299Y-105415100D01*
X151050901Y-105415100D01*
X151074621Y-105410381D01*
X151083357Y-105404544D01*
X151085353Y-105404413D01*
X151086464Y-105406076D01*
G37*
G36*
X141586464Y-104306076D02*
G01*
X141586003Y-104307490D01*
X141546678Y-104354545D01*
X141538046Y-104423260D01*
X141568010Y-104485890D01*
X141576702Y-104493420D01*
X141577356Y-104495310D01*
X141576046Y-104496822D01*
X141575002Y-104496894D01*
X141550901Y-104492100D01*
X139751299Y-104492100D01*
X139727579Y-104496819D01*
X139718843Y-104502656D01*
X139716847Y-104502787D01*
X139715736Y-104501124D01*
X139716197Y-104499710D01*
X139755522Y-104452655D01*
X139764154Y-104383940D01*
X139734190Y-104321310D01*
X139725498Y-104313780D01*
X139724844Y-104311890D01*
X139726154Y-104310378D01*
X139727198Y-104310306D01*
X139751299Y-104315100D01*
X141550901Y-104315100D01*
X141574621Y-104310381D01*
X141583357Y-104304544D01*
X141585353Y-104304413D01*
X141586464Y-104306076D01*
G37*
G36*
X151086464Y-104306076D02*
G01*
X151086003Y-104307490D01*
X151046678Y-104354545D01*
X151038046Y-104423260D01*
X151068010Y-104485890D01*
X151076702Y-104493420D01*
X151077356Y-104495310D01*
X151076046Y-104496822D01*
X151075002Y-104496894D01*
X151050901Y-104492100D01*
X149251299Y-104492100D01*
X149227579Y-104496819D01*
X149218843Y-104502656D01*
X149216847Y-104502787D01*
X149215736Y-104501124D01*
X149216197Y-104499710D01*
X149255522Y-104452655D01*
X149264154Y-104383940D01*
X149234190Y-104321310D01*
X149225498Y-104313780D01*
X149224844Y-104311890D01*
X149226154Y-104310378D01*
X149227198Y-104310306D01*
X149251299Y-104315100D01*
X151050901Y-104315100D01*
X151074621Y-104310381D01*
X151083357Y-104304544D01*
X151085353Y-104304413D01*
X151086464Y-104306076D01*
G37*
G36*
X151086464Y-103206076D02*
G01*
X151086003Y-103207490D01*
X151046678Y-103254545D01*
X151038046Y-103323260D01*
X151068010Y-103385890D01*
X151076702Y-103393420D01*
X151077356Y-103395310D01*
X151076046Y-103396822D01*
X151075002Y-103396894D01*
X151050901Y-103392100D01*
X149251299Y-103392100D01*
X149227579Y-103396819D01*
X149218843Y-103402656D01*
X149216847Y-103402787D01*
X149215736Y-103401124D01*
X149216197Y-103399710D01*
X149255522Y-103352655D01*
X149264154Y-103283940D01*
X149234190Y-103221310D01*
X149225498Y-103213780D01*
X149224844Y-103211890D01*
X149226154Y-103210378D01*
X149227198Y-103210306D01*
X149251299Y-103215100D01*
X151050901Y-103215100D01*
X151074621Y-103210381D01*
X151083357Y-103204544D01*
X151085353Y-103204413D01*
X151086464Y-103206076D01*
G37*
G36*
X151086464Y-102106076D02*
G01*
X151086003Y-102107490D01*
X151046678Y-102154545D01*
X151038046Y-102223260D01*
X151068010Y-102285890D01*
X151076702Y-102293420D01*
X151077356Y-102295310D01*
X151076046Y-102296822D01*
X151075002Y-102296894D01*
X151050901Y-102292100D01*
X149251299Y-102292100D01*
X149227579Y-102296819D01*
X149218843Y-102302656D01*
X149216847Y-102302787D01*
X149215736Y-102301124D01*
X149216197Y-102299710D01*
X149255522Y-102252655D01*
X149264154Y-102183940D01*
X149234190Y-102121310D01*
X149225498Y-102113780D01*
X149224844Y-102111890D01*
X149226154Y-102110378D01*
X149227198Y-102110306D01*
X149251299Y-102115100D01*
X151050901Y-102115100D01*
X151074621Y-102110381D01*
X151083357Y-102104544D01*
X151085353Y-102104413D01*
X151086464Y-102106076D01*
G37*
G36*
X151086464Y-101006076D02*
G01*
X151086003Y-101007490D01*
X151046678Y-101054545D01*
X151038046Y-101123260D01*
X151068010Y-101185890D01*
X151076702Y-101193420D01*
X151077356Y-101195310D01*
X151076046Y-101196822D01*
X151075002Y-101196894D01*
X151050901Y-101192100D01*
X149251299Y-101192100D01*
X149227579Y-101196819D01*
X149218843Y-101202656D01*
X149216847Y-101202787D01*
X149215736Y-101201124D01*
X149216197Y-101199710D01*
X149255522Y-101152655D01*
X149264154Y-101083940D01*
X149234190Y-101021310D01*
X149225498Y-101013780D01*
X149224844Y-101011890D01*
X149226154Y-101010378D01*
X149227198Y-101010306D01*
X149251299Y-101015100D01*
X151050901Y-101015100D01*
X151074621Y-101010381D01*
X151083357Y-101004544D01*
X151085353Y-101004413D01*
X151086464Y-101006076D01*
G37*
G36*
X151086464Y-99906076D02*
G01*
X151086003Y-99907490D01*
X151046678Y-99954545D01*
X151038046Y-100023260D01*
X151068010Y-100085890D01*
X151076702Y-100093420D01*
X151077356Y-100095310D01*
X151076046Y-100096822D01*
X151075002Y-100096894D01*
X151050901Y-100092100D01*
X149251299Y-100092100D01*
X149227579Y-100096819D01*
X149218843Y-100102656D01*
X149216847Y-100102787D01*
X149215736Y-100101124D01*
X149216197Y-100099710D01*
X149255522Y-100052655D01*
X149264154Y-99983940D01*
X149234190Y-99921310D01*
X149225498Y-99913780D01*
X149224844Y-99911890D01*
X149226154Y-99910378D01*
X149227198Y-99910306D01*
X149251299Y-99915100D01*
X151050901Y-99915100D01*
X151074621Y-99910381D01*
X151083357Y-99904544D01*
X151085353Y-99904413D01*
X151086464Y-99906076D01*
G37*
G36*
X151086464Y-98806076D02*
G01*
X151086003Y-98807490D01*
X151046678Y-98854545D01*
X151038046Y-98923260D01*
X151068010Y-98985890D01*
X151076702Y-98993420D01*
X151077356Y-98995310D01*
X151076046Y-98996822D01*
X151075002Y-98996894D01*
X151050901Y-98992100D01*
X149251299Y-98992100D01*
X149227579Y-98996819D01*
X149218843Y-99002656D01*
X149216847Y-99002787D01*
X149215736Y-99001124D01*
X149216197Y-98999710D01*
X149255522Y-98952655D01*
X149264154Y-98883940D01*
X149234190Y-98821310D01*
X149225498Y-98813780D01*
X149224844Y-98811890D01*
X149226154Y-98810378D01*
X149227198Y-98810306D01*
X149251299Y-98815100D01*
X151050901Y-98815100D01*
X151074621Y-98810381D01*
X151083357Y-98804544D01*
X151085353Y-98804413D01*
X151086464Y-98806076D01*
G37*
G36*
X151086464Y-97706076D02*
G01*
X151086003Y-97707490D01*
X151046678Y-97754545D01*
X151038046Y-97823260D01*
X151068010Y-97885890D01*
X151076702Y-97893420D01*
X151077356Y-97895310D01*
X151076046Y-97896822D01*
X151075002Y-97896894D01*
X151050901Y-97892100D01*
X149251299Y-97892100D01*
X149227579Y-97896819D01*
X149218843Y-97902656D01*
X149216847Y-97902787D01*
X149215736Y-97901124D01*
X149216197Y-97899710D01*
X149255522Y-97852655D01*
X149264154Y-97783940D01*
X149234190Y-97721310D01*
X149225498Y-97713780D01*
X149224844Y-97711890D01*
X149226154Y-97710378D01*
X149227198Y-97710306D01*
X149251299Y-97715100D01*
X151050901Y-97715100D01*
X151074621Y-97710381D01*
X151083357Y-97704544D01*
X151085353Y-97704413D01*
X151086464Y-97706076D01*
G37*
M02*
