G04 #@! TF.GenerationSoftware,KiCad,Pcbnew,6.0.5-a6ca702e91~116~ubuntu20.04.1*
G04 #@! TF.CreationDate,2022-05-08T17:52:19+03:00*
G04 #@! TF.ProjectId,ict_v361,6963745f-7633-4363-912e-6b696361645f,rev?*
G04 #@! TF.SameCoordinates,Original*
G04 #@! TF.FileFunction,Copper,L2,Bot*
G04 #@! TF.FilePolarity,Positive*
%FSLAX46Y46*%
G04 Gerber Fmt 4.6, Leading zero omitted, Abs format (unit mm)*
G04 Created by KiCad (PCBNEW 6.0.5-a6ca702e91~116~ubuntu20.04.1) date 2022-05-08 17:52:19*
%MOMM*%
%LPD*%
G01*
G04 APERTURE LIST*
G04 #@! TA.AperFunction,ComponentPad*
%ADD10C,1.879600*%
G04 #@! TD*
G04 #@! TA.AperFunction,SMDPad,CuDef*
%ADD11R,1.800000X0.700000*%
G04 #@! TD*
G04 #@! TA.AperFunction,SMDPad,CuDef*
%ADD12R,1.800000X0.800000*%
G04 #@! TD*
G04 #@! TA.AperFunction,ViaPad*
%ADD13C,0.502400*%
G04 #@! TD*
G04 #@! TA.AperFunction,ViaPad*
%ADD14C,1.200000*%
G04 #@! TD*
G04 #@! TA.AperFunction,ViaPad*
%ADD15C,1.100000*%
G04 #@! TD*
G04 #@! TA.AperFunction,Conductor*
%ADD16C,0.203200*%
G04 #@! TD*
G04 #@! TA.AperFunction,Conductor*
%ADD17C,0.508000*%
G04 #@! TD*
G04 APERTURE END LIST*
D10*
X140621100Y-114843600D03*
X140621100Y-112303600D03*
X143161100Y-114843600D03*
X143161100Y-112303600D03*
X145701100Y-114843600D03*
X145701100Y-112303600D03*
D11*
X150151100Y-106003600D03*
X150151100Y-97303600D03*
D12*
X150151100Y-98353600D03*
X150151100Y-99453600D03*
X150151100Y-100553600D03*
X150151100Y-101653600D03*
X150151100Y-102753600D03*
X150151100Y-103853600D03*
X150151100Y-104953600D03*
D11*
X140651100Y-106003600D03*
D12*
X140651100Y-103853600D03*
X140651100Y-104953600D03*
D13*
X144801100Y-99103600D03*
X138201100Y-106203600D03*
D14*
X138392100Y-101071000D03*
X138392100Y-102471000D03*
D13*
X138301100Y-116103600D03*
X146701100Y-95803600D03*
X145201100Y-104303600D03*
D14*
X156492100Y-94071000D03*
X157492100Y-95571000D03*
D13*
X143901100Y-93703600D03*
X142801100Y-93703600D03*
X153901100Y-97003600D03*
X142701100Y-99103600D03*
X148401100Y-93703600D03*
X146701100Y-99103600D03*
X138201100Y-103803600D03*
X142701100Y-104203600D03*
X152401100Y-97003600D03*
X154001100Y-104003600D03*
X139001100Y-103803600D03*
X139001100Y-106203600D03*
X143901100Y-95003600D03*
X152101100Y-106603600D03*
X140701100Y-96803600D03*
X148401100Y-95403600D03*
X155201100Y-97003600D03*
D14*
X157192100Y-105771000D03*
D13*
X158801100Y-106103600D03*
X144801100Y-100703600D03*
X144801100Y-102603600D03*
X142701100Y-102603600D03*
X142701100Y-100703600D03*
X146701100Y-100703600D03*
X158801100Y-105103600D03*
X158801100Y-104103600D03*
X158801100Y-103103600D03*
X157801100Y-104103600D03*
X157801100Y-103103600D03*
X158801100Y-98103600D03*
X157801100Y-98103600D03*
X158801100Y-97103600D03*
X157801100Y-97103600D03*
X158801100Y-96103600D03*
X158801100Y-95103600D03*
X158801100Y-94103600D03*
X157801100Y-94103600D03*
D14*
X138392100Y-114871000D03*
D13*
X148001100Y-110703600D03*
X148101100Y-115703600D03*
X138401100Y-110503600D03*
X146801100Y-102603600D03*
X146801100Y-104303600D03*
D14*
X138201100Y-97703600D03*
X138201100Y-99203600D03*
D13*
X153901100Y-100603600D03*
X153201100Y-97703600D03*
X156891000Y-98203600D03*
X142701100Y-99903600D03*
X145801100Y-99103600D03*
X148201100Y-99403600D03*
X148201100Y-100203600D03*
X148201100Y-101003600D03*
X147901100Y-103803600D03*
D14*
X145301100Y-94603600D03*
X146801100Y-94603600D03*
D13*
X143501100Y-106803600D03*
X152201100Y-105803600D03*
X148201100Y-101803600D03*
D14*
X158801100Y-101303600D03*
X158801100Y-99903600D03*
D15*
X138101100Y-105003600D03*
D16*
X153201100Y-97703600D02*
X153901100Y-98403600D01*
X153901100Y-98403600D02*
X153901100Y-100603600D01*
X153201100Y-97703600D02*
X153701100Y-98203600D01*
X153701100Y-98203600D02*
X156891000Y-98203600D01*
X145801100Y-99103600D02*
X145001100Y-99903600D01*
X145001100Y-99903600D02*
X142701100Y-99903600D01*
X150151100Y-99453600D02*
X148351100Y-99453600D01*
X148351100Y-99453600D02*
X148201100Y-99403600D01*
X148201100Y-100203600D02*
X148101100Y-100203600D01*
X148101100Y-100203600D02*
X147601100Y-99703600D01*
X147601100Y-99703600D02*
X147601100Y-99103600D01*
X148351100Y-98353600D02*
X150151100Y-98353600D01*
X147601100Y-99103600D02*
X148351100Y-98353600D01*
X147601100Y-101003600D02*
X148201100Y-101003600D01*
X147601100Y-101003600D02*
X142401100Y-106203600D01*
X140621100Y-110783600D02*
X140621100Y-112303600D01*
X142401100Y-106203600D02*
X142401100Y-109003600D01*
X142401100Y-109003600D02*
X140621100Y-110783600D01*
X150151100Y-104953600D02*
X149051100Y-104953600D01*
X149051100Y-104953600D02*
X147901100Y-103803600D01*
X150151100Y-102753600D02*
X150079700Y-102825000D01*
X150079700Y-102825000D02*
X147479700Y-102825000D01*
X147479700Y-102825000D02*
X143501100Y-106803600D01*
X150151100Y-102753600D02*
X151151100Y-102753600D01*
X152201100Y-103803600D02*
X152201100Y-105803600D01*
X151151100Y-102753600D02*
X152201100Y-103803600D01*
X150151100Y-101653600D02*
X150101100Y-101803600D01*
X150101100Y-101803600D02*
X148201100Y-101803600D01*
D17*
X140651100Y-104953600D02*
X140601100Y-105003600D01*
X140601100Y-105003600D02*
X138101100Y-105003600D01*
G04 #@! TA.AperFunction,Conductor*
G36*
X159784414Y-93020286D02*
G01*
X159799000Y-93055500D01*
X159799000Y-107051700D01*
X159784414Y-107086914D01*
X159749200Y-107101500D01*
X144767926Y-107101500D01*
X144761543Y-107106137D01*
X144761544Y-107106137D01*
X144760550Y-107106859D01*
X144746669Y-107113931D01*
X144745502Y-107114310D01*
X144745499Y-107114312D01*
X144737999Y-107116749D01*
X144733363Y-107123130D01*
X144733362Y-107123131D01*
X144732640Y-107124125D01*
X144721625Y-107135140D01*
X144714249Y-107140499D01*
X144711812Y-107147999D01*
X144711810Y-107148002D01*
X144711431Y-107149169D01*
X144704359Y-107163050D01*
X144699000Y-107170426D01*
X144699000Y-109536774D01*
X144703637Y-109543156D01*
X144704359Y-109544150D01*
X144711431Y-109558031D01*
X144711810Y-109559198D01*
X144711812Y-109559201D01*
X144714249Y-109566701D01*
X144720630Y-109571337D01*
X144720631Y-109571338D01*
X144721625Y-109572060D01*
X144732640Y-109583075D01*
X144737999Y-109590451D01*
X144745499Y-109592888D01*
X144745502Y-109592890D01*
X144746669Y-109593269D01*
X144760550Y-109600341D01*
X144767926Y-109605700D01*
X149149200Y-109605700D01*
X149184414Y-109620286D01*
X149199000Y-109655500D01*
X149199000Y-116951700D01*
X149184414Y-116986914D01*
X149149200Y-117001500D01*
X137253000Y-117001500D01*
X137217786Y-116986914D01*
X137203200Y-116951700D01*
X137203200Y-115775479D01*
X139872363Y-115775479D01*
X139873933Y-115779270D01*
X140047513Y-115895252D01*
X140051507Y-115897420D01*
X140248763Y-115982169D01*
X140253093Y-115983576D01*
X140462486Y-116030957D01*
X140466996Y-116031551D01*
X140681524Y-116039979D01*
X140686063Y-116039742D01*
X140898541Y-116008934D01*
X140902950Y-116007875D01*
X141106248Y-115938865D01*
X141110416Y-115937009D01*
X141297724Y-115832112D01*
X141301475Y-115829534D01*
X141362930Y-115778421D01*
X141366461Y-115771710D01*
X141364790Y-115766329D01*
X140628104Y-115029643D01*
X140621100Y-115026742D01*
X140614096Y-115029643D01*
X139875264Y-115768475D01*
X139872363Y-115775479D01*
X137203200Y-115775479D01*
X137203200Y-114814518D01*
X139423549Y-114814518D01*
X139437591Y-115028750D01*
X139438301Y-115033234D01*
X139491150Y-115241328D01*
X139492665Y-115245607D01*
X139582551Y-115440585D01*
X139584821Y-115444516D01*
X139685244Y-115586613D01*
X139691654Y-115590657D01*
X139695983Y-115589678D01*
X140435057Y-114850604D01*
X140437958Y-114843600D01*
X140804242Y-114843600D01*
X140807143Y-114850604D01*
X141542582Y-115586043D01*
X141549586Y-115588944D01*
X141554792Y-115586788D01*
X141607034Y-115523975D01*
X141609612Y-115520224D01*
X141714509Y-115332916D01*
X141716365Y-115328748D01*
X141785375Y-115125450D01*
X141786434Y-115121041D01*
X141817359Y-114907750D01*
X141817607Y-114904841D01*
X141819173Y-114845061D01*
X141819077Y-114842143D01*
X141817835Y-114828626D01*
X142088741Y-114828626D01*
X142092395Y-114872144D01*
X142105377Y-115026742D01*
X142106255Y-115037200D01*
X142163948Y-115238400D01*
X142259623Y-115424563D01*
X142389634Y-115588596D01*
X142549030Y-115724253D01*
X142551152Y-115725439D01*
X142551155Y-115725441D01*
X142590826Y-115747612D01*
X142731740Y-115826366D01*
X142930804Y-115891046D01*
X142933212Y-115891333D01*
X142933216Y-115891334D01*
X143122479Y-115913902D01*
X143138640Y-115915829D01*
X143271835Y-115905580D01*
X143344902Y-115899958D01*
X143344903Y-115899958D01*
X143347331Y-115899771D01*
X143349671Y-115899118D01*
X143349675Y-115899117D01*
X143546584Y-115844139D01*
X143546586Y-115844138D01*
X143548929Y-115843484D01*
X143571442Y-115832112D01*
X143733584Y-115750208D01*
X143733587Y-115750206D01*
X143735755Y-115749111D01*
X143900692Y-115620248D01*
X144037458Y-115461803D01*
X144097691Y-115355774D01*
X144139641Y-115281930D01*
X144139642Y-115281927D01*
X144140845Y-115279810D01*
X144206913Y-115081203D01*
X144233146Y-114873545D01*
X144233467Y-114850604D01*
X144233545Y-114844990D01*
X144233545Y-114844983D01*
X144233564Y-114843600D01*
X144232096Y-114828626D01*
X144628741Y-114828626D01*
X144632395Y-114872144D01*
X144645377Y-115026742D01*
X144646255Y-115037200D01*
X144703948Y-115238400D01*
X144799623Y-115424563D01*
X144929634Y-115588596D01*
X145089030Y-115724253D01*
X145091152Y-115725439D01*
X145091155Y-115725441D01*
X145130826Y-115747612D01*
X145271740Y-115826366D01*
X145470804Y-115891046D01*
X145473212Y-115891333D01*
X145473216Y-115891334D01*
X145662479Y-115913902D01*
X145678640Y-115915829D01*
X145811835Y-115905580D01*
X145884902Y-115899958D01*
X145884903Y-115899958D01*
X145887331Y-115899771D01*
X145889671Y-115899118D01*
X145889675Y-115899117D01*
X146086584Y-115844139D01*
X146086586Y-115844138D01*
X146088929Y-115843484D01*
X146111442Y-115832112D01*
X146273584Y-115750208D01*
X146273587Y-115750206D01*
X146275755Y-115749111D01*
X146440692Y-115620248D01*
X146577458Y-115461803D01*
X146637691Y-115355774D01*
X146679641Y-115281930D01*
X146679642Y-115281927D01*
X146680845Y-115279810D01*
X146746913Y-115081203D01*
X146773146Y-114873545D01*
X146773467Y-114850604D01*
X146773545Y-114844990D01*
X146773545Y-114844983D01*
X146773564Y-114843600D01*
X146753139Y-114635291D01*
X146692642Y-114434916D01*
X146594378Y-114250107D01*
X146592843Y-114248224D01*
X146592839Y-114248219D01*
X146471041Y-114098881D01*
X146462089Y-114087905D01*
X146451590Y-114079219D01*
X146302691Y-113956040D01*
X146300814Y-113954487D01*
X146116697Y-113854935D01*
X146114370Y-113854215D01*
X146114366Y-113854213D01*
X145919075Y-113793761D01*
X145916749Y-113793041D01*
X145914329Y-113792787D01*
X145914326Y-113792786D01*
X145711013Y-113771417D01*
X145708587Y-113771162D01*
X145706159Y-113771383D01*
X145706158Y-113771383D01*
X145502564Y-113789911D01*
X145502560Y-113789912D01*
X145500140Y-113790132D01*
X145399744Y-113819681D01*
X145301681Y-113848542D01*
X145301678Y-113848543D01*
X145299348Y-113849229D01*
X145113858Y-113946200D01*
X145111965Y-113947722D01*
X145111962Y-113947724D01*
X144965434Y-114065536D01*
X144950736Y-114077354D01*
X144816195Y-114237693D01*
X144715360Y-114421111D01*
X144714625Y-114423427D01*
X144714624Y-114423430D01*
X144652809Y-114618297D01*
X144652808Y-114618302D01*
X144652072Y-114620622D01*
X144651801Y-114623041D01*
X144651800Y-114623044D01*
X144630323Y-114814518D01*
X144628741Y-114828626D01*
X144232096Y-114828626D01*
X144213139Y-114635291D01*
X144152642Y-114434916D01*
X144054378Y-114250107D01*
X144052843Y-114248224D01*
X144052839Y-114248219D01*
X143931041Y-114098881D01*
X143922089Y-114087905D01*
X143911590Y-114079219D01*
X143762691Y-113956040D01*
X143760814Y-113954487D01*
X143576697Y-113854935D01*
X143574370Y-113854215D01*
X143574366Y-113854213D01*
X143379075Y-113793761D01*
X143376749Y-113793041D01*
X143374329Y-113792787D01*
X143374326Y-113792786D01*
X143171013Y-113771417D01*
X143168587Y-113771162D01*
X143166159Y-113771383D01*
X143166158Y-113771383D01*
X142962564Y-113789911D01*
X142962560Y-113789912D01*
X142960140Y-113790132D01*
X142859744Y-113819681D01*
X142761681Y-113848542D01*
X142761678Y-113848543D01*
X142759348Y-113849229D01*
X142573858Y-113946200D01*
X142571965Y-113947722D01*
X142571962Y-113947724D01*
X142425434Y-114065536D01*
X142410736Y-114077354D01*
X142276195Y-114237693D01*
X142175360Y-114421111D01*
X142174625Y-114423427D01*
X142174624Y-114423430D01*
X142112809Y-114618297D01*
X142112808Y-114618302D01*
X142112072Y-114620622D01*
X142111801Y-114623041D01*
X142111800Y-114623044D01*
X142090323Y-114814518D01*
X142088741Y-114828626D01*
X141817835Y-114828626D01*
X141799358Y-114627537D01*
X141798529Y-114623062D01*
X141740253Y-114416432D01*
X141738623Y-114412187D01*
X141643670Y-114219641D01*
X141641289Y-114215756D01*
X141556027Y-114101576D01*
X141549511Y-114097699D01*
X141544858Y-114098881D01*
X140807143Y-114836596D01*
X140804242Y-114843600D01*
X140437958Y-114843600D01*
X140435057Y-114836596D01*
X139699653Y-114101192D01*
X139692649Y-114098291D01*
X139687846Y-114100280D01*
X139617692Y-114189271D01*
X139615217Y-114193082D01*
X139515255Y-114383078D01*
X139513512Y-114387287D01*
X139449849Y-114592317D01*
X139448902Y-114596768D01*
X139423668Y-114809970D01*
X139423549Y-114814518D01*
X137203200Y-114814518D01*
X137203200Y-113913905D01*
X139875557Y-113913905D01*
X139878643Y-113922104D01*
X140614096Y-114657557D01*
X140621100Y-114660458D01*
X140628104Y-114657557D01*
X141365349Y-113920312D01*
X141368030Y-113913840D01*
X141364704Y-113906237D01*
X141352141Y-113894625D01*
X141348533Y-113891857D01*
X141166967Y-113777297D01*
X141162908Y-113775228D01*
X140963502Y-113695674D01*
X140959142Y-113694382D01*
X140748576Y-113652497D01*
X140744057Y-113652022D01*
X140529382Y-113649212D01*
X140524845Y-113649569D01*
X140313254Y-113685928D01*
X140308865Y-113687104D01*
X140107441Y-113761413D01*
X140103335Y-113763372D01*
X139918834Y-113873138D01*
X139915150Y-113875814D01*
X139878485Y-113907968D01*
X139875557Y-113913905D01*
X137203200Y-113913905D01*
X137203200Y-112288626D01*
X139548741Y-112288626D01*
X139566255Y-112497200D01*
X139623948Y-112698400D01*
X139719623Y-112884563D01*
X139849634Y-113048596D01*
X140009030Y-113184253D01*
X140011152Y-113185439D01*
X140011155Y-113185441D01*
X140050826Y-113207612D01*
X140191740Y-113286366D01*
X140390804Y-113351046D01*
X140393212Y-113351333D01*
X140393216Y-113351334D01*
X140582479Y-113373902D01*
X140598640Y-113375829D01*
X140731835Y-113365580D01*
X140804902Y-113359958D01*
X140804903Y-113359958D01*
X140807331Y-113359771D01*
X140809671Y-113359118D01*
X140809675Y-113359117D01*
X141006584Y-113304139D01*
X141006586Y-113304138D01*
X141008929Y-113303484D01*
X141045171Y-113285177D01*
X141193584Y-113210208D01*
X141193587Y-113210206D01*
X141195755Y-113209111D01*
X141360692Y-113080248D01*
X141497458Y-112921803D01*
X141600845Y-112739810D01*
X141666913Y-112541203D01*
X141693146Y-112333545D01*
X141693564Y-112303600D01*
X141692096Y-112288626D01*
X142088741Y-112288626D01*
X142106255Y-112497200D01*
X142163948Y-112698400D01*
X142259623Y-112884563D01*
X142389634Y-113048596D01*
X142549030Y-113184253D01*
X142551152Y-113185439D01*
X142551155Y-113185441D01*
X142590826Y-113207612D01*
X142731740Y-113286366D01*
X142930804Y-113351046D01*
X142933212Y-113351333D01*
X142933216Y-113351334D01*
X143122479Y-113373902D01*
X143138640Y-113375829D01*
X143271835Y-113365580D01*
X143344902Y-113359958D01*
X143344903Y-113359958D01*
X143347331Y-113359771D01*
X143349671Y-113359118D01*
X143349675Y-113359117D01*
X143546584Y-113304139D01*
X143546586Y-113304138D01*
X143548929Y-113303484D01*
X143585171Y-113285177D01*
X143733584Y-113210208D01*
X143733587Y-113210206D01*
X143735755Y-113209111D01*
X143900692Y-113080248D01*
X144037458Y-112921803D01*
X144140845Y-112739810D01*
X144206913Y-112541203D01*
X144233146Y-112333545D01*
X144233564Y-112303600D01*
X144232096Y-112288626D01*
X144628741Y-112288626D01*
X144646255Y-112497200D01*
X144703948Y-112698400D01*
X144799623Y-112884563D01*
X144929634Y-113048596D01*
X145089030Y-113184253D01*
X145091152Y-113185439D01*
X145091155Y-113185441D01*
X145130826Y-113207612D01*
X145271740Y-113286366D01*
X145470804Y-113351046D01*
X145473212Y-113351333D01*
X145473216Y-113351334D01*
X145662479Y-113373902D01*
X145678640Y-113375829D01*
X145811835Y-113365580D01*
X145884902Y-113359958D01*
X145884903Y-113359958D01*
X145887331Y-113359771D01*
X145889671Y-113359118D01*
X145889675Y-113359117D01*
X146086584Y-113304139D01*
X146086586Y-113304138D01*
X146088929Y-113303484D01*
X146125171Y-113285177D01*
X146273584Y-113210208D01*
X146273587Y-113210206D01*
X146275755Y-113209111D01*
X146440692Y-113080248D01*
X146577458Y-112921803D01*
X146680845Y-112739810D01*
X146746913Y-112541203D01*
X146773146Y-112333545D01*
X146773564Y-112303600D01*
X146753139Y-112095291D01*
X146692642Y-111894916D01*
X146594378Y-111710107D01*
X146592843Y-111708224D01*
X146592839Y-111708219D01*
X146463627Y-111549791D01*
X146462089Y-111547905D01*
X146451590Y-111539219D01*
X146302691Y-111416040D01*
X146300814Y-111414487D01*
X146116697Y-111314935D01*
X146114370Y-111314215D01*
X146114366Y-111314213D01*
X145919075Y-111253761D01*
X145916749Y-111253041D01*
X145914329Y-111252787D01*
X145914326Y-111252786D01*
X145711013Y-111231417D01*
X145708587Y-111231162D01*
X145706159Y-111231383D01*
X145706158Y-111231383D01*
X145502564Y-111249911D01*
X145502560Y-111249912D01*
X145500140Y-111250132D01*
X145399744Y-111279681D01*
X145301681Y-111308542D01*
X145301678Y-111308543D01*
X145299348Y-111309229D01*
X145113858Y-111406200D01*
X145111965Y-111407722D01*
X145111962Y-111407724D01*
X144965434Y-111525536D01*
X144950736Y-111537354D01*
X144816195Y-111697693D01*
X144715360Y-111881111D01*
X144714625Y-111883427D01*
X144714624Y-111883430D01*
X144652809Y-112078297D01*
X144652808Y-112078302D01*
X144652072Y-112080622D01*
X144651801Y-112083041D01*
X144651800Y-112083044D01*
X144629012Y-112286209D01*
X144628741Y-112288626D01*
X144232096Y-112288626D01*
X144213139Y-112095291D01*
X144152642Y-111894916D01*
X144054378Y-111710107D01*
X144052843Y-111708224D01*
X144052839Y-111708219D01*
X143923627Y-111549791D01*
X143922089Y-111547905D01*
X143911590Y-111539219D01*
X143762691Y-111416040D01*
X143760814Y-111414487D01*
X143576697Y-111314935D01*
X143574370Y-111314215D01*
X143574366Y-111314213D01*
X143379075Y-111253761D01*
X143376749Y-111253041D01*
X143374329Y-111252787D01*
X143374326Y-111252786D01*
X143171013Y-111231417D01*
X143168587Y-111231162D01*
X143166159Y-111231383D01*
X143166158Y-111231383D01*
X142962564Y-111249911D01*
X142962560Y-111249912D01*
X142960140Y-111250132D01*
X142859744Y-111279681D01*
X142761681Y-111308542D01*
X142761678Y-111308543D01*
X142759348Y-111309229D01*
X142573858Y-111406200D01*
X142571965Y-111407722D01*
X142571962Y-111407724D01*
X142425434Y-111525536D01*
X142410736Y-111537354D01*
X142276195Y-111697693D01*
X142175360Y-111881111D01*
X142174625Y-111883427D01*
X142174624Y-111883430D01*
X142112809Y-112078297D01*
X142112808Y-112078302D01*
X142112072Y-112080622D01*
X142111801Y-112083041D01*
X142111800Y-112083044D01*
X142089012Y-112286209D01*
X142088741Y-112288626D01*
X141692096Y-112288626D01*
X141673139Y-112095291D01*
X141612642Y-111894916D01*
X141514378Y-111710107D01*
X141512843Y-111708224D01*
X141512839Y-111708219D01*
X141383627Y-111549791D01*
X141382089Y-111547905D01*
X141371590Y-111539219D01*
X141222691Y-111416040D01*
X141220814Y-111414487D01*
X141036697Y-111314935D01*
X141034370Y-111314215D01*
X141034366Y-111314213D01*
X140885274Y-111268062D01*
X140855948Y-111243715D01*
X140850200Y-111220489D01*
X140850200Y-110899124D01*
X140864786Y-110863910D01*
X142557929Y-109170767D01*
X142559820Y-109168972D01*
X142590586Y-109141270D01*
X142601468Y-109116829D01*
X142605192Y-109109971D01*
X142619761Y-109087537D01*
X142621634Y-109075708D01*
X142625327Y-109063241D01*
X142628070Y-109057081D01*
X142630200Y-109052297D01*
X142630200Y-109025549D01*
X142630813Y-109017759D01*
X142634178Y-108996513D01*
X142634997Y-108991342D01*
X142631897Y-108979772D01*
X142630200Y-108966883D01*
X142630200Y-106319124D01*
X142644786Y-106283910D01*
X147681410Y-101247286D01*
X147716624Y-101232700D01*
X147788452Y-101232700D01*
X147823666Y-101247286D01*
X147826569Y-101250452D01*
X147901106Y-101339125D01*
X147904063Y-101341093D01*
X147904066Y-101341096D01*
X147935057Y-101361726D01*
X147956288Y-101393381D01*
X147948917Y-101430776D01*
X147934036Y-101445298D01*
X147909394Y-101460846D01*
X147889913Y-101482904D01*
X147853000Y-101524700D01*
X147824919Y-101556495D01*
X147799478Y-101610682D01*
X147772193Y-101668796D01*
X147772192Y-101668799D01*
X147770685Y-101672009D01*
X147751053Y-101798101D01*
X147767599Y-101924636D01*
X147818994Y-102041440D01*
X147901106Y-102139125D01*
X148007335Y-102209836D01*
X148010723Y-102210894D01*
X148010724Y-102210895D01*
X148075931Y-102231267D01*
X148129141Y-102247891D01*
X148132686Y-102247956D01*
X148253183Y-102250165D01*
X148256731Y-102250230D01*
X148275889Y-102245007D01*
X148376428Y-102217597D01*
X148376430Y-102217596D01*
X148379849Y-102216664D01*
X148437770Y-102181100D01*
X148485580Y-102151745D01*
X148485583Y-102151743D01*
X148488597Y-102149892D01*
X148574234Y-102055282D01*
X148574768Y-102054179D01*
X148605834Y-102033615D01*
X148615338Y-102032700D01*
X149076075Y-102032700D01*
X149111289Y-102047286D01*
X149124918Y-102072784D01*
X149130998Y-102103348D01*
X149159178Y-102145522D01*
X149163256Y-102148247D01*
X149163257Y-102148248D01*
X149184127Y-102162193D01*
X149205303Y-102193884D01*
X149197867Y-102231267D01*
X149184127Y-102245007D01*
X149163257Y-102258952D01*
X149163256Y-102258953D01*
X149159178Y-102261678D01*
X149130998Y-102303852D01*
X149123600Y-102341042D01*
X149123600Y-102546100D01*
X149109014Y-102581314D01*
X149073800Y-102595900D01*
X147486997Y-102595900D01*
X147484391Y-102595832D01*
X147443060Y-102593666D01*
X147438171Y-102595543D01*
X147438169Y-102595543D01*
X147418094Y-102603249D01*
X147410602Y-102605469D01*
X147399539Y-102607821D01*
X147384435Y-102611031D01*
X147380200Y-102614108D01*
X147374746Y-102618071D01*
X147363320Y-102624274D01*
X147357026Y-102626690D01*
X147357022Y-102626692D01*
X147352136Y-102628568D01*
X147333222Y-102647482D01*
X147327280Y-102652557D01*
X147309875Y-102665202D01*
X147309874Y-102665203D01*
X147305642Y-102668278D01*
X147303026Y-102672809D01*
X147303025Y-102672810D01*
X147299653Y-102678651D01*
X147291739Y-102688965D01*
X143630680Y-106350023D01*
X143595466Y-106364609D01*
X143581199Y-106362522D01*
X143571024Y-106359479D01*
X143571023Y-106359479D01*
X143567626Y-106358463D01*
X143564079Y-106358441D01*
X143564077Y-106358441D01*
X143506127Y-106358087D01*
X143440017Y-106357683D01*
X143317318Y-106392751D01*
X143209394Y-106460846D01*
X143124919Y-106556495D01*
X143109478Y-106589383D01*
X143072193Y-106668796D01*
X143072192Y-106668799D01*
X143070685Y-106672009D01*
X143051053Y-106798101D01*
X143067599Y-106924636D01*
X143118994Y-107041440D01*
X143201106Y-107139125D01*
X143307335Y-107209836D01*
X143310723Y-107210894D01*
X143310724Y-107210895D01*
X143329190Y-107216664D01*
X143429141Y-107247891D01*
X143432686Y-107247956D01*
X143553183Y-107250165D01*
X143556731Y-107250230D01*
X143606087Y-107236774D01*
X143676428Y-107217597D01*
X143676430Y-107217596D01*
X143679849Y-107216664D01*
X143742306Y-107178315D01*
X143785580Y-107151745D01*
X143785583Y-107151743D01*
X143788597Y-107149892D01*
X143818597Y-107116749D01*
X143871854Y-107057912D01*
X143871856Y-107057910D01*
X143874234Y-107055282D01*
X143929875Y-106940440D01*
X143951047Y-106814596D01*
X143951181Y-106803600D01*
X143950897Y-106801615D01*
X143938918Y-106717969D01*
X143948365Y-106681043D01*
X143953001Y-106675695D01*
X147560011Y-103068686D01*
X147595225Y-103054100D01*
X149073800Y-103054100D01*
X149109014Y-103068686D01*
X149123600Y-103103900D01*
X149123600Y-103166158D01*
X149130998Y-103203348D01*
X149159178Y-103245522D01*
X149163256Y-103248247D01*
X149163257Y-103248248D01*
X149184127Y-103262193D01*
X149205303Y-103293884D01*
X149197867Y-103331267D01*
X149184127Y-103345007D01*
X149163257Y-103358952D01*
X149163256Y-103358953D01*
X149159178Y-103361678D01*
X149130998Y-103403852D01*
X149123600Y-103441042D01*
X149123600Y-104266158D01*
X149130998Y-104303348D01*
X149159178Y-104345522D01*
X149163256Y-104348247D01*
X149163257Y-104348248D01*
X149184127Y-104362193D01*
X149205303Y-104393884D01*
X149197867Y-104431267D01*
X149184127Y-104445007D01*
X149163257Y-104458952D01*
X149163256Y-104458953D01*
X149159178Y-104461678D01*
X149130998Y-104503852D01*
X149123600Y-104541042D01*
X149123600Y-104581876D01*
X149109014Y-104617090D01*
X149073800Y-104631676D01*
X149038586Y-104617090D01*
X148352648Y-103931152D01*
X148338062Y-103895938D01*
X148338752Y-103887676D01*
X148350728Y-103816490D01*
X148351047Y-103814596D01*
X148351181Y-103803600D01*
X148350394Y-103798101D01*
X148333593Y-103680789D01*
X148333090Y-103677277D01*
X148280272Y-103561110D01*
X148196972Y-103464435D01*
X148143430Y-103429731D01*
X148092865Y-103396957D01*
X148092864Y-103396956D01*
X148089887Y-103395027D01*
X147967626Y-103358463D01*
X147964079Y-103358441D01*
X147964077Y-103358441D01*
X147906127Y-103358087D01*
X147840017Y-103357683D01*
X147717318Y-103392751D01*
X147609394Y-103460846D01*
X147524919Y-103556495D01*
X147497151Y-103615639D01*
X147472193Y-103668796D01*
X147472192Y-103668799D01*
X147470685Y-103672009D01*
X147451053Y-103798101D01*
X147467599Y-103924636D01*
X147518994Y-104041440D01*
X147601106Y-104139125D01*
X147707335Y-104209836D01*
X147710723Y-104210894D01*
X147710724Y-104210895D01*
X147779044Y-104232239D01*
X147829141Y-104247891D01*
X147832686Y-104247956D01*
X147953183Y-104250165D01*
X147956731Y-104250230D01*
X147981500Y-104243477D01*
X148019310Y-104248287D01*
X148029813Y-104256309D01*
X148883933Y-105110429D01*
X148885728Y-105112320D01*
X148913430Y-105143086D01*
X148918214Y-105145216D01*
X148937863Y-105153964D01*
X148944722Y-105157688D01*
X148967164Y-105172262D01*
X148972334Y-105173081D01*
X148972335Y-105173081D01*
X148975354Y-105173559D01*
X148978994Y-105174135D01*
X148991461Y-105177828D01*
X149002403Y-105182700D01*
X149029151Y-105182700D01*
X149036941Y-105183313D01*
X149058187Y-105186678D01*
X149058188Y-105186678D01*
X149063359Y-105187497D01*
X149068418Y-105186141D01*
X149071192Y-105185996D01*
X149107122Y-105198718D01*
X149123600Y-105235728D01*
X149123600Y-105366158D01*
X149130998Y-105403348D01*
X149133723Y-105407426D01*
X149152081Y-105434900D01*
X149159178Y-105445522D01*
X149163256Y-105448247D01*
X149163257Y-105448248D01*
X149184127Y-105462193D01*
X149205303Y-105493884D01*
X149197867Y-105531267D01*
X149184127Y-105545007D01*
X149163257Y-105558952D01*
X149163256Y-105558953D01*
X149159178Y-105561678D01*
X149130998Y-105603852D01*
X149123600Y-105641042D01*
X149123600Y-106366158D01*
X149130998Y-106403348D01*
X149159178Y-106445522D01*
X149201352Y-106473702D01*
X149206161Y-106474659D01*
X149206162Y-106474659D01*
X149236144Y-106480623D01*
X149238542Y-106481100D01*
X151063658Y-106481100D01*
X151066056Y-106480623D01*
X151096038Y-106474659D01*
X151096039Y-106474659D01*
X151100848Y-106473702D01*
X151143022Y-106445522D01*
X151171202Y-106403348D01*
X151178600Y-106366158D01*
X151178600Y-105641042D01*
X151171202Y-105603852D01*
X151143022Y-105561678D01*
X151138944Y-105558953D01*
X151138943Y-105558952D01*
X151118073Y-105545007D01*
X151096897Y-105513316D01*
X151104333Y-105475933D01*
X151118073Y-105462193D01*
X151138943Y-105448248D01*
X151138944Y-105448247D01*
X151143022Y-105445522D01*
X151150120Y-105434900D01*
X151168477Y-105407426D01*
X151171202Y-105403348D01*
X151178600Y-105366158D01*
X151178600Y-104541042D01*
X151171202Y-104503852D01*
X151143022Y-104461678D01*
X151138944Y-104458953D01*
X151138943Y-104458952D01*
X151118073Y-104445007D01*
X151096897Y-104413316D01*
X151104333Y-104375933D01*
X151118073Y-104362193D01*
X151138943Y-104348248D01*
X151138944Y-104348247D01*
X151143022Y-104345522D01*
X151171202Y-104303348D01*
X151178600Y-104266158D01*
X151178600Y-103441042D01*
X151171202Y-103403852D01*
X151143022Y-103361678D01*
X151138944Y-103358953D01*
X151138943Y-103358952D01*
X151118073Y-103345007D01*
X151096897Y-103313316D01*
X151104333Y-103275933D01*
X151118073Y-103262193D01*
X151138943Y-103248248D01*
X151138944Y-103248247D01*
X151143022Y-103245522D01*
X151171202Y-103203348D01*
X151172160Y-103198534D01*
X151172891Y-103196768D01*
X151199843Y-103169816D01*
X151237958Y-103169815D01*
X151254115Y-103180611D01*
X151957414Y-103883910D01*
X151972000Y-103919124D01*
X151972000Y-105393882D01*
X151957414Y-105429096D01*
X151948774Y-105435999D01*
X151934876Y-105444768D01*
X151909394Y-105460846D01*
X151824919Y-105556495D01*
X151802685Y-105603852D01*
X151772193Y-105668796D01*
X151772192Y-105668799D01*
X151770685Y-105672009D01*
X151751053Y-105798101D01*
X151767599Y-105924636D01*
X151774553Y-105940440D01*
X151817203Y-106037369D01*
X151818994Y-106041440D01*
X151901106Y-106139125D01*
X152007335Y-106209836D01*
X152010723Y-106210894D01*
X152010724Y-106210895D01*
X152063643Y-106227428D01*
X152129141Y-106247891D01*
X152132686Y-106247956D01*
X152253183Y-106250165D01*
X152256731Y-106250230D01*
X152269191Y-106246833D01*
X152376428Y-106217597D01*
X152376430Y-106217596D01*
X152379849Y-106216664D01*
X152471907Y-106160140D01*
X152485580Y-106151745D01*
X152485583Y-106151743D01*
X152488597Y-106149892D01*
X152505253Y-106131491D01*
X152571854Y-106057912D01*
X152571856Y-106057910D01*
X152574234Y-106055282D01*
X152629875Y-105940440D01*
X152651047Y-105814596D01*
X152651181Y-105803600D01*
X152650394Y-105798101D01*
X152633593Y-105680789D01*
X152633090Y-105677277D01*
X152580272Y-105561110D01*
X152496972Y-105464435D01*
X152493994Y-105462505D01*
X152493992Y-105462503D01*
X152452913Y-105435877D01*
X152431297Y-105404484D01*
X152430200Y-105394088D01*
X152430200Y-103810897D01*
X152430268Y-103808291D01*
X152432160Y-103772188D01*
X152432434Y-103766960D01*
X152430557Y-103762071D01*
X152430557Y-103762069D01*
X152422851Y-103741994D01*
X152420631Y-103734502D01*
X152416157Y-103713455D01*
X152415069Y-103708335D01*
X152408028Y-103698645D01*
X152401826Y-103687220D01*
X152399410Y-103680926D01*
X152399408Y-103680922D01*
X152397532Y-103676036D01*
X152378618Y-103657122D01*
X152373543Y-103651180D01*
X152360898Y-103633775D01*
X152360897Y-103633774D01*
X152357822Y-103629542D01*
X152353291Y-103626926D01*
X152353290Y-103626925D01*
X152347449Y-103623553D01*
X152337135Y-103615639D01*
X151318258Y-102596761D01*
X151316463Y-102594870D01*
X151292271Y-102568002D01*
X151292270Y-102568002D01*
X151288770Y-102564114D01*
X151264325Y-102553230D01*
X151257479Y-102549513D01*
X151235036Y-102534939D01*
X151229869Y-102534121D01*
X151229867Y-102534120D01*
X151223209Y-102533066D01*
X151210741Y-102529373D01*
X151208140Y-102528215D01*
X151181906Y-102500564D01*
X151178600Y-102482722D01*
X151178600Y-102341042D01*
X151171202Y-102303852D01*
X151143022Y-102261678D01*
X151138944Y-102258953D01*
X151138943Y-102258952D01*
X151118073Y-102245007D01*
X151096897Y-102213316D01*
X151104333Y-102175933D01*
X151118073Y-102162193D01*
X151138943Y-102148248D01*
X151138944Y-102148247D01*
X151143022Y-102145522D01*
X151171202Y-102103348D01*
X151178600Y-102066158D01*
X151178600Y-101293378D01*
X158069068Y-101293378D01*
X158084995Y-101455813D01*
X158085874Y-101458454D01*
X158085874Y-101458456D01*
X158094007Y-101482904D01*
X158136513Y-101610682D01*
X158221062Y-101750289D01*
X158222998Y-101752294D01*
X158222999Y-101752295D01*
X158332508Y-101865695D01*
X158332511Y-101865698D01*
X158334440Y-101867695D01*
X158336762Y-101869214D01*
X158336765Y-101869217D01*
X158416078Y-101921118D01*
X158471011Y-101957065D01*
X158502808Y-101968890D01*
X158621379Y-102012986D01*
X158621381Y-102012987D01*
X158623988Y-102013956D01*
X158785768Y-102035542D01*
X158788537Y-102035290D01*
X158788539Y-102035290D01*
X158945541Y-102021002D01*
X158948310Y-102020750D01*
X159025923Y-101995532D01*
X159100892Y-101971173D01*
X159100894Y-101971172D01*
X159103535Y-101970314D01*
X159105924Y-101968890D01*
X159241338Y-101888168D01*
X159241342Y-101888165D01*
X159243729Y-101886742D01*
X159245741Y-101884826D01*
X159245745Y-101884823D01*
X159299678Y-101833462D01*
X159361923Y-101774187D01*
X159363460Y-101771873D01*
X159363463Y-101771870D01*
X159450703Y-101640563D01*
X159450704Y-101640560D01*
X159452244Y-101638243D01*
X159453231Y-101635645D01*
X159453233Y-101635641D01*
X159509213Y-101488274D01*
X159509214Y-101488271D01*
X159510203Y-101485667D01*
X159532918Y-101324042D01*
X159533203Y-101303600D01*
X159520532Y-101190632D01*
X159515320Y-101144166D01*
X159515320Y-101144164D01*
X159515010Y-101141404D01*
X159513456Y-101136939D01*
X159487426Y-101062193D01*
X159461334Y-100987269D01*
X159394798Y-100880789D01*
X159376319Y-100851216D01*
X159376318Y-100851214D01*
X159374844Y-100848856D01*
X159364256Y-100838193D01*
X159285043Y-100758425D01*
X159259839Y-100733044D01*
X159257498Y-100731558D01*
X159257495Y-100731556D01*
X159122033Y-100645590D01*
X159122580Y-100644728D01*
X159099616Y-100618777D01*
X159101939Y-100580733D01*
X159121201Y-100559783D01*
X159241338Y-100488168D01*
X159241342Y-100488165D01*
X159243729Y-100486742D01*
X159245741Y-100484826D01*
X159245745Y-100484823D01*
X159299678Y-100433462D01*
X159361923Y-100374187D01*
X159363460Y-100371873D01*
X159363463Y-100371870D01*
X159450703Y-100240563D01*
X159450704Y-100240560D01*
X159452244Y-100238243D01*
X159453231Y-100235645D01*
X159453233Y-100235641D01*
X159509213Y-100088274D01*
X159509214Y-100088271D01*
X159510203Y-100085667D01*
X159531337Y-99935290D01*
X159532700Y-99925594D01*
X159532700Y-99925592D01*
X159532918Y-99924042D01*
X159532961Y-99921002D01*
X159533181Y-99905168D01*
X159533203Y-99903600D01*
X159519006Y-99777027D01*
X159515320Y-99744166D01*
X159515320Y-99744164D01*
X159515010Y-99741404D01*
X159512785Y-99735013D01*
X159483280Y-99650289D01*
X159461334Y-99587269D01*
X159381483Y-99459480D01*
X159376319Y-99451216D01*
X159376318Y-99451214D01*
X159374844Y-99448856D01*
X159259839Y-99333044D01*
X159257498Y-99331558D01*
X159257495Y-99331556D01*
X159124382Y-99247081D01*
X159122033Y-99245590D01*
X158968276Y-99190840D01*
X158806211Y-99171515D01*
X158803442Y-99171806D01*
X158803440Y-99171806D01*
X158646659Y-99188284D01*
X158646657Y-99188284D01*
X158643892Y-99188575D01*
X158641262Y-99189470D01*
X158641259Y-99189471D01*
X158492023Y-99240275D01*
X158492021Y-99240276D01*
X158489386Y-99241173D01*
X158487016Y-99242631D01*
X158487014Y-99242632D01*
X158435048Y-99274602D01*
X158350372Y-99326695D01*
X158233761Y-99440889D01*
X158232254Y-99443228D01*
X158232252Y-99443230D01*
X158156454Y-99560846D01*
X158145347Y-99578081D01*
X158144396Y-99580694D01*
X158144395Y-99580696D01*
X158101307Y-99699080D01*
X158089524Y-99731452D01*
X158089176Y-99734207D01*
X158089175Y-99734211D01*
X158071054Y-99877658D01*
X158069068Y-99893378D01*
X158084995Y-100055813D01*
X158085874Y-100058454D01*
X158085874Y-100058456D01*
X158105538Y-100117569D01*
X158136513Y-100210682D01*
X158221062Y-100350289D01*
X158222998Y-100352294D01*
X158222999Y-100352295D01*
X158332508Y-100465695D01*
X158332511Y-100465698D01*
X158334440Y-100467695D01*
X158336762Y-100469214D01*
X158336765Y-100469217D01*
X158424118Y-100526379D01*
X158471011Y-100557065D01*
X158473621Y-100558036D01*
X158476106Y-100559291D01*
X158475427Y-100560634D01*
X158499891Y-100583371D01*
X158501284Y-100621461D01*
X158480704Y-100646514D01*
X158457408Y-100660846D01*
X158350372Y-100726695D01*
X158233761Y-100840889D01*
X158232254Y-100843228D01*
X158232252Y-100843230D01*
X158153031Y-100966158D01*
X158145347Y-100978081D01*
X158144396Y-100980694D01*
X158144395Y-100980696D01*
X158103198Y-101093884D01*
X158089524Y-101131452D01*
X158089176Y-101134207D01*
X158089175Y-101134211D01*
X158073548Y-101257912D01*
X158069068Y-101293378D01*
X151178600Y-101293378D01*
X151178600Y-101241042D01*
X151171202Y-101203852D01*
X151143022Y-101161678D01*
X151138944Y-101158953D01*
X151138943Y-101158952D01*
X151118073Y-101145007D01*
X151096897Y-101113316D01*
X151104333Y-101075933D01*
X151118073Y-101062193D01*
X151138943Y-101048248D01*
X151138944Y-101048247D01*
X151143022Y-101045522D01*
X151171202Y-101003348D01*
X151178600Y-100966158D01*
X151178600Y-100141042D01*
X151177385Y-100134934D01*
X151172159Y-100108662D01*
X151172159Y-100108661D01*
X151171202Y-100103852D01*
X151153445Y-100077277D01*
X151145747Y-100065756D01*
X151143022Y-100061678D01*
X151138944Y-100058953D01*
X151138943Y-100058952D01*
X151118073Y-100045007D01*
X151096897Y-100013316D01*
X151104333Y-99975933D01*
X151118073Y-99962193D01*
X151138943Y-99948248D01*
X151138944Y-99948247D01*
X151143022Y-99945522D01*
X151149691Y-99935542D01*
X151168477Y-99907426D01*
X151171202Y-99903348D01*
X151178600Y-99866158D01*
X151178600Y-99041042D01*
X151175376Y-99024833D01*
X151172159Y-99008662D01*
X151172159Y-99008661D01*
X151171202Y-99003852D01*
X151143022Y-98961678D01*
X151138944Y-98958953D01*
X151138943Y-98958952D01*
X151118073Y-98945007D01*
X151096897Y-98913316D01*
X151104333Y-98875933D01*
X151118073Y-98862193D01*
X151138943Y-98848248D01*
X151138944Y-98848247D01*
X151143022Y-98845522D01*
X151171202Y-98803348D01*
X151178600Y-98766158D01*
X151178600Y-97941042D01*
X151173132Y-97913555D01*
X151180567Y-97876172D01*
X151194308Y-97862432D01*
X151229567Y-97838873D01*
X151236374Y-97832066D01*
X151286883Y-97756473D01*
X151290566Y-97747582D01*
X151300409Y-97698101D01*
X152751053Y-97698101D01*
X152767599Y-97824636D01*
X152818994Y-97941440D01*
X152901106Y-98039125D01*
X153007335Y-98109836D01*
X153010723Y-98110894D01*
X153010724Y-98110895D01*
X153054271Y-98124500D01*
X153129141Y-98147891D01*
X153132686Y-98147956D01*
X153253183Y-98150165D01*
X153256731Y-98150230D01*
X153281500Y-98143477D01*
X153319310Y-98148287D01*
X153329813Y-98156309D01*
X153533951Y-98360448D01*
X153535745Y-98362339D01*
X153563430Y-98393086D01*
X153567801Y-98395032D01*
X153572838Y-98399334D01*
X153657414Y-98483910D01*
X153672000Y-98519124D01*
X153672000Y-100193882D01*
X153657414Y-100229096D01*
X153648774Y-100235999D01*
X153630917Y-100247266D01*
X153609394Y-100260846D01*
X153574689Y-100300142D01*
X153530510Y-100350165D01*
X153524919Y-100356495D01*
X153516613Y-100374187D01*
X153472193Y-100468796D01*
X153472192Y-100468799D01*
X153470685Y-100472009D01*
X153451053Y-100598101D01*
X153467599Y-100724636D01*
X153474553Y-100740440D01*
X153513456Y-100828853D01*
X153518994Y-100841440D01*
X153601106Y-100939125D01*
X153707335Y-101009836D01*
X153710723Y-101010894D01*
X153710724Y-101010895D01*
X153728633Y-101016490D01*
X153829141Y-101047891D01*
X153832686Y-101047956D01*
X153953183Y-101050165D01*
X153956731Y-101050230D01*
X153988958Y-101041444D01*
X154076428Y-101017597D01*
X154076430Y-101017596D01*
X154079849Y-101016664D01*
X154127723Y-100987269D01*
X154185580Y-100951745D01*
X154185583Y-100951743D01*
X154188597Y-100949892D01*
X154200804Y-100936406D01*
X154271854Y-100857912D01*
X154271856Y-100857910D01*
X154274234Y-100855282D01*
X154329875Y-100740440D01*
X154351047Y-100614596D01*
X154351181Y-100603600D01*
X154350394Y-100598101D01*
X154333593Y-100480789D01*
X154333090Y-100477277D01*
X154280272Y-100361110D01*
X154196972Y-100264435D01*
X154193994Y-100262505D01*
X154193992Y-100262503D01*
X154152913Y-100235877D01*
X154131297Y-100204484D01*
X154130200Y-100194088D01*
X154130200Y-98482500D01*
X154144786Y-98447286D01*
X154180000Y-98432700D01*
X156478352Y-98432700D01*
X156513566Y-98447286D01*
X156516469Y-98450452D01*
X156591006Y-98539125D01*
X156697235Y-98609836D01*
X156700623Y-98610894D01*
X156700624Y-98610895D01*
X156751197Y-98626695D01*
X156819041Y-98647891D01*
X156822586Y-98647956D01*
X156943083Y-98650165D01*
X156946631Y-98650230D01*
X156959091Y-98646833D01*
X157066328Y-98617597D01*
X157066330Y-98617596D01*
X157069749Y-98616664D01*
X157110438Y-98591681D01*
X157175480Y-98551745D01*
X157175483Y-98551743D01*
X157178497Y-98549892D01*
X157183236Y-98544657D01*
X157261754Y-98457912D01*
X157261756Y-98457910D01*
X157264134Y-98455282D01*
X157319775Y-98340440D01*
X157340947Y-98214596D01*
X157341081Y-98203600D01*
X157333734Y-98152295D01*
X157323493Y-98080789D01*
X157322990Y-98077277D01*
X157270172Y-97961110D01*
X157186872Y-97864435D01*
X157130478Y-97827883D01*
X157082765Y-97796957D01*
X157082764Y-97796956D01*
X157079787Y-97795027D01*
X156957526Y-97758463D01*
X156953979Y-97758441D01*
X156953977Y-97758441D01*
X156896027Y-97758087D01*
X156829917Y-97757683D01*
X156707218Y-97792751D01*
X156599294Y-97860846D01*
X156514819Y-97956495D01*
X156513502Y-97955332D01*
X156486828Y-97973464D01*
X156476723Y-97974500D01*
X153816625Y-97974500D01*
X153781411Y-97959914D01*
X153652648Y-97831151D01*
X153638062Y-97795937D01*
X153638752Y-97787675D01*
X153640825Y-97775354D01*
X153651047Y-97714596D01*
X153651181Y-97703600D01*
X153650394Y-97698101D01*
X153633593Y-97580789D01*
X153633090Y-97577277D01*
X153580272Y-97461110D01*
X153496972Y-97364435D01*
X153389887Y-97295027D01*
X153267626Y-97258463D01*
X153264079Y-97258441D01*
X153264077Y-97258441D01*
X153206127Y-97258087D01*
X153140017Y-97257683D01*
X153017318Y-97292751D01*
X152909394Y-97360846D01*
X152824919Y-97456495D01*
X152796353Y-97517338D01*
X152772193Y-97568796D01*
X152772192Y-97568799D01*
X152770685Y-97572009D01*
X152751053Y-97698101D01*
X151300409Y-97698101D01*
X151303823Y-97680936D01*
X151304300Y-97676090D01*
X151304300Y-97440106D01*
X151301399Y-97433101D01*
X151294394Y-97430200D01*
X149007806Y-97430200D01*
X149000801Y-97433101D01*
X148997900Y-97440106D01*
X148997900Y-97676090D01*
X148998377Y-97680936D01*
X149011634Y-97747582D01*
X149015317Y-97756473D01*
X149065826Y-97832066D01*
X149072633Y-97838873D01*
X149107892Y-97862432D01*
X149129068Y-97894123D01*
X149129068Y-97913554D01*
X149123600Y-97941042D01*
X149123600Y-98074700D01*
X149109014Y-98109914D01*
X149073800Y-98124500D01*
X148358397Y-98124500D01*
X148355791Y-98124432D01*
X148314460Y-98122266D01*
X148309571Y-98124143D01*
X148309569Y-98124143D01*
X148289494Y-98131849D01*
X148282002Y-98134069D01*
X148270939Y-98136421D01*
X148255835Y-98139631D01*
X148251600Y-98142708D01*
X148246146Y-98146671D01*
X148234720Y-98152874D01*
X148228426Y-98155290D01*
X148228422Y-98155292D01*
X148223536Y-98157168D01*
X148204622Y-98176082D01*
X148198680Y-98181157D01*
X148181275Y-98193802D01*
X148181274Y-98193803D01*
X148177042Y-98196878D01*
X148174426Y-98201409D01*
X148174425Y-98201410D01*
X148171053Y-98207251D01*
X148163139Y-98217565D01*
X147444261Y-98936442D01*
X147442370Y-98938237D01*
X147411614Y-98965930D01*
X147400730Y-98990375D01*
X147397013Y-98997221D01*
X147382439Y-99019664D01*
X147381621Y-99024831D01*
X147381620Y-99024833D01*
X147380566Y-99031491D01*
X147376873Y-99043958D01*
X147372000Y-99054903D01*
X147372000Y-99081651D01*
X147371387Y-99089442D01*
X147370016Y-99098101D01*
X147367203Y-99115858D01*
X147368558Y-99120915D01*
X147368558Y-99120916D01*
X147370303Y-99127428D01*
X147372000Y-99140317D01*
X147372000Y-99696303D01*
X147371932Y-99698908D01*
X147369766Y-99740239D01*
X147371641Y-99745123D01*
X147371641Y-99745125D01*
X147379349Y-99765206D01*
X147381568Y-99772696D01*
X147387131Y-99798865D01*
X147390209Y-99803101D01*
X147394171Y-99808554D01*
X147400374Y-99819980D01*
X147402790Y-99826274D01*
X147402792Y-99826278D01*
X147404668Y-99831164D01*
X147423582Y-99850078D01*
X147428657Y-99856020D01*
X147441302Y-99873425D01*
X147441303Y-99873426D01*
X147444378Y-99877658D01*
X147448909Y-99880274D01*
X147448910Y-99880275D01*
X147454751Y-99883647D01*
X147465065Y-99891561D01*
X147736959Y-100163455D01*
X147751055Y-100198085D01*
X147751053Y-100198101D01*
X147751512Y-100201612D01*
X147751512Y-100201615D01*
X147765664Y-100309836D01*
X147767599Y-100324636D01*
X147818994Y-100441440D01*
X147901106Y-100539125D01*
X147904063Y-100541093D01*
X147904066Y-100541096D01*
X147935057Y-100561726D01*
X147956288Y-100593381D01*
X147948917Y-100630776D01*
X147934036Y-100645298D01*
X147909394Y-100660846D01*
X147824919Y-100756495D01*
X147823602Y-100755332D01*
X147796928Y-100773464D01*
X147786823Y-100774500D01*
X147608417Y-100774500D01*
X147605811Y-100774432D01*
X147564461Y-100772265D01*
X147559578Y-100774139D01*
X147559574Y-100774140D01*
X147539490Y-100781850D01*
X147532000Y-100784069D01*
X147524850Y-100785589D01*
X147510956Y-100788542D01*
X147510954Y-100788543D01*
X147505835Y-100789631D01*
X147501598Y-100792709D01*
X147501599Y-100792709D01*
X147496146Y-100796671D01*
X147484720Y-100802874D01*
X147478426Y-100805290D01*
X147478422Y-100805292D01*
X147473536Y-100807168D01*
X147454622Y-100826082D01*
X147448680Y-100831157D01*
X147431275Y-100843802D01*
X147431274Y-100843803D01*
X147427042Y-100846878D01*
X147424426Y-100851409D01*
X147424425Y-100851410D01*
X147421053Y-100857251D01*
X147413139Y-100867565D01*
X142244261Y-106036442D01*
X142242370Y-106038237D01*
X142211614Y-106065930D01*
X142200730Y-106090375D01*
X142197013Y-106097221D01*
X142182439Y-106119664D01*
X142181621Y-106124831D01*
X142181620Y-106124833D01*
X142180566Y-106131491D01*
X142176873Y-106143958D01*
X142172000Y-106154903D01*
X142172000Y-106181651D01*
X142171387Y-106189442D01*
X142167203Y-106215858D01*
X142168558Y-106220915D01*
X142168558Y-106220916D01*
X142170303Y-106227428D01*
X142172000Y-106240317D01*
X142172000Y-108888076D01*
X142157414Y-108923290D01*
X140464261Y-110616442D01*
X140462370Y-110618237D01*
X140431614Y-110645930D01*
X140420730Y-110670375D01*
X140417013Y-110677221D01*
X140402439Y-110699664D01*
X140401621Y-110704831D01*
X140401620Y-110704833D01*
X140400566Y-110711491D01*
X140396873Y-110723958D01*
X140392000Y-110734903D01*
X140392000Y-110761651D01*
X140391387Y-110769442D01*
X140387203Y-110795858D01*
X140388558Y-110800915D01*
X140388558Y-110800916D01*
X140390303Y-110807428D01*
X140392000Y-110820317D01*
X140392000Y-111221159D01*
X140377414Y-111256373D01*
X140356262Y-111268932D01*
X140295984Y-111286673D01*
X140221681Y-111308542D01*
X140221678Y-111308543D01*
X140219348Y-111309229D01*
X140033858Y-111406200D01*
X140031965Y-111407722D01*
X140031962Y-111407724D01*
X139885434Y-111525536D01*
X139870736Y-111537354D01*
X139736195Y-111697693D01*
X139635360Y-111881111D01*
X139634625Y-111883427D01*
X139634624Y-111883430D01*
X139572809Y-112078297D01*
X139572808Y-112078302D01*
X139572072Y-112080622D01*
X139571801Y-112083041D01*
X139571800Y-112083044D01*
X139549012Y-112286209D01*
X139548741Y-112288626D01*
X137203200Y-112288626D01*
X137203200Y-106376090D01*
X139497900Y-106376090D01*
X139498377Y-106380936D01*
X139511634Y-106447582D01*
X139515317Y-106456473D01*
X139565826Y-106532066D01*
X139572634Y-106538874D01*
X139648227Y-106589383D01*
X139657118Y-106593066D01*
X139723764Y-106606323D01*
X139728610Y-106606800D01*
X140514594Y-106606800D01*
X140521599Y-106603899D01*
X140524500Y-106596894D01*
X140777700Y-106596894D01*
X140780601Y-106603899D01*
X140787606Y-106606800D01*
X141573590Y-106606800D01*
X141578436Y-106606323D01*
X141645082Y-106593066D01*
X141653973Y-106589383D01*
X141729566Y-106538874D01*
X141736374Y-106532066D01*
X141786883Y-106456473D01*
X141790566Y-106447582D01*
X141803823Y-106380936D01*
X141804300Y-106376090D01*
X141804300Y-106140106D01*
X141801399Y-106133101D01*
X141794394Y-106130200D01*
X140787606Y-106130200D01*
X140780601Y-106133101D01*
X140777700Y-106140106D01*
X140777700Y-106596894D01*
X140524500Y-106596894D01*
X140524500Y-106140106D01*
X140521599Y-106133101D01*
X140514594Y-106130200D01*
X139507806Y-106130200D01*
X139500801Y-106133101D01*
X139497900Y-106140106D01*
X139497900Y-106376090D01*
X137203200Y-106376090D01*
X137203200Y-104996453D01*
X137418661Y-104996453D01*
X137436656Y-105159444D01*
X137493009Y-105313438D01*
X137584469Y-105449544D01*
X137705755Y-105559905D01*
X137849864Y-105638150D01*
X137852764Y-105638911D01*
X137852767Y-105638912D01*
X138005575Y-105679001D01*
X138005578Y-105679001D01*
X138008477Y-105679762D01*
X138079658Y-105680880D01*
X138169437Y-105682290D01*
X138169438Y-105682290D01*
X138172438Y-105682337D01*
X138175362Y-105681667D01*
X138175365Y-105681667D01*
X138252359Y-105664033D01*
X138332281Y-105645729D01*
X138415543Y-105603852D01*
X138476094Y-105573398D01*
X138476095Y-105573398D01*
X138478776Y-105572049D01*
X138481058Y-105570100D01*
X138481061Y-105570098D01*
X138591314Y-105475933D01*
X138603469Y-105465552D01*
X138624793Y-105435877D01*
X138646376Y-105405840D01*
X138678770Y-105385755D01*
X138686818Y-105385100D01*
X139535632Y-105385100D01*
X139570846Y-105399686D01*
X139585432Y-105434900D01*
X139570846Y-105470114D01*
X139565826Y-105475134D01*
X139515317Y-105550727D01*
X139511634Y-105559618D01*
X139498377Y-105626264D01*
X139497900Y-105631110D01*
X139497900Y-105867094D01*
X139500801Y-105874099D01*
X139507806Y-105877000D01*
X141794394Y-105877000D01*
X141801399Y-105874099D01*
X141804300Y-105867094D01*
X141804300Y-105631110D01*
X141803823Y-105626264D01*
X141790566Y-105559618D01*
X141786883Y-105550727D01*
X141736374Y-105475134D01*
X141729567Y-105468327D01*
X141694308Y-105444768D01*
X141673132Y-105413077D01*
X141673132Y-105393645D01*
X141678123Y-105368556D01*
X141678600Y-105366158D01*
X141678600Y-104541042D01*
X141673132Y-104513555D01*
X141680567Y-104476172D01*
X141694308Y-104462432D01*
X141729567Y-104438873D01*
X141736374Y-104432066D01*
X141786883Y-104356473D01*
X141790566Y-104347582D01*
X141803823Y-104280936D01*
X141804300Y-104276090D01*
X141804300Y-103990106D01*
X141801399Y-103983101D01*
X141794394Y-103980200D01*
X139507806Y-103980200D01*
X139500801Y-103983101D01*
X139497900Y-103990106D01*
X139497900Y-104276090D01*
X139498377Y-104280936D01*
X139511634Y-104347582D01*
X139515317Y-104356473D01*
X139565826Y-104432066D01*
X139572633Y-104438873D01*
X139607892Y-104462432D01*
X139629068Y-104494123D01*
X139629068Y-104513554D01*
X139623600Y-104541042D01*
X139623600Y-104572300D01*
X139609014Y-104607514D01*
X139573800Y-104622100D01*
X138687227Y-104622100D01*
X138652013Y-104607514D01*
X138646186Y-104600507D01*
X138614734Y-104554744D01*
X138614728Y-104554737D01*
X138613033Y-104552271D01*
X138490598Y-104443185D01*
X138345678Y-104366454D01*
X138186637Y-104326506D01*
X138183633Y-104326490D01*
X138183631Y-104326490D01*
X138107024Y-104326089D01*
X138022658Y-104325647D01*
X137863208Y-104363928D01*
X137717492Y-104439137D01*
X137593921Y-104546934D01*
X137499632Y-104681095D01*
X137440065Y-104833875D01*
X137418661Y-104996453D01*
X137203200Y-104996453D01*
X137203200Y-103717094D01*
X139497900Y-103717094D01*
X139500801Y-103724099D01*
X139507806Y-103727000D01*
X140514594Y-103727000D01*
X140521599Y-103724099D01*
X140524500Y-103717094D01*
X140777700Y-103717094D01*
X140780601Y-103724099D01*
X140787606Y-103727000D01*
X141794394Y-103727000D01*
X141801399Y-103724099D01*
X141804300Y-103717094D01*
X141804300Y-103431110D01*
X141803823Y-103426264D01*
X141790566Y-103359618D01*
X141786883Y-103350727D01*
X141736374Y-103275134D01*
X141729566Y-103268326D01*
X141653973Y-103217817D01*
X141645082Y-103214134D01*
X141578436Y-103200877D01*
X141573590Y-103200400D01*
X140787606Y-103200400D01*
X140780601Y-103203301D01*
X140777700Y-103210306D01*
X140777700Y-103717094D01*
X140524500Y-103717094D01*
X140524500Y-103210306D01*
X140521599Y-103203301D01*
X140514594Y-103200400D01*
X139728610Y-103200400D01*
X139723764Y-103200877D01*
X139657118Y-103214134D01*
X139648227Y-103217817D01*
X139572634Y-103268326D01*
X139565826Y-103275134D01*
X139515317Y-103350727D01*
X139511634Y-103359618D01*
X139498377Y-103426264D01*
X139497900Y-103431110D01*
X139497900Y-103717094D01*
X137203200Y-103717094D01*
X137203200Y-99193378D01*
X137469068Y-99193378D01*
X137484995Y-99355813D01*
X137536513Y-99510682D01*
X137621062Y-99650289D01*
X137622998Y-99652294D01*
X137622999Y-99652295D01*
X137732508Y-99765695D01*
X137732511Y-99765698D01*
X137734440Y-99767695D01*
X137736762Y-99769214D01*
X137736765Y-99769217D01*
X137796879Y-99808554D01*
X137871011Y-99857065D01*
X137926385Y-99877658D01*
X138021379Y-99912986D01*
X138021381Y-99912987D01*
X138023988Y-99913956D01*
X138185768Y-99935542D01*
X138188537Y-99935290D01*
X138188539Y-99935290D01*
X138345541Y-99921002D01*
X138348310Y-99920750D01*
X138418016Y-99898101D01*
X142251053Y-99898101D01*
X142267599Y-100024636D01*
X142283301Y-100060322D01*
X142316011Y-100134660D01*
X142318994Y-100141440D01*
X142401106Y-100239125D01*
X142507335Y-100309836D01*
X142510723Y-100310894D01*
X142510724Y-100310895D01*
X142579044Y-100332239D01*
X142629141Y-100347891D01*
X142632686Y-100347956D01*
X142753183Y-100350165D01*
X142756731Y-100350230D01*
X142780921Y-100343635D01*
X142876428Y-100317597D01*
X142876430Y-100317596D01*
X142879849Y-100316664D01*
X142920538Y-100291681D01*
X142985580Y-100251745D01*
X142985583Y-100251743D01*
X142988597Y-100249892D01*
X143074234Y-100155282D01*
X143074768Y-100154179D01*
X143105834Y-100133615D01*
X143115338Y-100132700D01*
X144993803Y-100132700D01*
X144996408Y-100132768D01*
X145037739Y-100134934D01*
X145042623Y-100133059D01*
X145042625Y-100133059D01*
X145062706Y-100125351D01*
X145070196Y-100123132D01*
X145091244Y-100118658D01*
X145091246Y-100118657D01*
X145096365Y-100117569D01*
X145106055Y-100110528D01*
X145117480Y-100104326D01*
X145123774Y-100101910D01*
X145123778Y-100101908D01*
X145128664Y-100100032D01*
X145147578Y-100081118D01*
X145153520Y-100076043D01*
X145170925Y-100063398D01*
X145170926Y-100063397D01*
X145175158Y-100060322D01*
X145179363Y-100053040D01*
X145181147Y-100049949D01*
X145189061Y-100039635D01*
X145671007Y-99557690D01*
X145706221Y-99543104D01*
X145721067Y-99545369D01*
X145729141Y-99547891D01*
X145732686Y-99547956D01*
X145853183Y-99550165D01*
X145856731Y-99550230D01*
X145865310Y-99547891D01*
X145976428Y-99517597D01*
X145976430Y-99517596D01*
X145979849Y-99516664D01*
X146072982Y-99459480D01*
X146085580Y-99451745D01*
X146085583Y-99451743D01*
X146088597Y-99449892D01*
X146149232Y-99382904D01*
X146171854Y-99357912D01*
X146171856Y-99357910D01*
X146174234Y-99355282D01*
X146229875Y-99240440D01*
X146251047Y-99114596D01*
X146251181Y-99103600D01*
X146250394Y-99098101D01*
X146233593Y-98980789D01*
X146233090Y-98977277D01*
X146180272Y-98861110D01*
X146096972Y-98764435D01*
X145989887Y-98695027D01*
X145867626Y-98658463D01*
X145864079Y-98658441D01*
X145864077Y-98658441D01*
X145806127Y-98658087D01*
X145740017Y-98657683D01*
X145617318Y-98692751D01*
X145509394Y-98760846D01*
X145502585Y-98768556D01*
X145432203Y-98848248D01*
X145424919Y-98856495D01*
X145413557Y-98880696D01*
X145372193Y-98968796D01*
X145372192Y-98968799D01*
X145370685Y-98972009D01*
X145351053Y-99098101D01*
X145358941Y-99158425D01*
X145363085Y-99190114D01*
X145353188Y-99226922D01*
X145348919Y-99231785D01*
X144920789Y-99659914D01*
X144885575Y-99674500D01*
X143114636Y-99674500D01*
X143076909Y-99657207D01*
X142999289Y-99567124D01*
X142996972Y-99564435D01*
X142889887Y-99495027D01*
X142767626Y-99458463D01*
X142764079Y-99458441D01*
X142764077Y-99458441D01*
X142706127Y-99458087D01*
X142640017Y-99457683D01*
X142517318Y-99492751D01*
X142409394Y-99560846D01*
X142324919Y-99656495D01*
X142316613Y-99674187D01*
X142272193Y-99768796D01*
X142272192Y-99768799D01*
X142270685Y-99772009D01*
X142251053Y-99898101D01*
X138418016Y-99898101D01*
X138438144Y-99891561D01*
X138500892Y-99871173D01*
X138500894Y-99871172D01*
X138503535Y-99870314D01*
X138506484Y-99868556D01*
X138641338Y-99788168D01*
X138641342Y-99788165D01*
X138643729Y-99786742D01*
X138645741Y-99784826D01*
X138645745Y-99784823D01*
X138704531Y-99728841D01*
X138761923Y-99674187D01*
X138763460Y-99671873D01*
X138763463Y-99671870D01*
X138850703Y-99540563D01*
X138850704Y-99540560D01*
X138852244Y-99538243D01*
X138853231Y-99535645D01*
X138853233Y-99535641D01*
X138909213Y-99388274D01*
X138909214Y-99388271D01*
X138910203Y-99385667D01*
X138930637Y-99240275D01*
X138932700Y-99225594D01*
X138932700Y-99225592D01*
X138932918Y-99224042D01*
X138933203Y-99203600D01*
X138915010Y-99041404D01*
X138912506Y-99034211D01*
X138876656Y-98931267D01*
X138861334Y-98887269D01*
X138786259Y-98767124D01*
X138776319Y-98751216D01*
X138776318Y-98751214D01*
X138774844Y-98748856D01*
X138659839Y-98633044D01*
X138657498Y-98631558D01*
X138657495Y-98631556D01*
X138575443Y-98579485D01*
X138522033Y-98545590D01*
X138393639Y-98499871D01*
X138365359Y-98474318D01*
X138363430Y-98436252D01*
X138388984Y-98407971D01*
X138394956Y-98405594D01*
X138500892Y-98371173D01*
X138500894Y-98371172D01*
X138503535Y-98370314D01*
X138505924Y-98368890D01*
X138641338Y-98288168D01*
X138641342Y-98288165D01*
X138643729Y-98286742D01*
X138645741Y-98284826D01*
X138645745Y-98284823D01*
X138699678Y-98233462D01*
X138761923Y-98174187D01*
X138763460Y-98171873D01*
X138763463Y-98171870D01*
X138850703Y-98040563D01*
X138850704Y-98040560D01*
X138852244Y-98038243D01*
X138853231Y-98035645D01*
X138853233Y-98035641D01*
X138909213Y-97888274D01*
X138909214Y-97888271D01*
X138910203Y-97885667D01*
X138926605Y-97768964D01*
X138932700Y-97725594D01*
X138932700Y-97725592D01*
X138932918Y-97724042D01*
X138933203Y-97703600D01*
X138919034Y-97577277D01*
X138915320Y-97544166D01*
X138915320Y-97544164D01*
X138915010Y-97541404D01*
X138912506Y-97534211D01*
X138879734Y-97440106D01*
X138861334Y-97387269D01*
X138781483Y-97259480D01*
X138776319Y-97251216D01*
X138776318Y-97251214D01*
X138774844Y-97248856D01*
X138693652Y-97167094D01*
X148997900Y-97167094D01*
X149000801Y-97174099D01*
X149007806Y-97177000D01*
X150014594Y-97177000D01*
X150021599Y-97174099D01*
X150024500Y-97167094D01*
X150277700Y-97167094D01*
X150280601Y-97174099D01*
X150287606Y-97177000D01*
X151294394Y-97177000D01*
X151301399Y-97174099D01*
X151304300Y-97167094D01*
X151304300Y-96931110D01*
X151303823Y-96926264D01*
X151290566Y-96859618D01*
X151286883Y-96850727D01*
X151236374Y-96775134D01*
X151229566Y-96768326D01*
X151153973Y-96717817D01*
X151145082Y-96714134D01*
X151078436Y-96700877D01*
X151073590Y-96700400D01*
X150287606Y-96700400D01*
X150280601Y-96703301D01*
X150277700Y-96710306D01*
X150277700Y-97167094D01*
X150024500Y-97167094D01*
X150024500Y-96710306D01*
X150021599Y-96703301D01*
X150014594Y-96700400D01*
X149228610Y-96700400D01*
X149223764Y-96700877D01*
X149157118Y-96714134D01*
X149148227Y-96717817D01*
X149072634Y-96768326D01*
X149065826Y-96775134D01*
X149015317Y-96850727D01*
X149011634Y-96859618D01*
X148998377Y-96926264D01*
X148997900Y-96931110D01*
X148997900Y-97167094D01*
X138693652Y-97167094D01*
X138659839Y-97133044D01*
X138657498Y-97131558D01*
X138657495Y-97131556D01*
X138524382Y-97047081D01*
X138522033Y-97045590D01*
X138368276Y-96990840D01*
X138206211Y-96971515D01*
X138203442Y-96971806D01*
X138203440Y-96971806D01*
X138046659Y-96988284D01*
X138046657Y-96988284D01*
X138043892Y-96988575D01*
X138041262Y-96989470D01*
X138041259Y-96989471D01*
X137892023Y-97040275D01*
X137892021Y-97040276D01*
X137889386Y-97041173D01*
X137887016Y-97042631D01*
X137887014Y-97042632D01*
X137835048Y-97074602D01*
X137750372Y-97126695D01*
X137633761Y-97240889D01*
X137632254Y-97243228D01*
X137632252Y-97243230D01*
X137556454Y-97360846D01*
X137545347Y-97378081D01*
X137544396Y-97380694D01*
X137544395Y-97380696D01*
X137515127Y-97461110D01*
X137489524Y-97531452D01*
X137489176Y-97534207D01*
X137489175Y-97534211D01*
X137484806Y-97568796D01*
X137469068Y-97693378D01*
X137484995Y-97855813D01*
X137485874Y-97858454D01*
X137485874Y-97858456D01*
X137494007Y-97882904D01*
X137536513Y-98010682D01*
X137621062Y-98150289D01*
X137622998Y-98152294D01*
X137622999Y-98152295D01*
X137732508Y-98265695D01*
X137732511Y-98265698D01*
X137734440Y-98267695D01*
X137736762Y-98269214D01*
X137736765Y-98269217D01*
X137824118Y-98326379D01*
X137871011Y-98357065D01*
X137885193Y-98362339D01*
X138007171Y-98407702D01*
X138035092Y-98433648D01*
X138036489Y-98471738D01*
X138010543Y-98499659D01*
X138005865Y-98501520D01*
X137956629Y-98518282D01*
X137892023Y-98540275D01*
X137892021Y-98540276D01*
X137889386Y-98541173D01*
X137887016Y-98542631D01*
X137887014Y-98542632D01*
X137879482Y-98547266D01*
X137750372Y-98626695D01*
X137728661Y-98647956D01*
X137683914Y-98691776D01*
X137633761Y-98740889D01*
X137632254Y-98743228D01*
X137632252Y-98743230D01*
X137559258Y-98856495D01*
X137545347Y-98878081D01*
X137544396Y-98880694D01*
X137544395Y-98880696D01*
X137493815Y-99019664D01*
X137489524Y-99031452D01*
X137489176Y-99034207D01*
X137489175Y-99034211D01*
X137469480Y-99190114D01*
X137469068Y-99193378D01*
X137203200Y-99193378D01*
X137203200Y-94593378D01*
X144569068Y-94593378D01*
X144584995Y-94755813D01*
X144585874Y-94758454D01*
X144585874Y-94758456D01*
X144594007Y-94782904D01*
X144636513Y-94910682D01*
X144721062Y-95050289D01*
X144722998Y-95052294D01*
X144722999Y-95052295D01*
X144832508Y-95165695D01*
X144832511Y-95165698D01*
X144834440Y-95167695D01*
X144836762Y-95169214D01*
X144836765Y-95169217D01*
X144924118Y-95226379D01*
X144971011Y-95257065D01*
X145002808Y-95268890D01*
X145121379Y-95312986D01*
X145121381Y-95312987D01*
X145123988Y-95313956D01*
X145285768Y-95335542D01*
X145288537Y-95335290D01*
X145288539Y-95335290D01*
X145445541Y-95321002D01*
X145448310Y-95320750D01*
X145525923Y-95295532D01*
X145600892Y-95271173D01*
X145600894Y-95271172D01*
X145603535Y-95270314D01*
X145605924Y-95268890D01*
X145741338Y-95188168D01*
X145741342Y-95188165D01*
X145743729Y-95186742D01*
X145745741Y-95184826D01*
X145745745Y-95184823D01*
X145799678Y-95133462D01*
X145861923Y-95074187D01*
X145863460Y-95071873D01*
X145863463Y-95071870D01*
X145950703Y-94940563D01*
X145950704Y-94940560D01*
X145952244Y-94938243D01*
X146005708Y-94797500D01*
X146031848Y-94769760D01*
X146069946Y-94768630D01*
X146097686Y-94794770D01*
X146099516Y-94799465D01*
X146136513Y-94910682D01*
X146221062Y-95050289D01*
X146222998Y-95052294D01*
X146222999Y-95052295D01*
X146332508Y-95165695D01*
X146332511Y-95165698D01*
X146334440Y-95167695D01*
X146336762Y-95169214D01*
X146336765Y-95169217D01*
X146424118Y-95226379D01*
X146471011Y-95257065D01*
X146502808Y-95268890D01*
X146621379Y-95312986D01*
X146621381Y-95312987D01*
X146623988Y-95313956D01*
X146785768Y-95335542D01*
X146788537Y-95335290D01*
X146788539Y-95335290D01*
X146945541Y-95321002D01*
X146948310Y-95320750D01*
X147025923Y-95295532D01*
X147100892Y-95271173D01*
X147100894Y-95271172D01*
X147103535Y-95270314D01*
X147105924Y-95268890D01*
X147241338Y-95188168D01*
X147241342Y-95188165D01*
X147243729Y-95186742D01*
X147245741Y-95184826D01*
X147245745Y-95184823D01*
X147299678Y-95133462D01*
X147361923Y-95074187D01*
X147363460Y-95071873D01*
X147363463Y-95071870D01*
X147450703Y-94940563D01*
X147450704Y-94940560D01*
X147452244Y-94938243D01*
X147453231Y-94935645D01*
X147453233Y-94935641D01*
X147509213Y-94788274D01*
X147509214Y-94788271D01*
X147510203Y-94785667D01*
X147532918Y-94624042D01*
X147533203Y-94603600D01*
X147515010Y-94441404D01*
X147512506Y-94434211D01*
X147462248Y-94289895D01*
X147461334Y-94287269D01*
X147374844Y-94148856D01*
X147259839Y-94033044D01*
X147257498Y-94031558D01*
X147257495Y-94031556D01*
X147124382Y-93947081D01*
X147122033Y-93945590D01*
X146968276Y-93890840D01*
X146806211Y-93871515D01*
X146803442Y-93871806D01*
X146803440Y-93871806D01*
X146646659Y-93888284D01*
X146646657Y-93888284D01*
X146643892Y-93888575D01*
X146641262Y-93889470D01*
X146641259Y-93889471D01*
X146492023Y-93940275D01*
X146492021Y-93940276D01*
X146489386Y-93941173D01*
X146487016Y-93942631D01*
X146487014Y-93942632D01*
X146435048Y-93974602D01*
X146350372Y-94026695D01*
X146233761Y-94140889D01*
X146232254Y-94143228D01*
X146232252Y-94143230D01*
X146146856Y-94275739D01*
X146145347Y-94278081D01*
X146144396Y-94280694D01*
X146144395Y-94280696D01*
X146097506Y-94409521D01*
X146071755Y-94437622D01*
X146033676Y-94439285D01*
X146005575Y-94413534D01*
X146003679Y-94408866D01*
X145962248Y-94289895D01*
X145961334Y-94287269D01*
X145874844Y-94148856D01*
X145759839Y-94033044D01*
X145757498Y-94031558D01*
X145757495Y-94031556D01*
X145624382Y-93947081D01*
X145622033Y-93945590D01*
X145468276Y-93890840D01*
X145306211Y-93871515D01*
X145303442Y-93871806D01*
X145303440Y-93871806D01*
X145146659Y-93888284D01*
X145146657Y-93888284D01*
X145143892Y-93888575D01*
X145141262Y-93889470D01*
X145141259Y-93889471D01*
X144992023Y-93940275D01*
X144992021Y-93940276D01*
X144989386Y-93941173D01*
X144987016Y-93942631D01*
X144987014Y-93942632D01*
X144935048Y-93974602D01*
X144850372Y-94026695D01*
X144733761Y-94140889D01*
X144732254Y-94143228D01*
X144732252Y-94143230D01*
X144646856Y-94275739D01*
X144645347Y-94278081D01*
X144644396Y-94280694D01*
X144644395Y-94280696D01*
X144596046Y-94413534D01*
X144589524Y-94431452D01*
X144589176Y-94434207D01*
X144589175Y-94434211D01*
X144569417Y-94590614D01*
X144569068Y-94593378D01*
X137203200Y-94593378D01*
X137203200Y-93055500D01*
X137217786Y-93020286D01*
X137253000Y-93005700D01*
X159749200Y-93005700D01*
X159784414Y-93020286D01*
G37*
G04 #@! TD.AperFunction*
M02*
